<svg width="248" height="177" viewBox="0 0 248 177" fill="none" xmlns="http://www.w3.org/2000/svg">
<path d="M22.5005 168.277C22.3792 168.277 22.2579 168.277 22.0286 168.141C21.4306 167.785 20.3439 165.266 18.9019 161.345C17.8006 158.351 16.9385 156.457 16.1871 153.919C15.6359 152.058 14.8696 148.995 13.973 146.169C12.2645 140.781 10.9144 137.381 10.2545 132.965C9.7258 129.426 9.04879 123.22 8.57771 115.801C8.10664 108.381 7.92469 99.9287 8.02807 94.5935C8.13144 89.2583 8.52565 87.2968 9.33518 84.0366C10.1447 80.7765 11.3576 76.2771 12.1644 73.0493C12.9712 69.8215 13.335 68.0015 14.6545 63.4342C15.974 58.8668 18.2381 51.6072 19.5814 47.4326C21.2115 42.3665 22.2392 40.3096 23.4005 38.1381C24.3692 36.3268 25.1839 35.3066 25.4998 34.6397C25.8504 33.8997 25.9202 33.0503 25.8907 32.7412C25.8253 32.0579 25.2988 34.4202 25.1763 35.4691C24.8906 37.9149 26.1674 43.8573 26.9907 47.4914C27.4678 49.5972 29.1029 51.84 29.9351 54.6159C30.636 56.954 32.0023 59.4477 33.7141 65.6016C34.5486 68.6014 36.2842 70.6886 40.1874 76.7026C42.0473 79.5682 44.854 83.5508 47.3746 88.2665C48.6026 90.564 49.2048 92.5033 50.8234 96.4164C51.906 99.0336 53.9683 102.736 55.6757 105.983C58.7705 111.868 60.5894 115.093 61.4286 116.223C62.4279 117.569 63.388 118.546 64.6854 121.145C65.7893 123.356 67.6001 127.475 68.7603 129.933C70.937 134.545 74.1608 137.881 75.9093 140.002C77.5164 141.952 78.4042 145.462 79.3242 146.729C79.8732 147.173 80.4986 147.594 81.0594 148.052C81.2968 148.298 81.4383 148.571 81.5841 149.005" stroke="white" stroke-width="16" stroke-linecap="round" stroke-linejoin="round"/>
<path d="M136.809 143.611C136.809 143.743 136.809 143.874 136.93 144.078C137.051 144.283 137.294 144.556 137.565 144.641C137.837 144.726 138.13 144.615 138.559 144.325C138.988 144.035 139.544 143.57 142.504 140.509C145.463 137.449 150.81 131.807 154.02 128.349C157.229 124.892 158.139 123.79 161.513 118.268C164.888 112.746 170.7 102.837 175.695 93.7386C180.69 84.6404 184.693 76.6528 188.028 69.3732C191.364 62.0937 193.911 55.7643 195.41 51.8818C196.909 47.9994 197.283 46.7558 198.366 40.9585C199.448 35.1613 201.227 24.8482 202.173 19.227C203.223 12.996 203.243 11.8986 203.193 11.0171C203.103 9.44855 202.6 8.44591 202.635 8.03059C202.667 7.65369 203.726 11.0125 205.839 17.2105C207.167 21.1041 209.367 26.3912 212.998 34.0196C216.628 41.6479 221.712 51.4252 225.792 60.5518C229.871 69.6784 232.792 77.8581 234.56 83.2043C236.328 88.5505 236.853 90.8154 237.518 94.6008C238.183 98.3863 238.971 103.624 239.453 108.582C239.935 113.539 240.087 118.059 239.271 124.796C238.454 131.532 236.665 140.349 235.673 145.103C234.68 149.857 234.539 150.282 234.309 150.526C234.08 150.77 233.766 150.821 233.107 151.486" stroke="white" stroke-width="16" stroke-linecap="round" stroke-linejoin="round"/>
<path d="M31.7812 18.6361C31.8217 18.4137 31.9436 17.9553 31.9199 17.5659C31.9118 17.4332 31.4413 17.7831 31.1681 18.1208C30.6205 18.7975 29.9999 20.9074 29.057 24.0361C28.2163 26.8255 27.8828 29.6417 27.6125 34.9511C27.4144 38.8415 27.4534 45.1745 27.3414 48.157C27.2295 51.1396 27.0576 50.5835 26.7771 48.8512C26.0302 44.2397 25.7167 40.176 25.9087 37.7584C26.1454 34.7785 27.3557 30.1868 28.1613 25.3032C28.4722 23.4192 28.6638 22.7552 28.9848 21.7442C29.3058 20.7331 29.7708 19.3984 30.0103 20.6016C30.2498 21.8048 30.2498 25.5863 30.452 29.4048C30.6541 33.2234 31.0584 36.9644 32.141 42.6124C33.2236 48.2604 34.9722 55.702 36.4037 60.9966C37.8351 66.2912 38.8964 69.2133 39.6605 71.1988C40.4245 73.1844 40.8591 74.1449 41.1032 74.4881C41.3473 74.8313 41.3878 74.5279 40.6404 71.0755C39.8931 67.6231 38.3567 61.0308 37.2064 54.4094C36.0562 47.788 35.3385 41.3372 34.9638 37.3367C34.463 31.9909 34.6696 29.3923 34.9693 26.5027C35.3707 22.6321 35.7934 19.5639 35.7787 18.5652C35.7764 18.4092 35.6123 18.9922 35.5549 21.3365C35.4975 23.6809 35.5076 27.7758 35.9626 33.6415C36.4176 39.5072 37.3172 47.0196 37.9524 51.6934C38.5877 56.3672 38.9313 57.9749 40.8115 64C42.6917 70.0252 46.0979 80.4192 48.9241 88.17C51.7502 95.9207 53.893 100.713 55.4922 104.067C59.1913 111.824 60.7632 113.368 61.2232 113.809C61.3081 113.89 61.2183 113.421 59.9328 110.685C58.6473 107.949 56.2013 102.894 54.0113 97.807C51.8213 92.7205 49.9615 87.756 48.8417 84.597C47.7219 81.438 47.3985 80.2348 47.3733 80.0598C47.3482 79.8849 47.6312 80.7746 48.3835 82.6485C49.1357 84.5224 50.3486 87.3534 53.2578 93.4275C56.167 99.5015 60.7356 108.733 63.4429 114.348C66.1502 119.963 66.8578 121.681 67.015 122.329C67.0881 122.63 64.7036 118.383 62.3289 113.272C61.63 111.768 61.7635 112.57 62.5294 114.427C63.2953 116.284 64.6396 119.196 66.9342 123.168C69.2288 127.14 72.4329 132.085 74.3412 135.157C76.2496 138.23 76.7651 139.282 76.783 139.566C76.8009 139.849 76.3056 139.334 71.3252 129.362C66.3447 119.39 56.8941 99.9767 50.9036 86.2048C44.9132 72.4328 42.6693 64.8901 40.9372 57.0561C39.2052 49.2222 38.0529 41.3256 37.4441 36.3173C36.6093 29.4494 36.8648 27.0864 37.0329 26.6758C37.0623 26.6042 37.1707 27.0741 37.6872 31.1196C38.2036 35.165 39.1739 42.8392 40.0023 48.3243C40.8306 53.8095 41.4876 56.8731 42.8571 61.8435C44.2265 66.8139 46.2885 73.5983 47.5579 77.6191C48.8273 81.6399 49.2417 82.6914 50.4306 85.2351C51.6195 87.7787 53.5702 91.7826 55.3838 95.7309C57.1973 99.6792 58.8146 103.451 60.0974 106.081C62.097 110.181 63.9648 112.565 65.5228 115.114C67.4715 118.302 68.7026 122.229 69.9415 125.285C70.449 126.536 70.766 127.157 71.9886 129.27C73.2112 131.382 75.3439 134.962 76.9934 137.614C79.7446 141.885 81.5974 144.492 82.7909 146.21C83.2667 146.987 83.479 147.574 84.0652 148.484" stroke="white" stroke-width="16" stroke-linecap="round" stroke-linejoin="round"/>
<path d="M25.9922 52.6742L26.084 51.9082" stroke="#F24822" stroke-width="12" stroke-linecap="round" stroke-linejoin="round"/>
<path d="M28.7796 40.4488C28.7999 40.3275 28.5879 40.7907 27.7658 43.7511C25.9083 50.4399 25.0646 55.3762 24.6431 56.5198C23.9706 58.3447 23.3288 59.7784 22.953 61.3258C22.1887 64.4732 21.7368 68.3025 21.1831 72.712C20.8485 75.3773 20.2555 78.891 19.8226 84.5255C19.3896 90.1601 19.0965 97.8039 19.0365 102.505C18.9569 108.734 19.4065 111.62 19.5186 113.774C19.5792 114.938 19.7936 115.957 20.3214 119.228C20.7374 121.807 21.3343 126.271 21.834 129.447C22.3337 132.624 22.6875 134.383 23.5874 137.934C24.4872 141.484 25.9225 146.772 26.7883 149.809C27.8384 153.494 28.632 155.96 29.4476 159.062C30.6137 163.122 31.8781 167.86 32.4634 169.378C32.6162 169.202 32.8386 168.413 33.0677 167.601" stroke="#F24822" stroke-width="12" stroke-linecap="round" stroke-linejoin="round"/>
<path d="M30.5254 34.9043C30.4648 34.9043 30.4041 34.9043 30.3173 35.0863C30.0672 35.6105 30.0249 37.2408 30.1516 39.9996C30.3037 43.3143 31.123 47.0689 31.9287 50.5106C32.5193 53.0334 32.7295 54.4992 33.1609 55.693C33.9041 57.7497 35.0325 60.8571 36.37 65.5971C37.1777 68.4594 38.1423 72.2785 39.355 75.9205C40.5678 79.5626 41.9727 82.9194 43.3838 86.9185C44.7949 90.9177 46.1695 95.4575 47.3629 98.9893C49.3798 104.959 50.9407 108.862 51.6747 111.377C52.5352 114.325 54.6722 118.016 56.9302 122.186C58.4384 124.972 59.5165 128.273 60.8473 130.813C62.754 134.451 64.3155 137.502 67.4873 141.783C70.2585 145.524 72.7593 147.5 74.2239 149.228C75.5077 151.463 76.089 152.209 76.5474 152.693C76.7733 152.944 76.9855 153.207 76.8673 153.14" stroke="#F24822" stroke-width="12" stroke-linecap="round" stroke-linejoin="round"/>
<path d="M205.112 30.9199C205.091 30.9199 204.95 31.3648 204.745 32.8073C204.39 35.3181 204.248 39.9989 203.57 46.2788C203.224 49.4781 203.164 52.7306 202.975 55.4744C202.638 60.369 202.183 63.0655 201.943 64.0437C201.712 64.9914 200.719 67.5633 199.257 71.6448C197.943 75.3112 196.476 79.8643 194.482 84.5155C192.068 90.1468 190.577 94.0542 189.345 97.0335C186.783 103.228 185.493 104.975 184.365 107.243C183.74 108.498 183.164 109.85 182.002 111.963C179.947 115.697 178.365 118.462 177.633 119.697C175.632 123.073 173.905 125.374 172.566 127.101C171.255 128.793 170.934 130.837 168.78 133.645C166.135 137.094 163.456 139.315 160.097 142.466C158.112 144.329 154.306 147.557 151.293 150.075C150.87 150.41 150.597 150.652 150.371 150.909C150.144 151.165 149.972 151.428 149.673 152.097" stroke="#F24822" stroke-width="12" stroke-linecap="round" stroke-linejoin="round"/>
<path d="M203.978 27.9785C204.029 28.4035 204.829 30.8016 207.194 37.0794C208.947 41.7289 211.481 49.4743 213.087 54.9449C214.693 60.4155 215.209 63.4083 216.045 66.8004C216.882 70.1924 218.024 73.893 218.774 76.1532C219.768 79.1488 221.455 82.2568 223.571 86.3326C224.865 88.8232 225.447 90.5962 226.209 93.3289C226.732 95.2032 227.396 98.104 228.109 101.858C228.822 105.613 229.529 110.143 229.934 113.957C230.651 120.714 230.564 124.242 230.656 125.654C230.812 128.052 230.475 131.387 230.113 134.352C229.253 138.147 227.963 142.635 227.657 143.593C227.533 144.026 227.472 144.349 227.41 145.081" stroke="#F24822" stroke-width="12" stroke-linecap="round" stroke-linejoin="round"/>
<path d="M213.136 53.3809C213.46 54.1291 215.031 57.4264 217.398 62.4502C218.386 64.5493 218.834 65.7854 219.625 68.1497C220.415 70.5139 221.507 73.982 222.403 77.5784C223.299 81.1748 223.966 84.7945 224.456 87.2052C225.239 90.7078 225.865 92.7429 226.415 94.2632C226.643 94.8735 226.764 95.1566 226.889 95.4483" stroke="#F24822" stroke-width="12" stroke-linecap="round" stroke-linejoin="round"/>
<path d="M210.962 44.2188C211.144 44.5625 211.804 46.0742 213.086 49.5069C214.892 54.3425 215.758 57.9288 216.661 59.9802C218.332 63.7765 219.973 66.8331 220.661 68.1334C221.14 69.0381 221.85 71.558 223.152 76.595C224.836 83.1051 225.581 87.1922 225.866 87.9246C226.668 89.9899 227.619 92.944 228.815 98.3704C230.503 106.032 231.003 111.069 231.069 111.975C231.143 112.981 231.227 114.343 231.345 119.735C231.445 124.306 231.251 132.608 231.204 137.264C230.864 144.642 229.854 148.085 229.201 150.022C228.923 150.917 228.751 151.635 228.359 152.834" stroke="#F24822" stroke-width="12" stroke-linecap="round" stroke-linejoin="round"/>
<path d="M29.6986 61.0703C29.4655 61.5556 29.1166 63.4611 28.8387 67.4739C28.6241 70.5716 28.0048 75.804 27.7133 79.6244C27.2514 85.6793 27.4418 88.4571 27.5081 89.652C27.5491 90.3912 27.5441 91.403 27.519 93.5669C27.4939 95.7308 27.4332 99.0168 27.7406 104.344C28.048 109.672 28.7252 116.942 29.2105 121.491C29.8685 127.659 30.7148 130.507 31.6366 133.098C32.6614 135.979 33.2892 138.466 33.9661 140.517C34.8423 143.171 35.9591 147.051 37.2702 150.711C38.2336 153.4 39.4147 155.358 40.7244 159.14C41.4932 161.109 42.4449 163.199 43.3529 165.097C43.705 165.853 43.8364 166.186 44.7375 166.254" stroke="#B51A00" stroke-width="12" stroke-linecap="round" stroke-linejoin="round"/>
<path d="M29.8822 57.1777C29.8721 57.8481 29.7505 59.6083 29.5064 64.4164C29.3142 68.201 29.1814 74.7247 29.123 78.4078C29.0544 82.7375 29.3195 84.0114 29.584 85.2845C29.8722 86.6718 31.1178 90.2189 32.9521 95.7217C33.8382 98.3797 34.4631 100.82 35.2262 103.127C36.7028 107.59 38.2283 111.341 39.2876 114.359C40.7925 118.645 41.7308 121.956 42.6809 124.931C42.9495 125.771 43.5024 126.879 44.3992 129.5C46.68 136.165 48.1148 140.879 48.5321 141.857C49.5438 144.228 53.0666 149.687 55.5024 153.722C56.8227 155.903 57.6806 157.088 58.1394 157.781C58.3355 158.11 58.4567 158.393 58.9492 159.267" stroke="#B51A00" stroke-width="12" stroke-linecap="round" stroke-linejoin="round"/>
<path d="M30.7092 58.9863C30.7092 59.0672 30.6789 59.5639 30.7694 63.145C30.8484 66.2724 31.1632 72.0545 32.264 78.6434C33.3648 85.2324 35.2852 92.4515 36.3857 96.4789C37.6586 101.137 38.1904 102.244 39.0382 103.763C40.5076 106.395 42.3602 109.677 44.9656 115.44C46.7912 119.479 49.4004 125.886 51.6493 130.785C53.8983 135.684 55.6469 138.91 56.6589 140.799C58.9784 145.128 62.4024 148.576 63.7537 150.534C64.6272 151.8 66.1184 153.162 67.1092 154.621C67.4507 155.248 67.8599 155.965 68.3286 156.815C68.5546 157.261 68.7568 157.737 69.3632 158.257" stroke="#B51A00" stroke-width="12" stroke-linecap="round" stroke-linejoin="round"/>
<path d="M218.221 161.29C218.241 161.29 218.261 161.29 218.428 161.285C218.595 161.28 218.909 161.27 219.07 161.002C219.927 159.578 220.195 157.21 222.789 148.916C223.654 146.148 224.13 142.9 224.508 140.374C225.146 136.119 225.112 133.711 225.193 130.603C225.259 128.081 225.436 123.643 225.453 120.527C225.48 115.752 225.184 113.023 224.896 109.07C224.681 106.133 224.112 101.325 223.685 98.0667C223.257 94.8088 222.934 93.2517 221.903 90.023C220.872 86.7942 219.144 81.941 218.188 79.1881C217.061 75.9431 216.854 75.0953 216.17 73.5487C213.436 67.3676 212.945 65.2464 211.743 62.8809C211.251 61.976 210.76 61.2367 210.104 60.6246C209.741 60.3665 209.316 60.2149 208.879 60.0586" stroke="#B51A00" stroke-width="12" stroke-linecap="round" stroke-linejoin="round"/>
<path d="M208.971 55.8301C209.011 55.8301 209.052 55.8301 209.103 56.0222C209.154 56.2143 209.215 56.5985 209.19 56.9531C209.166 57.3078 209.055 57.6212 208.25 60.5228C207.444 63.4243 205.948 68.9044 205.072 71.9701C204.05 75.5413 203.36 76.8301 202.383 79.0465C200.92 82.3685 199.959 85.3573 199.14 87.4484C198.086 90.1383 197.093 93.104 195.825 96.6332C195.058 98.7714 194.346 101.719 193.45 104.575C191.693 110.169 189.916 114.215 188.749 116.666C187.769 118.725 187.277 120.127 186.744 121.124C185.959 122.589 184.427 125.553 182.198 130.206C180.985 132.738 179.504 135.567 177.997 138.113C175.144 142.928 173.107 145.425 171.839 146.776C169.358 149.418 167.045 151.348 165.571 152.629C161.436 156.221 159.923 157.658 157.614 159.389C155.935 160.319 154.934 160.746 154.333 161.22C154.075 161.471 153.913 161.744 153.9 162.331" stroke="#B51A00" stroke-width="12" stroke-linecap="round" stroke-linejoin="round"/>
<path d="M210.839 66.002C210.789 66.5198 210.342 68.1467 209.835 70.029C209.135 72.6285 209.105 75.7973 208.601 77.5958C208.148 79.2105 207.573 80.5108 207.435 81.3002C206.953 84.0649 207.236 88.2159 206.844 89.9606C206.399 91.9412 205.472 95.2745 204.555 98.464C202.844 104.417 201.291 106.471 199.288 110.675C198.023 113.329 196.456 117.134 195.142 119.941C192.996 124.529 190.879 127.735 188.974 130.634C186.211 134.837 183.107 138.676 180.868 141.566C179.298 143.592 178.309 145.235 176.216 148.316C174.196 151.291 172.561 153.07 169.329 155.571C167.365 157.09 166.113 158.53 165.467 158.872C164.669 159.042 163.888 159.083 163.206 159.099C162.857 159.114 162.503 159.144 161.833 159.175" stroke="#B51A00" stroke-width="12" stroke-linecap="round" stroke-linejoin="round"/>
<path d="M210.686 75.6543C210.787 75.8565 210.971 76.3954 211.185 77.762C211.549 80.0836 211.633 85.1166 212.203 91.2318C212.836 98.0109 213.411 101.038 214.678 104.68C215.167 106.086 215.543 109.34 216.038 116.959C216.358 121.891 216.22 129.017 216.149 133.523C216.078 138.029 215.927 139.707 215.717 142.326C215.508 144.945 215.245 148.453 214.973 151.211C214.701 153.969 214.428 155.87 213.872 158.472" stroke="#B51A00" stroke-width="12" stroke-linecap="round" stroke-linejoin="round"/>
<path d="M31.8118 94.8027C31.7107 94.9645 31.5272 95.5736 31.3332 96.532C31.0084 98.1364 31.7493 100.914 32.9956 107.51C33.6502 110.975 34.0667 114.131 34.7056 118.415C35.7489 125.41 37.0683 129.973 37.4445 130.822C38.3665 132.906 39.3502 136.473 40.705 140.947C41.3553 143.095 42.6306 144.89 44.9416 151.335C46.8179 155.362 47.5117 156.667 49.5932 161.774C50.1445 163.039 50.5286 163.747 51.5676 164.874" stroke="#831100" stroke-width="12" stroke-linecap="round" stroke-linejoin="round"/>
<path d="M32.9146 98.1738C32.955 99.3344 33.4009 101.125 35.8491 107.61C36.6589 109.755 37.1597 112.219 38.0836 115.122C39.0076 118.025 40.2306 121.331 41.4014 124.213C42.5722 127.094 43.6537 129.45 44.9083 132.943C46.1629 136.437 47.5577 140.997 48.3622 143.513C49.2796 146.382 50.1826 147.849 51.7897 150.879C53.9224 155.365 55.3029 158.316 55.9066 159.22C56.3587 159.851 57.1067 160.831 58.3367 162.209" stroke="#831100" stroke-width="12" stroke-linecap="round" stroke-linejoin="round"/>
<path d="M209.063 89.748C209.155 90.3345 208.74 93.4563 207.602 98.0153C206.942 100.66 205.857 103.909 204.219 108.412C202.582 112.915 200.358 118.557 198.49 122.889C196.622 127.221 195.176 130.073 193.047 133.705C190.917 137.338 188.148 141.665 186.347 144.34C182.576 149.94 180.001 151.95 178.673 154.285C177.408 155.996 176.169 157.161 175.782 157.752C175.607 158.06 175.475 158.383 175.34 159.084" stroke="#831100" stroke-width="12" stroke-linecap="round" stroke-linejoin="round"/>
<path d="M207.286 88.8592C207.286 88.6974 207.286 87.785 207.377 87.0545C207.523 85.8815 207.979 92.4933 208.148 98.1332C208.268 102.134 208.001 104.538 208.122 106.451C208.286 109.026 208.735 113.473 208.822 118.306C208.905 122.91 208.195 126.812 207.971 128.739C207.694 131.124 206.766 133.504 206.811 135.337C206.831 136.143 206.949 140.901 206.909 147.904C206.563 152.329 205.77 154.486 205.251 156.295C205.173 156.67 205.113 157.014 204.989 157.429" stroke="#831100" stroke-width="12" stroke-linecap="round" stroke-linejoin="round"/>
<path d="M203.764 120.785C203.621 123.709 203.327 126.269 201.964 131.007C200.909 134.678 198.651 140.781 197.466 144.337C196.029 148.652 195.893 150.08 195.796 151.201C195.75 151.735 195.749 152.201 195.815 152.036C196.022 151.063 196.522 147.226 197.159 142.125C197.442 140.027 197.644 138.925 197.852 137.79" stroke="#831100" stroke-width="12" stroke-linecap="round" stroke-linejoin="round"/>
<path d="M198.71 135.768C198.801 135.657 198.892 135.546 198.944 135.908C198.996 136.27 199.006 137.109 198.678 138.502C198.349 139.895 197.682 141.816 196.146 145.035C194.609 148.254 192.224 152.713 189.368 157.797" stroke="#831100" stroke-width="12" stroke-linecap="round" stroke-linejoin="round"/>
<path d="M190.226 150.014C190.347 149.842 190.468 149.67 190.536 149.794C190.604 149.918 190.614 150.343 190.391 151.057C190.169 151.771 189.714 152.762 189.238 153.631C188.761 154.501 188.275 155.218 188.541 156.173" stroke="#831100" stroke-width="12" stroke-linecap="round" stroke-linejoin="round"/>
</svg>
