<svg width="214" height="308" viewBox="0 0 214 308" fill="none" xmlns="http://www.w3.org/2000/svg" xmlns:xlink="http://www.w3.org/1999/xlink">
<use xlink:href="#stroke0_340_4352" transform="translate(124.108 8.12592) scale(0.082096) rotate(4.5443)"/>
<use xlink:href="#stroke0_340_4352" transform="translate(114.216 16.6163) scale(0.104079) rotate(-19.084)"/>
<use xlink:href="#stroke0_340_4352" transform="translate(137.087 19.705) scale(0.0728525) rotate(76.751)"/>
<use xlink:href="#stroke0_340_4352" transform="translate(107.496 36.9601) scale(0.104362) rotate(-48.8781)"/>
<use xlink:href="#stroke0_340_4352" transform="translate(116.759 24.2737) scale(0.104893) rotate(19.8855)"/>
<use xlink:href="#stroke0_340_4352" transform="translate(102.088 49.1262) scale(0.103854) rotate(-48.6668)"/>
<use xlink:href="#stroke0_340_4352" transform="translate(139.793 58.4358) scale(0.112686) rotate(142.325)"/>
<use xlink:href="#stroke0_340_4352" transform="translate(108.334 48.3006) scale(0.0771376) rotate(9.65375)"/>
<use xlink:href="#stroke0_340_4352" transform="translate(129.396 76.8524) scale(0.100493) rotate(168.767)"/>
<use xlink:href="#stroke0_340_4352" transform="translate(92.2208 75.653) scale(0.103796) rotate(-58.6606)"/>
<use xlink:href="#stroke0_340_4352" transform="translate(114.924 61.0909) scale(0.092675) rotate(62.839)"/>
<use xlink:href="#stroke0_340_4352" transform="translate(108.642 64.4988) scale(0.0997119) rotate(49.4326)"/>
<use xlink:href="#stroke0_340_4352" transform="translate(97.6942 102.731) scale(0.0823953) rotate(-112.789)"/>
<use xlink:href="#stroke0_340_4352" transform="translate(87.5592 93.7104) scale(0.0764431) rotate(-49.2199)"/>
<use xlink:href="#stroke0_340_4352" transform="translate(118.998 107.366) scale(0.114087) rotate(156.627)"/>
<use xlink:href="#stroke0_340_4352" transform="translate(110.371 104.432) scale(0.0744507) rotate(134.803)"/>
<use xlink:href="#stroke0_340_4352" transform="translate(93.1528 88.0281) scale(0.110627) rotate(43.0914)"/>
<use xlink:href="#stroke0_340_4352" transform="translate(109.047 118.059) scale(0.107758) rotate(142.554)"/>
<use xlink:href="#stroke0_340_4352" transform="translate(94.3668 136.728) scale(0.101361) rotate(-166.445)"/>
<use xlink:href="#stroke0_340_4352" transform="translate(65.5483 124.179) scale(0.0840112) rotate(-45.0006)"/>
<use xlink:href="#stroke0_340_4352" transform="translate(91.8196 131.423) scale(0.0730789) rotate(144.073)"/>
<use xlink:href="#stroke0_340_4352" transform="translate(61.6884 143.903) scale(0.0913871) rotate(-87.2883)"/>
<use xlink:href="#stroke0_340_4352" transform="translate(52.7157 144.9) scale(0.121247) rotate(-66.5176)"/>
<use xlink:href="#stroke0_340_4352" transform="translate(66.4765 129.571) scale(0.0853243) rotate(-20.7453)"/>
<use xlink:href="#stroke0_340_4352" transform="translate(100.629 135.222) scale(0.0773973) rotate(131.183)"/>
<use xlink:href="#stroke0_340_4352" transform="translate(106.922 126.728) scale(0.0920221) rotate(106.846)"/>
<use xlink:href="#stroke0_340_4352" transform="translate(95.014 116.482) scale(0.0875441) rotate(36.3443)"/>
<use xlink:href="#stroke0_340_4352" transform="translate(102.898 146.554) scale(0.0794603) rotate(-140.289)"/>
<use xlink:href="#stroke0_340_4352" transform="translate(121.369 118.123) scale(0.0970131) rotate(91.6973)"/>
<use xlink:href="#stroke0_340_4352" transform="translate(129.539 114.47) scale(0.110962) rotate(90.4402)"/>
<use xlink:href="#stroke0_340_4352" transform="translate(136.631 137.778) scale(0.101753) rotate(166.9)"/>
<use xlink:href="#stroke0_340_4352" transform="translate(141.82 123.398) scale(0.0822148) rotate(124.393)"/>
<use xlink:href="#stroke0_340_4352" transform="translate(150.475 138.637) scale(0.120417) rotate(171.921)"/>
<use xlink:href="#stroke0_340_4352" transform="translate(126.294 114.718) scale(0.0814603) rotate(-14.0983)"/>
<use xlink:href="#stroke0_340_4352" transform="translate(131.185 133.746) scale(0.0940751) rotate(-87.2958)"/>
<use xlink:href="#stroke0_340_4352" transform="translate(156.549 105.539) scale(0.0897201) rotate(63.3984)"/>
<use xlink:href="#stroke0_340_4352" transform="translate(174.479 130.178) scale(0.106859) rotate(161.859)"/>
<use xlink:href="#stroke0_340_4352" transform="translate(143.22 127.749) scale(0.117526) rotate(-67.6256)"/>
<use xlink:href="#stroke0_340_4352" transform="translate(161.746 105.725) scale(0.0877401) rotate(10.5389)"/>
<use xlink:href="#stroke0_340_4352" transform="translate(161.716 138.336) scale(0.119228) rotate(-97.1929)"/>
<use xlink:href="#stroke0_340_4352" transform="translate(179.212 112.914) scale(0.0794736) rotate(67.9446)"/>
<use xlink:href="#stroke0_340_4352" transform="translate(146.016 128.139) scale(0.121823) rotate(-38.7034)"/>
<use xlink:href="#stroke0_340_4352" transform="translate(177.776 141.602) scale(0.0752706) rotate(154.835)"/>
<use xlink:href="#stroke0_340_4352" transform="translate(144.454 131.354) scale(0.0989595) rotate(-18.2011)"/>
<use xlink:href="#stroke0_340_4352" transform="translate(168.1 131.748) scale(0.0924212) rotate(84.1743)"/>
<use xlink:href="#stroke0_340_4352" transform="translate(156.688 128.968) scale(0.110979) rotate(56.0317)"/>
<use xlink:href="#stroke0_340_4352" transform="translate(152.326 140.356) scale(0.0732343) rotate(63.3126)"/>
<use xlink:href="#stroke0_340_4352" transform="translate(164.584 157.815) scale(0.11432) rotate(134.086)"/>
<use xlink:href="#stroke0_340_4352" transform="translate(134.368 147.089) scale(0.0792379) rotate(27.275)"/>
<use xlink:href="#stroke0_340_4352" transform="translate(124.802 153.128) scale(0.0812225) rotate(3.34072)"/>
<use xlink:href="#stroke0_340_4352" transform="translate(150.476 161.717) scale(0.116155) rotate(112.833)"/>
<use xlink:href="#stroke0_340_4352" transform="translate(109.195 174.024) scale(0.0842557) rotate(-48.8228)"/>
<use xlink:href="#stroke0_340_4352" transform="translate(105.672 173.158) scale(0.0844778) rotate(-32.4013)"/>
<use xlink:href="#stroke0_340_4352" transform="translate(115.496 165.351) scale(0.0825469) rotate(36.7575)"/>
<use xlink:href="#stroke0_340_4352" transform="translate(130.046 178.358) scale(0.0968245) rotate(112.321)"/>
<use xlink:href="#stroke0_340_4352" transform="translate(89.5294 178.942) scale(0.112378) rotate(-17.7288)"/>
<use xlink:href="#stroke0_340_4352" transform="translate(110.622 206.345) scale(0.0769703) rotate(-165.836)"/>
<use xlink:href="#stroke0_340_4352" transform="translate(117.01 212.834) scale(0.121415) rotate(172.482)"/>
<use xlink:href="#stroke0_340_4352" transform="translate(105.672 191.478) scale(0.0839273) rotate(85.6415)"/>
<use xlink:href="#stroke0_340_4352" transform="translate(84.4246 189.002) scale(0.104052) rotate(23.7327)"/>
<use xlink:href="#stroke0_340_4352" transform="translate(77.9202 224.392) scale(0.080975) rotate(-101.371)"/>
<use xlink:href="#stroke0_340_4352" transform="translate(75.0752 203.109) scale(0.0804461) rotate(9.66996)"/>
<use xlink:href="#stroke0_340_4352" transform="translate(63.2206 205.31) scale(0.116611) rotate(-3.43331)"/>
<use xlink:href="#stroke0_340_4352" transform="translate(69.9453 205.939) scale(0.108113) rotate(30.5196)"/>
<use xlink:href="#stroke0_340_4352" transform="translate(56.5496 228.996) scale(0.073597) rotate(-42.0789)"/>
<use xlink:href="#stroke0_340_4352" transform="translate(79.3435 226.597) scale(0.0746278) rotate(102.27)"/>
<use xlink:href="#stroke0_340_4352" transform="translate(50.3555 257.13) scale(0.119715) rotate(-103.044)"/>
<use xlink:href="#stroke0_340_4352" transform="translate(42.3342 257.654) scale(0.110655) rotate(-88.2245)"/>
<use xlink:href="#stroke0_340_4352" transform="translate(56.2371 265.243) scale(0.0885564) rotate(-145.446)"/>
<use xlink:href="#stroke0_340_4352" transform="translate(36.7548 251.27) scale(0.0724902) rotate(-41.7966)"/>
<use xlink:href="#stroke0_340_4352" transform="translate(24.5053 264.833) scale(0.121865) rotate(-66.45)"/>
<use xlink:href="#stroke0_340_4352" transform="translate(20.3393 266.822) scale(0.112632) rotate(-57.8481)"/>
<use xlink:href="#stroke0_340_4352" transform="translate(40.9621 286.898) scale(0.102147) rotate(-149.921)"/>
<use xlink:href="#stroke0_340_4352" transform="translate(16.6962 282.709) scale(0.0984142) rotate(-78.6826)"/>
<path d="M165.331 152.093C165.44 152.001 165.549 151.909 165.659 151.817C179.303 139.939 186.987 125.929 197.688 109.735C198.541 108.435 199.4 107.13 200.193 105.855C200.574 105.241 200.964 104.592 201.26 104.044C201.554 103.521 201.793 102.921 201.73 103.038C201.729 103.127 201.488 103.462 201.72 104.752C201.845 105.384 202.219 106.187 202.686 106.734C203.158 107.299 203.616 107.594 203.89 107.748C204.467 108.048 204.502 107.989 204.411 107.985C204.306 107.965 204.061 107.931 203.759 107.906C202.522 107.803 200.706 107.803 198.929 107.789C198.75 107.788 198.569 107.787 198.386 107.786C177.127 108.98 168.326 110.794 150.014 111.93C144.572 112.197 138.593 112.921 130.547 114.429C127.444 114.967 124.085 115.321 120.831 115.319C115.171 115.346 109.51 115.32 104.088 115.299C103.723 115.293 103.273 115.295 102.506 115.006C101.766 114.751 100.745 113.918 100.334 113.028C99.5822 111.278 99.9494 110.709 99.9632 110.302C100.127 109.553 100.247 109.381 100.346 109.142C100.534 108.743 100.665 108.529 100.788 108.322C101.035 107.915 101.243 107.608 101.455 107.298C101.874 106.688 102.278 106.134 102.678 105.589C103.483 104.497 104.276 103.453 105.074 102.409C113.337 91.6971 120.691 81.7879 126.306 73.6076C129.717 68.6451 132.513 64.3422 134.517 60.9919C142.352 47.9149 145.062 47.5897 156.681 29.8601C156.841 29.6204 157.001 29.3793 157.162 29.1368C163.567 19.4126 169.407 11.9714 174.541 5.06149C174.865 4.60616 175.179 4.13819 175.338 3.8501C175.418 3.72111 175.437 3.60086 175.387 3.84882C175.37 3.97838 175.328 4.24233 175.436 4.67633C175.535 5.10035 175.854 5.57071 176.107 5.77947C176.627 6.192 176.679 6.08442 176.605 6.08196C176.534 6.05709 176.332 6.01868 176.125 5.99395C175.687 5.94047 175.142 5.91465 174.579 5.90254C172.304 5.86557 169.829 5.96799 167.297 6.04356C164.135 6.14428 160.861 6.24753 157.392 6.3546C149.712 6.59556 135.68 7.31617 120.273 8.39573C117.59 8.58922 114.889 8.78139 112.192 9.05754C109.646 9.37539 106.358 9.56788 105.807 10.9947C101.653 20.8596 100.465 32.9507 97.3341 41.725C95.678 46.9653 93.9114 51.3651 92.6113 54.7825C89.5967 62.6161 85.7676 70.5447 81.9548 78.1349C75.9339 90.0871 69.6625 101.075 65.3651 108.98C63.1759 113.004 61.3621 116.133 59.9181 118.495C59.3106 119.487 58.9164 119.901 58.789 119.825C58.789 119.825 58.7889 119.825 58.7888 119.825C58.6233 119.743 58.8598 118.921 59.5424 117.579C62.8494 111.075 67.5379 101.221 72.6166 89.3681C74.8614 84.1238 76.6778 80.0159 78.3278 76.4076C83.0364 65.6684 87.4508 59.5915 94.0755 40.6573C94.5941 38.9942 95.1057 37.2294 95.604 35.3492C98.3305 25.9662 98.3804 17.8166 102.227 8.95374C102.654 8.07302 103.732 6.9175 104.724 6.42708C105.713 5.89542 106.543 5.6705 107.322 5.46684C108.881 5.08369 110.255 4.88593 111.657 4.68606C114.433 4.30508 117.135 4.01943 119.889 3.73017C133.511 2.33267 147.863 1.12211 166.921 0.256784C166.922 0.256733 166.923 0.256682 166.924 0.256631C169.663 0.145678 172.216 -0.00959182 174.872 0.000616312C175.545 0.00987482 176.219 0.0253747 177.029 0.122707C177.437 0.17623 177.871 0.239782 178.447 0.420728C178.997 0.62835 179.921 0.869296 180.784 2.15608C181.619 3.53221 181.327 4.81083 181.169 5.3858C180.982 6.02072 180.768 6.42375 180.587 6.76996C180.206 7.46904 179.863 7.97259 179.527 8.47453C172.627 18.0526 167.647 25.1825 162.227 33.714C155.172 44.6753 147.366 57.5315 132.507 77.8636C132.057 78.4747 131.61 79.0756 131.147 79.6977C122.804 90.8786 116.267 99.4098 110.848 106.745C110.036 107.849 109.257 108.925 108.53 109.967C108.167 110.489 107.815 111.005 107.505 111.488C107.352 111.726 107.206 111.965 107.113 112.136C107.071 112.213 107.035 112.298 107.076 112.22C107.095 112.157 107.15 112.141 107.253 111.613C107.245 111.363 107.541 110.812 106.819 109.451C106.446 108.79 105.642 108.232 105.138 108.076C104.584 107.886 104.285 107.89 104.034 107.885C110.011 107.726 115.377 107.504 120.831 107.229C128.599 106.912 137.513 103.569 149.335 102.543C156.312 101.78 164.47 100.348 174.435 98.7049C181.898 97.543 189.406 96.0968 198.254 95.8502C200.01 95.8394 201.747 95.8061 203.806 95.907C204.873 95.9824 205.945 96.0002 207.743 96.4896C208.644 96.7881 209.937 97.1131 211.542 98.7201C213.237 100.365 213.727 103.219 213.526 104.538C213.159 107.323 212.446 108.188 211.922 109.288C211.367 110.301 210.837 111.132 210.3 111.95C209.244 113.545 208.185 115.016 207.139 116.463C196.315 131.38 185.029 146.543 171.574 158.431C154.721 173.023 140.232 186.726 129.922 195.741C126.983 198.372 123.909 201.104 120.708 203.929C97.9501 224.088 71.1488 251.708 41.1718 278.963C36.4648 283.205 31.5704 287.591 26.4148 291.927C20.6822 296.63 15.6403 301.373 8.45225 306.398C8.15527 306.576 7.88591 306.739 7.40364 306.971C7.167 307.079 6.98087 307.174 6.47426 307.337C6.24105 307.409 5.97416 307.479 5.64068 307.531C5.38445 307.572 4.52658 307.681 3.59207 307.428C3.09853 307.293 2.61045 307.105 2.01769 306.689C1.42201 306.268 0.913191 305.672 0.597507 305.084C0.277781 304.505 0.121556 303.9 0.0615211 303.504C0.0139184 303.2 -0.000537395 302.933 2.76566e-05 302.696C0.00294209 302.223 0.0605111 301.866 0.123471 301.564C0.177142 301.316 0.216755 301.178 0.267251 301.011C0.484659 300.331 0.630416 300.048 0.799609 299.686C1.42117 298.434 1.94568 297.628 2.51717 296.72C3.61865 295 4.73858 293.377 5.84074 291.788C8.0692 288.586 10.3311 285.415 12.6042 282.216C29.6028 258.316 47.2495 233.533 64.3142 210.662C68.7793 204.678 73.523 198.315 78.4081 191.758C86.2978 181.321 94.0937 170.14 103.061 159.466C108.922 152.531 114.981 145.743 120.284 139.096C120.677 138.59 121.063 138.079 121.382 137.618C121.538 137.393 121.68 137.169 121.753 137.041C121.788 136.982 121.802 136.936 121.763 137.058C121.747 137.122 121.705 137.236 121.683 137.53C121.676 137.815 121.638 138.459 122.209 139.267C122.782 140.04 123.536 140.252 123.808 140.305C124.143 140.367 124.25 140.347 124.323 140.345C124.456 140.333 124.398 140.33 124.327 140.345C124.172 140.374 123.898 140.448 123.619 140.531C123.054 140.701 122.426 140.911 121.786 141.119C113.982 143.685 106.291 145.286 99.1216 146.599C86.0186 148.908 74.5403 150.361 65.8223 151.682C63.4502 152.035 61.2104 152.38 59.1069 152.73C54.7878 153.449 50.9658 154.174 47.4289 154.873C45.6732 155.218 43.9638 155.566 42.2976 155.865C41.4556 156.014 40.6448 156.152 39.759 156.244C39.3209 156.287 38.8789 156.322 38.3597 156.3C37.8582 156.228 37.142 156.36 36.2679 155.396C36.0593 155.176 35.896 154.579 35.9412 154.327C35.9642 154.038 36.0202 153.9 36.0634 153.774C36.1522 153.539 36.234 153.393 36.3106 153.254C36.4664 152.978 36.6092 152.76 36.7577 152.536C37.049 152.1 37.344 151.686 37.6362 151.281C38.2174 150.477 38.7979 149.697 39.3785 148.919C40.5508 147.351 41.681 145.854 42.8485 144.301C45.1759 141.207 47.5065 138.092 50.113 134.574C53.5715 129.907 57.4464 124.625 62.2132 118.112C73.0316 103.334 88.4427 83.3516 102.276 67.0998C109.26 58.9347 108.249 61.2641 101.877 69.956C92.5683 82.7031 84.4956 92.8354 80.2278 99.8039C71.7217 113.728 68.0528 119.632 54.9883 135.441C54.4961 136.038 54.0211 136.619 53.5736 137.171C50.405 141.085 47.8045 144.558 45.5688 147.729C44.441 149.329 43.4237 150.826 42.4778 152.275C42.0048 153 41.5604 153.697 41.1513 154.374C40.9558 154.699 40.7551 155.041 40.6183 155.308C40.5518 155.437 40.4929 155.569 40.5101 155.566C40.519 155.555 40.5567 155.529 40.651 155.235C40.6778 155.144 40.7063 155.031 40.7292 154.89C40.7543 154.737 40.7766 154.506 40.7636 154.25C40.7713 153.669 40.378 152.744 40.0943 152.428C39.58 151.76 39.0317 151.557 38.8118 151.473C38.5729 151.39 38.5206 151.389 38.5213 151.374C38.5324 151.355 38.7514 151.33 38.9819 151.284C39.4636 151.192 40.0665 151.048 40.6713 150.893C41.8948 150.579 43.1651 150.223 44.4196 149.887C46.9503 149.206 49.5038 148.578 52.2011 148.082C54.4004 147.677 56.2061 147.406 58.0529 147.153C64.4644 146.207 71.6247 145.909 97.982 140.885C104.212 139.569 111.493 137.948 119.676 134.981C120.77 134.621 121.407 134.221 123.494 133.799C123.717 133.769 123.979 133.732 124.422 133.744C124.819 133.783 125.522 133.736 126.64 134.465C127.201 134.845 127.734 135.491 128 136.15C128.252 136.747 128.306 137.324 128.307 137.67C128.296 138.45 128.168 138.785 128.083 139.086C127.704 140.171 127.441 140.496 127.175 140.964C126.649 141.813 126.173 142.474 125.686 143.148C119.743 151.077 114.056 157.816 108.941 164.279C99.5964 176.218 92.2468 187.504 85.5321 196.886C74.4999 212.589 66.2037 224.315 59.4783 233.857C50.8848 246.052 35.6619 266.474 20.1752 287.661C18.0742 290.537 15.9438 293.454 13.896 296.323C12.8628 297.773 11.8664 299.186 10.9131 300.602C10.4164 301.342 9.97223 302.02 9.57007 302.681C9.46692 302.851 9.37876 303 9.29593 303.145C9.20039 303.311 9.12309 303.453 9.06615 303.562C9.00312 303.683 8.95448 303.791 8.95384 303.793C8.95187 303.797 8.96862 303.76 9.00094 303.648C9.01524 303.564 9.13263 303.302 9.11928 302.574C9.11599 302.482 9.10935 302.384 9.09756 302.276C9.08316 302.158 9.07801 302.095 9.03193 301.869C8.94982 301.482 8.78971 301.004 8.48693 300.514C8.18879 300.026 7.73704 299.545 7.23464 299.208C6.75673 298.888 6.3418 298.726 5.94425 298.616C5.1709 298.408 4.56604 298.475 4.33196 298.506C4.10651 298.537 3.94926 298.577 3.8329 298.61C3.59389 298.682 3.55263 298.71 3.52588 298.72C3.50176 298.731 3.51436 298.726 3.55045 298.707C3.60769 298.676 3.71447 298.614 3.85722 298.524C3.97935 298.446 4.11059 298.36 4.26689 298.253C4.85824 297.849 5.51103 297.362 6.18066 296.846C7.50682 295.822 8.80265 294.767 10.1173 293.682C12.7312 291.522 15.3149 289.321 17.8065 287.181C18.6961 286.418 19.5262 285.704 20.4816 284.885C45.8812 262.922 88.4413 219.521 114.301 196.584C117.685 193.565 120.698 190.834 123.256 188.469C145.621 167.664 146.219 168.133 165.331 152.093Z" fill="#080810"/>
<defs>
<g id="stroke0_340_4352" data-figma-scatter-ref="stroke0_340_4352_ref" data-figma-scatter="f0.25_w0_aj180_sj0.3_r0_s3025222401908053086_sw26">
<path d="M161.622 271.62C162.801 270.44 165.001 270.908 165.598 272.466C166.28 274.243 164.308 276.953 162.333 276.953C160.932 276.952 160.386 272.855 161.622 271.62ZM125.347 271.526C126.214 268.071 129.955 267.913 129.955 271.331C129.955 274.319 127.339 276.737 125.786 275.184C125.188 274.586 124.991 272.944 125.347 271.526ZM90.9548 269.953C92.4998 269.953 93.222 272.086 92.068 273.24C90.688 274.62 88.3711 272.708 89.4011 271.04C89.771 270.442 90.4698 269.953 90.9548 269.953ZM141.512 256.176C145.165 250.962 153.033 256.131 149.547 261.453C147.571 264.469 144.663 264.661 141.955 261.953C139.547 259.545 139.508 259.036 141.512 256.176ZM73.2048 251.23C75.5376 250.164 78.9543 251.195 78.9548 252.965C78.9548 254.503 74.0936 257.221 72.4626 256.595C70.1919 255.723 70.6521 252.397 73.2048 251.23ZM179.586 250.7C181.676 246.659 184.455 247.382 184.455 251.967C184.455 254.88 184.063 255.508 182.068 255.79C178.812 256.251 177.794 254.165 179.586 250.7ZM110.955 251.953C112.5 251.953 113.222 254.086 112.068 255.24C110.688 256.62 108.371 254.708 109.401 253.04C109.771 252.442 110.47 251.953 110.955 251.953ZM125.484 235.308C127.968 233.492 129.882 233.6 130.649 235.599C131.313 237.329 128.652 239.953 126.232 239.953C123.969 239.953 123.459 236.79 125.484 235.308ZM56.4548 232.953C58.3068 232.953 60.1711 235.593 59.7741 237.655C59.5331 238.905 58.5208 239.453 56.4548 239.453C53.15 239.453 51.913 236.914 53.9948 234.405C54.6577 233.606 55.7648 232.953 56.4548 232.953ZM160.318 235.45C161.227 233.081 165.455 233.896 165.455 236.439C165.455 238.645 162.346 239.744 160.716 238.114C160.151 237.549 159.972 236.351 160.318 235.45ZM196.198 234.11C197.852 232.456 202.454 233.054 202.455 234.923C202.455 236.69 198.218 238.991 196.312 238.261C194.617 237.61 194.566 235.742 196.198 234.11ZM90.9548 234.953C91.5047 234.953 91.9547 235.403 91.9548 235.953C91.9548 236.503 91.5048 236.953 90.9548 236.953C90.4049 236.953 89.9548 236.503 89.9548 235.953C89.9548 235.403 90.4049 234.953 90.9548 234.953ZM71.5514 214.259C74.027 212.449 74.6796 212.586 77.6345 215.541C81.1173 219.024 78.0602 223.076 73.2272 221.384C69.8362 220.196 68.8974 216.2 71.5514 214.259ZM34.9665 215.44C37.4415 212.458 42.9548 214.246 42.9548 218.031C42.9548 220.921 40.2601 222.413 37.3972 221.109C34.3162 219.705 33.3325 217.409 34.9665 215.44ZM179.159 214.523C181.95 212.567 185.454 214.484 185.455 217.966C185.455 221.094 183.104 222.358 179.705 221.057C176.335 219.766 176.077 216.681 179.159 214.523ZM214.155 215.153C216.556 212.752 221.955 214.69 221.955 217.953C221.955 220.669 218.715 222.192 215.52 220.978C212.789 219.94 212.14 217.168 214.155 215.153ZM107.319 217.446C108.12 215.36 111.324 215.917 111.767 218.219C112.165 220.284 109.278 221.677 107.755 220.153C107.169 219.567 106.973 218.349 107.319 217.446ZM143.431 216.992C144.483 215.289 148.382 216.176 148.769 218.206C148.952 219.17 148.36 220.245 147.451 220.594C145.466 221.355 142.421 218.627 143.431 216.992ZM123.155 197.153C125.911 194.397 132.955 197.004 132.955 200.779C132.955 203.022 129.938 205.953 127.629 205.953C123.218 205.953 120.231 200.077 123.155 197.153ZM231.155 197.153C233.347 194.961 237.885 195.705 239.141 198.463C240.423 201.275 237.199 205.953 233.981 205.953C230.36 205.953 228.414 199.894 231.155 197.153ZM53.0827 197.007C60.5555 193.946 64.7518 201.175 57.5075 204.629C53.4156 206.581 52.3072 205.961 51.3513 201.185C50.8033 198.446 51.0548 197.838 53.0827 197.007ZM196.205 196.962C197.443 196.453 199.58 196.13 200.955 196.244C205.799 196.649 204.127 203.891 198.873 205.265C194.383 206.438 191.907 198.732 196.205 196.962ZM160.564 197.487C163.37 194.681 166.955 196.37 166.955 200.498C166.955 203.092 163.864 206.133 162.245 205.132C159.905 203.686 158.907 199.144 160.564 197.487ZM88.5593 199.108C90.4402 196.423 92.1249 196.379 94.4548 198.953C96.2018 200.883 96.2018 201.023 94.4548 202.953C90.7188 207.081 85.4033 203.614 88.5593 199.108ZM18.2048 196.615C21.6617 195.22 24.3307 197.341 23.7819 201.046C23.2719 204.483 20.1722 205.903 18.3962 203.513C16.6233 201.125 16.517 197.296 18.2048 196.615ZM177.574 178.242C182.074 174.952 188.12 178.726 186.369 183.733C185.322 186.727 180.908 187.989 178.493 185.984C176.118 184.014 175.604 179.682 177.574 178.242ZM213.622 178.62C214.727 177.515 219.471 177.87 220.755 179.153C222.641 181.039 222.168 184.768 219.888 185.989C215.974 188.084 210.544 181.697 213.622 178.62ZM72.0075 181.391C73.1314 180.037 73.4588 180.028 74.7555 181.325C76.4955 183.065 75.6838 185.953 73.4548 185.953C71.31 185.953 70.4556 183.26 72.0075 181.391ZM106.155 179.153C107.61 177.698 109.02 177.648 112.39 178.929C116.93 180.655 115.094 185.953 109.955 185.953C105.588 185.953 103.354 181.954 106.155 179.153ZM143.339 180.395C144.582 177.156 149.462 180.083 148.774 183.655C148.301 186.112 143.609 186.104 143.134 183.645C142.943 182.651 143.035 181.188 143.339 180.395ZM35.3386 180.395C36.0985 178.414 40.8669 178.56 41.6462 180.589C42.5552 182.958 40.613 185.453 37.86 185.453C35.4112 185.453 34.2738 183.17 35.3386 180.395ZM249.136 180.234C249.767 179.474 251.447 178.987 252.869 179.152C256.507 179.575 256.625 184.287 253.011 184.798C249.914 185.235 247.422 182.3 249.136 180.234ZM1.62176 179.62C2.75172 178.489 3.84231 178.873 4.85028 180.757C6.07525 183.045 4.65825 185.437 2.55633 184.63C0.953362 184.015 0.367857 180.874 1.62176 179.62ZM195.155 161.153C199.2 157.108 205.563 162.129 203.137 167.453C200.971 172.208 193.955 170.297 193.955 164.953C193.955 163.523 194.495 161.813 195.155 161.153ZM122.99 161.888C125.209 157.743 133.337 161.845 132.76 166.819C132.498 169.085 131.921 169.497 128.635 169.768C122.714 170.255 120.308 166.899 122.99 161.888ZM159.2 162.108C160.917 160.391 166.018 161.077 167.349 163.203C168.87 165.631 167.004 168.364 163.544 168.775C158.898 169.328 156.169 165.139 159.2 162.108ZM17.8679 163.847C20.8558 161.398 23.3531 161.759 23.7731 164.704C24.2421 167.99 19.5737 170.013 17.1677 167.566C15.5488 165.919 15.5872 165.716 17.8679 163.847ZM53.3181 164.45C54.2271 162.081 58.4548 162.896 58.4548 165.439C58.4546 167.645 55.3465 168.744 53.7165 167.114C53.1515 166.549 52.972 165.351 53.3181 164.45ZM90.4011 165.04C91.191 163.762 92.6307 163.62 93.3298 164.751C94.2917 166.307 92.1385 168.536 90.8845 167.282C90.2495 166.647 90.0321 165.638 90.4011 165.04ZM233.455 164.953C233.939 164.17 234.514 164.112 235.181 164.779C235.731 165.329 235.854 166.307 235.455 166.953C234.971 167.736 234.396 167.794 233.729 167.127C233.179 166.577 233.056 165.599 233.455 164.953ZM72.155 143.153C74.201 141.107 75.9215 141.814 77.6335 145.405C79.4463 149.206 78.3548 151.953 75.0329 151.953C71.365 151.953 69.3911 145.917 72.155 143.153ZM140.99 143.888C143.209 139.743 151.337 143.845 150.76 148.819C150.498 151.085 149.921 151.497 146.635 151.768C140.714 152.255 138.308 148.899 140.99 143.888ZM214.371 144.31C215.315 141.85 219.296 143.115 220.383 146.22C221.148 148.402 220.991 149.346 219.635 150.702C216.554 153.783 212.585 148.965 214.371 144.31ZM104.622 142.62C105.751 141.49 112.484 141.883 113.755 143.153C116.971 146.369 114.013 150.953 108.721 150.953C104.846 150.953 102.025 145.217 104.622 142.62ZM248.622 142.62C251.659 139.582 258.199 144.269 256.629 148.359C255.819 150.469 251.281 151.469 249.442 149.942C247.938 148.694 247.395 143.847 248.622 142.62ZM35.155 143.153C36.8479 141.46 39.9777 141.664 42.1257 143.608C44.6817 145.921 44.4038 148.791 41.4958 150.116C36.8629 152.227 31.7242 146.584 35.155 143.153ZM178.001 143.398C180.63 140.23 185.955 142.327 185.955 146.531C185.955 149.786 183.572 151.325 180.239 150.22C177.156 149.198 176.032 145.771 178.001 143.398ZM1.18426 144.124C2.95012 142.358 5.40436 143.125 5.75262 145.551C6.10859 148.031 3.58934 150.41 1.46844 149.597C-0.35556 148.897 -0.51474 145.823 1.18426 144.124ZM125.522 126.879C128.986 123.051 132.286 125.737 130.077 130.585C129.266 132.364 128.29 132.997 126.706 132.771C123.867 132.366 123.266 129.372 125.522 126.879ZM90.9548 125.953C92.4118 125.953 94.1733 128.943 93.5983 130.44C93.2793 131.272 92.0897 131.953 90.9548 131.953C88.4109 131.953 87.3045 129.442 88.9665 127.44C89.6443 126.623 90.5397 125.953 90.9548 125.953ZM231.291 128.52C232.202 126.145 235.955 126.518 235.955 128.984C235.955 131.343 233.31 132.708 231.755 131.153C231.169 130.567 230.96 129.382 231.291 128.52ZM53.3386 125.395C54.5816 122.156 59.4621 125.083 58.7741 128.655C58.3011 131.112 53.6088 131.104 53.1345 128.645C52.9435 127.651 53.0347 126.187 53.3386 125.395ZM196.339 125.395C197.582 122.156 202.462 125.083 201.774 128.655C201.301 131.112 196.609 131.104 196.134 128.645C195.943 127.651 196.035 126.187 196.339 125.395ZM18.7048 123.033C21.1938 121.583 21.6583 121.691 23.3513 124.108C26.093 128.023 21.5169 132.115 18.155 128.753C16.4142 127.012 16.684 124.21 18.7048 123.033ZM161.551 123.259C163.914 121.531 164.32 121.594 166.508 124.013C168.958 126.719 167.37 129.453 163.346 129.453C159.801 129.453 158.626 125.398 161.551 123.259ZM176.792 108.412C178.282 105.142 183.179 105.008 185.398 108.176C187.404 111.039 187.359 112.233 185.143 114.97C181.634 119.302 174.413 113.633 176.792 108.412ZM35.1979 107.11C38.6209 103.687 45.9262 109.585 43.3542 113.694C42.0142 115.835 37.3673 116.54 35.3952 114.903C33.6272 113.436 33.51 108.798 35.1979 107.11ZM106.155 108.153C109.274 105.034 116.569 109.157 114.312 112.763C113.008 114.846 108.341 115.518 106.395 113.903C104.642 112.449 104.531 109.777 106.155 108.153ZM248.885 109.537C251.5 106.388 256.541 108.671 255.774 112.655C255.536 113.889 254.525 114.453 252.55 114.453C248.965 114.453 246.996 111.813 248.885 109.537ZM72.7048 108.014C75.4777 106.366 78.4171 107.183 78.7741 109.701C79.1151 112.099 74.9529 114.55 72.2829 113.525C70.3741 112.793 70.6471 109.236 72.7048 108.014ZM215.577 108.24C217.848 106.579 219.901 106.913 221.325 109.175C222.736 111.415 221.245 112.962 217.404 113.243C213.892 113.5 212.731 110.321 215.577 108.24ZM1.36395 110.329C1.86393 109.025 2.29819 108.896 3.18817 109.786C4.07716 110.675 4.07356 111.235 3.17156 112.137C1.6438 113.664 0.517033 112.537 1.36395 110.329ZM142.401 110.04C143.42 108.392 146.955 108.737 146.955 110.484C146.955 111.327 146.25 112.286 145.388 112.617C143.507 113.339 141.456 111.569 142.401 110.04ZM198.332 89.7538C199.769 88.8208 202.955 91.7971 202.955 94.0731C202.955 95.0681 202.085 96.3478 201.021 96.9179C195.912 99.6518 193.399 92.9558 198.332 89.7538ZM53.9899 90.8876C55.8619 87.3906 59.9547 89.2641 59.9548 93.6181C59.9548 96.521 56.4363 98.597 54.3913 96.9003C52.6944 95.4924 52.5651 93.5514 53.9899 90.8876ZM124.949 91.4599C126.748 89.2921 129.384 89.9791 129.775 92.7177C130.185 95.5927 127.358 96.7845 125.213 94.6405C123.886 93.3125 123.842 92.7938 124.949 91.4599ZM89.9548 92.453C89.9548 91.5361 90.439 90.9484 91.03 91.1454C91.6209 91.3424 92.1051 91.9311 92.1052 92.453C92.1052 92.975 91.621 93.5646 91.03 93.7616C90.439 93.9584 89.9548 93.3699 89.9548 92.453ZM106.012 73.8466C107.322 71.3997 110.172 71.4303 112.421 73.9159C114.452 76.1589 113.962 78.3446 111.082 79.8856C108.331 81.3569 104.461 76.7474 106.012 73.8466ZM71.7048 71.0331C74.3617 69.4851 75.3919 69.7252 77.9968 72.4979C80.7467 75.4249 79.87 78.213 76.0202 78.7831C71.4303 79.4631 67.953 73.2192 71.7048 71.0331ZM178.705 71.0331C181.256 69.5472 182.435 69.7213 184.38 71.871C188.234 76.1299 184.175 80.7468 179.008 77.9813C176.476 76.6264 176.293 72.4382 178.705 71.0331ZM214.155 72.1532C216.97 69.3383 222.522 71.8079 221.788 75.5477C221.237 78.3477 218.469 79.5078 215.533 78.1698C212.799 76.9248 212.163 74.1451 214.155 72.1532ZM34.9665 72.4403C36.6944 70.3586 40.3146 70.5883 42.4206 72.9159C45.6806 76.5179 42.054 80.2297 37.363 78.0927C34.3142 76.7037 33.3375 74.4023 34.9665 72.4403ZM143.955 74.452C145.696 72.3551 148.455 72.9691 148.455 75.453C148.455 77.662 145.336 78.7338 143.691 77.0888C142.956 76.3538 143.035 75.5609 143.955 74.452ZM91.4548 52.953C93.1596 52.953 95.0944 53.4933 95.7546 54.1532C98.5466 56.9452 95.7296 62.953 91.6286 62.953C87.2179 62.9526 84.2312 57.0771 87.155 54.1532C87.8149 53.4932 89.7498 52.9531 91.4548 52.953ZM123.2 54.1083C125.267 52.0413 129.919 53.1572 131.727 56.1522C134.87 61.3581 127.017 65.7348 123.512 60.7304C121.632 58.0474 121.526 55.7823 123.2 54.1083ZM234.455 52.953C238.789 52.953 240.43 57.6659 237.3 61.1239C235.255 63.3829 234.127 63.4187 231.784 61.2977C229.695 59.4067 229.388 55.9202 231.155 54.1532C231.815 53.4933 233.3 52.9531 234.455 52.953ZM53.2048 53.9618C59.9138 51.1998 63.8957 56.4948 58.3747 60.8368C54.8289 63.6256 53.1163 63.5071 51.9304 60.3886C50.4444 56.4786 50.7419 54.9758 53.2048 53.9618ZM160.564 54.4872C163.37 51.6813 166.955 53.3701 166.955 57.4979C166.955 60.0919 163.864 63.1327 162.245 62.1317C159.905 60.6855 158.907 56.1441 160.564 54.4872ZM195.587 54.2323C198.69 51.9604 203.399 52.9831 203.752 56.0048C204.176 59.6408 200.641 62.5122 196.284 62.0712C194.057 61.8459 193.515 55.7487 195.587 54.2323ZM17.3473 55.3749C18.0766 53.4732 21.3902 53.5672 23.0251 55.537C24.5491 57.374 23.2487 60.2546 20.6647 60.7636C18.8228 61.126 16.5544 57.4408 17.3473 55.3749ZM106.155 36.1532C107.628 34.6802 109.479 34.6282 112.021 35.9882C115.627 37.9182 113.772 42.953 109.455 42.953C105.545 42.9528 103.522 38.7862 106.155 36.1532ZM177.155 35.1532C178.855 33.4532 183.471 33.6656 185.005 35.5136C188.37 39.5695 181.517 45.325 177.395 41.9032C175.645 40.4512 175.515 36.7932 177.155 35.1532ZM35.9948 36.4052C37.4888 34.6052 39.0418 34.5655 41.3727 36.2694C43.4967 37.8224 43.1708 40.7877 40.7048 42.3407C37.2398 44.5227 33.338 39.6062 35.9948 36.4052ZM71.155 36.1532C73.9848 33.3233 79.3609 36.035 78.8005 40.0087C78.5425 41.8396 77.7501 42.5343 75.6452 42.7753C70.9402 43.3153 68.1341 39.1742 71.155 36.1532ZM144.168 37.1415C145.639 35.6695 146.962 36.0172 148.367 38.244C149.929 40.72 146.723 43.835 144.505 41.995C142.643 40.4492 142.527 38.7813 144.168 37.1415ZM214.033 37.3593C215.127 36.0413 215.465 36.0355 216.737 37.3075C218.339 38.9095 217.62 40.953 215.455 40.953C213.373 40.9529 212.623 39.0582 214.033 37.3593ZM195.979 22.9296C199.6 19.3086 204.362 21.486 203.791 26.5018C203.483 29.2058 203.13 29.453 199.57 29.453C194.623 29.453 192.788 26.1205 195.979 22.9296ZM122.99 18.8876C125.233 14.6976 132.366 18.4534 131.789 23.5214C131.523 25.8602 130.909 26.5165 128.754 26.7655C123.152 27.4112 120.424 23.6833 122.99 18.8876ZM54.11 19.5575C58.552 16.4465 62.0997 21.7018 58.0378 25.3778C56.5088 26.7618 55.6998 26.8869 54.0378 25.9979C51.3411 24.5539 51.3753 21.4734 54.11 19.5575ZM163.455 17.953C166.798 17.953 168.127 23.2547 165.179 24.8329C161.481 26.8119 158.169 22.1392 161.155 19.1532C161.815 18.4933 162.85 17.9532 163.455 17.953ZM91.9548 21.953C92.5047 21.953 92.9547 22.4031 92.9548 22.953C92.9548 23.503 92.5048 23.953 91.9548 23.953C91.4049 23.9529 90.9548 23.5029 90.9548 22.953C90.9548 22.4032 91.4049 21.9532 91.9548 21.953ZM107.061 1.75477C108.525 -0.979662 111.39 -0.0898075 111.772 3.21669C112.171 6.67755 109.3 8.145 107.349 5.47743C106.397 4.17543 106.317 3.14477 107.061 1.75477ZM142.264 1.58876C143.043 -0.437771 147.288 -0.554549 148.915 1.40517C150.968 3.87805 149.761 6.45278 146.55 6.45302C143.362 6.45302 141.297 4.10976 142.264 1.58876Z" fill="#00F5FF"/>
</g>
<path id="stroke0_340_4352_ref" d="M133.718 20.2939C133.663 20.5177 133.608 20.7414 132.292 24.0431C130.975 27.3448 128.4 33.7176 125.568 40.1016C122.737 46.4856 119.729 52.6876 115.512 62.3035C111.295 71.9195 105.961 84.7614 101.922 93.3296C97.8821 101.898 95.2981 105.803 91.6178 110.973C87.9375 116.144 83.2393 122.461 79.9426 126.654C76.646 130.848 74.8933 132.726 73.4579 134.444C72.0225 136.162 70.9574 137.662 76.9786 137.277C82.9997 136.892 96.2696 132.884 111.126 129.31C125.971 125.739 134.716 123.629 143.488 122.466C152.261 121.302 157.216 120.085 160.115 120.085C165.046 120.085 175.516 119.211 176.147 120.085C178.141 122.848 154.686 147.015 152.905 148.503C150.89 150.186 107.86 188.826 101.922 195.373C99.9087 197.592 31.3534 273.027 30.9634 275.125"/>
</defs>
</svg>
