<svg width="197" height="192" viewBox="0 0 197 192" fill="none" xmlns="http://www.w3.org/2000/svg">
<path d="M81.78 99.5007C81.2415 99.5007 80.4705 99.4858 79.5058 99.2986C78.4903 99.1016 74.8932 94.6157 69.4815 88.1502C66.2822 84.3279 64.5947 81.3617 63.0266 78.1308C62.2258 76.4807 61.638 74.7054 60.843 70.9707C60.048 67.2359 59.1206 61.5688 58.5756 57.7073C57.767 51.9786 57.7722 48.1666 57.9968 44.3928C58.2283 40.5026 59.6994 36.6729 61.1306 32.9809C62.513 29.4149 64.6359 26.2178 66.9557 23.1887C69.2955 20.1334 72.5031 17.7713 75.5175 15.4427C78.3881 13.2253 81.5525 11.604 84.8298 10.2772C88.1755 8.92279 91.8097 8.47248 95.3062 8.1252C98.7882 7.77934 102.041 8.19611 104.845 8.81258C111.728 10.3257 117.696 15.7554 120.041 17.8712C122.358 19.9621 124.328 24.5702 126.651 29.8798C128.264 33.5658 129.744 36.4722 130.868 39.6356C131.997 42.8153 131.896 46.3781 131.372 50.7858C130.626 57.0558 128.547 62.1334 126.728 66.1717C124.021 72.1833 120.92 76.8464 119.157 79.4389C117.54 81.816 115.678 83.6485 113.967 85.1563C112.441 86.5011 110.856 87.263 109.597 87.8965C109.007 88.1934 108.473 88.3505 108.21 88.1738C107.948 87.9971 107.963 87.4588 108.285 86.7329C109.836 83.2339 114.402 80.2797 120.524 75.9266C123.831 73.5754 127.798 71.3044 131.297 69.3995C137.673 65.9287 142.53 64.1334 145.809 63.1678C148.768 62.2963 151.644 62.3155 154.372 62.33C157.194 62.345 159.984 62.9911 162.599 63.8117C165.136 64.6075 167.375 65.9934 169.515 67.5816C171.83 69.2998 173.871 71.9528 176.057 74.7621C178.255 77.5871 180.935 83.1791 184.201 90.5132C186.885 96.5409 187.84 100.757 188.263 103.191C188.466 104.361 188.447 105.43 188.283 106.523C188.118 107.616 187.759 108.707 187.163 109.8C184.609 114.482 179.316 117.787 173.61 121.486C170.715 123.363 167.357 124.716 163.892 126.156C156.907 129.057 150.538 129.614 145.578 129.695C138.226 129.815 129.868 122.678 128.169 121.12C127.772 120.756 127.49 120.262 127.523 119.919C127.555 119.576 127.959 119.352 128.466 119.416C131.532 119.802 135.138 124.657 140.068 129.654C142.896 132.521 146.598 135.848 149.578 138.762C154.855 143.925 157.919 147.565 159.607 149.869C161.262 152.127 162.169 154.738 162.923 157.254C163.686 159.798 163.639 162.426 163.407 164.769C163.293 165.92 162.711 166.919 162.069 167.988C160.728 170.219 158.679 172.321 156.396 174.31C154.165 176.255 151.414 177.55 148.634 178.831C145.775 180.149 141.068 181.43 135.531 182.789C131.566 183.761 128.54 183.825 125.887 183.818C123.286 183.811 120.758 183.059 118.353 182.111C115.957 181.166 113.971 179.273 110.748 175.798C104.775 169.357 100.973 163.778 100.023 161.571C99.0518 159.316 98.8987 156.607 98.838 153.88C98.7806 151.302 99.2727 149.036 100.1 146.883C101.092 144.303 102.759 141.953 103.607 140.576C103.837 140.202 102.377 142.191 101.691 143.683C99.9513 147.464 98.8298 153.988 96.7992 158.818C95.7399 161.337 93.951 163.485 92.1808 165.572C90.3611 167.717 86.7156 170.575 82.2652 173.909C79.0897 176.287 76.2638 177.656 73.5885 178.862C71.0776 179.995 68.272 180.364 64.9076 180.741C60.4996 181.235 56.8915 180.853 54.7891 180.168C52.6462 179.47 50.7707 178.332 49.0823 177.271C47.4424 176.239 46.1298 174.86 44.9912 173.377C44.4031 172.611 44.047 171.64 43.7116 170.534C43.006 168.209 42.8454 164.382 42.927 159.992C42.9852 156.861 44.2143 154.326 45.8455 150.964C48.2352 146.039 51.0698 142.181 52.9012 140.04C54.4734 138.202 56.4487 137.174 58.3397 136.285C63.0265 134.08 69.6979 133.549 73.1522 133.512C73.606 133.508 73.4273 134.215 73.1488 134.566C72.8703 134.917 72.4365 135.126 71.9438 135.294C70.9304 135.639 69.8343 135.749 66.5507 135.847C58.8123 136.078 51.9428 135.842 48.5361 135.316C45.2366 134.807 38.8001 131.829 30.4691 128.156C25.1649 125.818 21.9342 123.512 19.0925 121.14C16.2944 118.804 14.1939 115.723 12.0697 111.909C9.28111 106.902 8.24852 102.054 8.02053 98.778C7.9021 97.0761 8.30111 95.2777 8.9334 93.4188C10.2423 89.5708 12.9611 86.0904 15.9363 82.8277C17.4476 81.1703 19.2555 79.7894 21.2786 78.5637C25.3891 76.0735 30.131 75.0063 35.9312 74.2154C44.2508 73.081 51.4646 72.9786 55.851 73.0756C63.9184 74.1069 69.1037 75.6602 71.5871 76.8068C72.5598 77.2805 72.9487 77.5347 73.3494 77.7966" stroke="white" stroke-width="16" stroke-linecap="round" stroke-linejoin="round"/>
<path d="M75.2532 91.3896C75.0737 91.4644 74.8943 91.5392 74.6074 91.3982C74.3204 91.2573 73.9315 90.8985 73.5442 90.093C71.5357 85.9162 70.3653 81.249 69.2439 74.7701C68.4198 70.0087 67.9267 67.4779 68.2019 57.6918C68.4478 48.9429 69.8581 43.3505 70.2939 41.7415C71.4802 37.3619 72.1683 35.0069 72.8244 32.2327C74.0999 26.8396 77.3174 23.5368 78.7451 22.0381C80.5641 20.1288 85.2222 19.0528 87.6567 17.8602C90.1613 16.6333 93.0963 16.2081 95.972 15.8633C97.2911 15.7052 98.6795 16.1112 100.119 16.4569C101.605 16.8139 103.479 18.2032 106.773 20.7431C111.936 24.7241 115.301 28.1586 116.214 29.3572C116.901 30.2599 117.269 31.1514 117.623 32.0626C118.001 33.0344 118.521 35.89 119.229 40.6951C119.975 45.7453 120.005 49.3615 119.294 53.2633C117.821 61.3492 115.731 66.9011 115.145 68.4417C112.82 74.2891 110.422 80.1302 108.558 83.7297C107.786 85.1312 107.368 85.6695 106.664 86.8585" stroke="#FFF994" stroke-width="16" stroke-linecap="round" stroke-linejoin="round"/>
<path d="M109.701 94.879C109.462 94.879 108.8 94.8192 108.066 94.4968C107.767 94.3652 108.036 93.7707 108.629 93.0534C110.11 91.2634 111.661 90.1091 113.828 88.7291C123.237 82.7378 126.793 80.3259 129.024 79.2198C131.528 77.9785 136.627 77.0363 140.629 75.9567C145.798 74.562 149.379 74.7317 151.432 74.715C153.903 74.6948 157.846 77.049 160.797 78.779C163.26 80.2232 164.778 81.7323 166.39 83.2872C168.913 85.7217 170.583 87.8485 171.598 89.4654C172.918 91.5692 174.136 94.1757 174.787 96.4982C175.448 98.8556 175.469 103.143 175.372 107.671C175.334 109.467 174.902 110.224 174.485 110.946C173.66 112.378 172.753 113.332 171.948 114.085C170.867 115.096 167.114 116.618 162.028 118.391C153.67 121.305 143.686 120.586 141.883 120.122C135.236 118.412 132.418 115.562 130.806 114.39C129.451 113.037 128.35 111.336 127.243 109.468C126.659 108.542 126.031 107.66 125.746 106.569" stroke="#FFF994" stroke-width="16" stroke-linecap="round" stroke-linejoin="round"/>
<path d="M105.667 126.145C105.532 126.145 105.398 126.145 105.186 126.325C104.628 126.798 104.323 131.404 104.254 137.987C104.197 143.47 107.454 150.641 109.834 156.384C112.186 162.062 113.702 163.296 114.312 164.208C114.607 164.649 114.997 164.955 115.398 165.229C117.571 166.712 122.607 168.948 126.038 170.577C129.636 172.285 134.904 170.703 138.286 169.792C140.995 169.063 143.219 167.732 144.525 166.714C146.274 165.35 147.779 162.803 149.032 160.56C151.171 156.733 151.053 151.664 150.926 150.037C150.795 148.356 149.07 146.172 147.501 143.835C144.462 139.307 142.615 135.014 141.734 132.467C140.888 130.334 138.127 126.58 136.415 123.834C136.322 123.371 136.381 122.907 136.443 122.43" stroke="#FFF994" stroke-width="16" stroke-linecap="round" stroke-linejoin="round"/>
<path d="M79.0153 116.448C79.0003 116.433 78.9854 116.418 78.701 116.366C78.4165 116.313 77.8631 116.223 77.1143 116.656C72.575 119.276 68.9393 124.223 64.9431 129.133C59.2185 136.167 55.7703 142.141 54.5553 144.412C53.7605 145.897 53.4074 146.938 53.1586 147.85C52.9088 148.765 52.8472 150.809 52.8694 153.419C52.8828 154.988 53.4478 156.583 54.1712 158.491C54.493 159.34 54.8946 159.875 55.4983 160.534C56.8589 162.019 58.3861 163.025 59.614 163.59C62.201 164.782 69.1859 164.508 73.9485 163.886C76.8206 163.511 78.6785 161.687 79.5227 161.152C83.2597 158.785 89.0586 151.694 91.0518 148.666C91.8665 147.429 92.2781 145.908 93.3365 142.533C95.5943 135.332 97.0383 129.763 97.4671 127.829C98.0903 125.342 98.52 123.461 98.6106 122.482C98.6414 121.967 98.6414 121.413 98.7774 121.432" stroke="#FFF994" stroke-width="16" stroke-linecap="round" stroke-linejoin="round"/>
<path d="M73.9388 99.2753C73.9388 99.2453 74.1183 98.7066 74.3379 97.6744C74.4441 97.1751 74.2733 96.687 73.4864 95.8574C69.5607 91.7182 66.0067 91.1401 62.7267 89.9155C57.8166 88.0824 53.4306 86.9832 49.9334 86.2371C46.8319 85.5754 42.3438 84.8816 37.8078 84.9111C35.1632 84.9282 33.6358 85.5133 32.3465 86.0103C29.7951 86.994 27.4017 89.9755 25.4087 92.01C24.4194 93.0199 24.0072 94.451 23.3976 96.262C22.4183 99.1712 22.1162 101.88 22.3328 103.747C22.4545 104.795 23.0431 105.972 23.4991 106.88C25.3096 110.485 30.1203 113.85 32.6762 116.086C34.8486 117.987 38.1303 119.293 40.6588 120.469C42.6662 121.403 44.9211 121.734 47.0362 121.832C52.7433 122.097 57.6912 120.756 60.5497 120.017C62.3598 119.267 64.2608 118.61 66.0534 118.241C67.0084 118.066 68.0555 117.916 70.1767 118.442" stroke="#FFF994" stroke-width="16" stroke-linecap="round" stroke-linejoin="round"/>
<path d="M87.8085 35.0695C87.8085 34.1425 87.8085 33.2154 87.5991 33.007C87.3897 32.7985 86.9709 33.3368 86.471 34.5038C85.971 35.6708 85.4026 37.4501 84.0404 43.4208C82.6781 49.3915 80.5392 59.4996 79.9907 61.1405C79.4423 62.7815 80.5492 55.649 81.2465 48.887C81.9438 42.1249 82.1981 35.9495 82.1421 33.2915C82.0861 30.6335 81.7122 31.6802 81.2952 33.5726C80.8782 35.4651 80.4295 38.1715 79.9291 44.6347C79.4287 51.0979 78.8902 61.2359 78.6128 66.0996C78.3354 70.9633 78.3354 70.2456 78.7393 66.6909C79.1431 63.1362 79.9508 56.7664 80.7035 52.3336C81.8559 45.546 83.5406 41.7153 84.8304 39.2477C85.347 38.2593 85.8061 37.9314 86.0665 38.5838C86.3269 39.2363 86.4316 40.9111 85.6254 48.0016C84.8193 55.0922 83.0992 67.5478 83.4845 66.1665C83.8697 64.7851 86.4125 49.1894 87.8944 40.3777C89.3764 31.566 89.7204 30.0109 89.8752 31.9836C90.03 33.9562 89.9851 39.5037 89.7975 43.924C89.6098 48.3444 89.2807 51.4695 88.4082 56.8326C87.5357 62.1956 86.1297 69.7019 86.5197 66.9223C86.9097 64.1426 89.1384 50.8496 90.6231 42.7008C92.1077 34.552 92.7808 31.9503 93.3744 30.2286C93.9679 28.507 94.4615 27.7445 94.7607 27.5983C95.0598 27.4522 95.1496 27.9456 94.5451 34.2856C93.9407 40.6256 92.6394 52.7971 93.1731 52.5255C93.7068 52.2538 96.115 39.1702 97.4678 33.1404C98.8205 27.1106 99.0449 28.5311 98.263 35.9841C97.4811 43.4371 95.6862 56.8797 94.7541 64.0737C93.822 71.2678 93.807 71.8061 94.1358 71.2835C94.4647 70.7608 95.1378 69.1609 96.7484 63.4546C98.3591 57.7483 100.887 47.9841 102.391 42.7149C103.895 37.4456 104.299 36.9671 104.687 37.2814C105.074 37.5956 105.433 38.717 105.603 40.3938C105.773 42.0706 105.743 44.2686 105.122 49.9391C104.501 55.6096 103.289 64.6859 102.65 69.6232C102.011 74.5606 101.981 75.0839 103.058 69.1855C104.134 63.2871 106.318 50.9511 107.645 43.9981C108.972 37.0451 109.376 35.8489 109.636 35.5541C109.896 35.2594 110.001 35.9024 109.913 37.669C109.825 39.4357 109.541 42.3066 108.452 48.5032C107.363 54.6997 105.478 64.1349 104.388 69.4366C103.297 74.7382 103.058 75.6204 104.191 73.1666C105.324 70.7128 107.837 64.8961 109.207 61.6829C110.576 58.4696 110.725 58.036 109.381 61.79C108.038 65.5441 105.196 73.4989 104.061 75.5559C103.056 77.3775 104.307 67.4109 104.128 64.04C104.05 62.568 103.411 61.641 102.708 61.3725C102.005 61.104 101.107 61.5377 100.099 62.7778C97.6453 65.7958 95.9015 70.9429 94.1517 76.5627C91.107 86.3412 91.6314 90.4187 91.586 89.9868C90.7189 81.7236 90.4565 76.9494 89.6728 74.9648C89.3539 74.1571 88.8891 73.8922 88.5467 74.4036C88.2042 74.9149 87.9201 76.2457 87.639 80.7966C87.358 85.3474 87.0888 93.078 86.9052 96.8286C86.7216 100.579 86.6319 100.116 86.2192 96.6621C85.0387 86.7829 84.0492 78.9282 83.5067 77.7956C82.7996 76.3197 82.0884 86.3515 81.3016 90.7191C81.0949 91.866 81.3523 81.5843 81.4307 76.4691C81.5092 71.3539 81.4194 69.3503 81.1862 69.4919C80.953 69.6335 80.579 71.981 80.1022 77.751C79.6254 83.5209 79.057 92.6421 78.652 98.0362C78.247 103.43 78.0227 104.821 77.78 105.896C77.5372 106.971 77.283 107.689 77.0099 107.625C75.9532 107.378 75.9055 103.483 75.4679 99.7469C75.3015 98.3266 75.1798 97.8801 74.8193 100.924C73.6849 110.499 73.0341 118.251 72.6799 119.283C72.3729 120.177 71.842 111.375 71.2313 101.392C70.9917 97.4763 70.7252 95.9091 70.4526 95.818C63.514 93.5001 68.1552 113.024 67.5225 114.843C67.2641 115.585 66.8299 115.839 66.5178 115.424C61.8423 109.216 66.9133 96.7595 66.6665 96.7353C64.1686 96.4902 65.0436 103.988 64.4695 108.766C64.255 110.552 64.2544 111.047 64.688 108.52C66.0738 100.442 66.9731 93.2339 66.8169 91.4248C66.7433 90.572 64.0133 98.5974 61.3343 108.091C60.3002 111.756 59.6874 113.01 59.2078 113.814C58.7283 114.618 58.3394 114.917 58.0045 114.264C56.9336 112.175 57.078 104.964 56.9053 96.3891C56.8407 93.1808 56.5681 92.3005 56.0638 92.9375C54.1373 95.3715 52.8731 102.762 51.017 110.512C50.2962 113.522 49.7891 114.599 49.5878 114.391C48.3677 113.132 50.4055 106.436 51.8775 98.374C52.8873 92.8432 52.9225 89.1708 52.5787 87.4891C52.3076 86.1628 49.281 95.6326 46.963 105.402C46.133 108.901 45.8566 109.4 45.7558 109.198C43.3679 104.424 47.9049 95.6381 48.1392 92.554C48.2416 91.2065 48.1791 90.2923 47.7299 90.5177C41.0202 93.885 41.8208 105.072 41.3227 105.137C40.0501 105.304 40.9863 99.5512 40.7626 94.7679C40.6945 93.3107 39.9107 93.9172 39.0942 95.5558C38.2776 97.1945 37.2456 99.8711 36.7812 99.7696C36.3168 99.6681 36.4515 96.7074 36.2516 95.0776C36.0517 93.4477 35.5132 93.2384 34.989 93.5866C31.3807 95.9836 31.3967 102.175 30.7626 104.89C30.4896 106.059 30.4276 106.827 31.3761 105.822C32.3245 104.817 34.3139 102.021 35.8173 100.027C37.3208 98.0332 38.2781 96.9267 39.2644 95.7867" stroke="#FFF994" stroke-width="16" stroke-linecap="round" stroke-linejoin="round"/>
<path d="M67.0492 129.86C67.0492 129.412 67.0492 128.657 67.0492 128.141C67.0492 127.581 66.2564 134.011 64.7337 142.561C63.5609 149.146 61.965 154.155 60.6077 158.001C60.0304 159.638 59.4897 160.562 59.5421 159.859C59.776 156.715 62.096 151.263 66.4378 142.013C69.3745 135.757 74.3993 126.618 77.3151 121.297C80.2309 115.976 81.0386 114.825 81.3201 114.89C81.6016 114.954 81.3323 116.27 79.0697 123.146C76.807 130.022 72.559 142.418 70.2436 149.431C67.9281 156.445 67.6738 157.701 67.8195 158.176C67.9652 158.651 68.5187 158.307 69.3721 157.181C70.2256 156.054 71.3624 154.155 73.2867 150.164C75.2111 146.173 77.8885 140.147 79.7389 135.607C82.7281 128.273 83.8914 123.429 84.1516 121.241C84.2782 120.177 81.6397 125.561 79.6419 130.51C77.6688 135.398 76.0487 142.771 74.8448 149.609C74.4814 151.674 75.1517 150.96 76.005 149.252C76.8582 147.543 78.0099 144.882 80.4505 140.027C82.8911 135.171 86.5856 128.203 88.3692 124.995C90.1528 121.787 89.9134 122.55 87.7036 128.071C85.4937 133.593 81.3206 143.85 79.5596 148.671C77.7987 153.492 78.5765 152.565 80.63 149.022C82.6835 145.479 85.9891 139.348 88.3427 134.471C92.2905 126.289 93.9216 119.964 94.8279 115.61C95.182 113.909 95.1958 113.214 94.6654 113.884C94.1351 114.554 93.0283 116.603 91.1343 122.009C89.2404 127.416 86.5929 136.118 85.1692 140.946C83.7455 145.773 83.6258 146.46 83.7661 146.486C84.5872 146.634 86.8055 140.032 90.4193 130.653C92.0389 126.45 92.8814 123.248 93.748 119.522C94.6147 115.795 95.3925 111.609 95.6511 109.833C95.9096 108.058 95.6254 108.82 94.948 111.232C94.2707 113.643 93.2087 117.68 94.2022 116.059C95.1958 114.438 98.277 107.037 100.126 102.065C102.798 94.8799 103.098 90.9372 102.964 89.0461C102.93 88.5661 102.322 89.2185 100.55 94.4912C98.7783 99.7638 95.6971 109.678 94.3341 108.16C92.9712 106.643 93.4199 93.3953 93.1275 92.7909C92.8352 92.1864 91.7881 104.627 91.3011 111.432C90.8141 118.237 90.9188 119.03 91.3541 119.169C91.7895 119.308 92.5523 118.77 93.768 117.304C96.8264 113.615 99.9994 108.065 103.547 101.389C105.506 97.7028 107.439 93.2322 108.622 91.2587C109.804 89.2852 110.088 89.8982 109.404 95.5746C108.721 101.251 107.06 111.972 106.407 117.375C105.754 122.779 106.157 122.54 107.368 120.166C108.578 117.792 110.582 113.292 112.198 109.283C113.814 105.275 114.981 101.896 115.507 100.895C115.791 100.355 114.443 109.928 112.479 121.017C111.761 125.071 111.771 125.961 112.347 125.712C112.922 125.464 114.104 124.058 116.336 120.037C118.567 116.016 121.813 109.422 123.687 105.831C125.561 102.239 125.965 101.85 126.083 101.972C126.201 102.093 126.022 102.736 123.634 108.689C121.245 114.643 116.653 125.887 114.16 132.442C111.668 138.998 111.413 140.523 111.709 140.957C112.004 141.391 112.857 140.689 115.128 136.2C117.4 131.711 121.064 123.457 122.87 119.444C124.675 115.431 124.511 115.91 123.057 119.64C121.604 123.371 118.867 130.339 117.068 135.154C114.369 142.378 113.585 145.891 113.673 147.154C113.699 147.527 114.36 147.145 115.122 146.139C117.066 143.573 120.314 136.992 123.311 131.761C128.161 123.298 120.444 147.213 120.495 150.266C120.519 151.648 120.831 152.676 121.224 153.245C121.616 153.814 122.155 153.889 122.799 153.396C124.448 152.135 126.546 147.743 128.919 143.765C129.243 143.221 128.026 152.068 127.556 157.714C127.425 159.292 131.648 151.634 134.835 145.87C135.867 144.005 136.138 144.546 135.886 146.071C135.204 150.201 133.61 154.731 133.143 156.219C132.067 159.652 135.925 148.213 136.687 144.823C137.485 141.274 137.381 137.7 137.103 134.857C136.983 133.63 136.511 132.896 135.997 132.473C135.483 132.051 134.84 131.976 134.434 131.474C133.469 130.282 134.173 124.828 134.845 117.205C135.662 107.947 134.434 104.256 134.576 101.724C134.611 101.099 134.883 100.54 135.148 100.045C135.413 99.5508 135.742 99.1471 136.008 99.7765C136.275 100.406 136.47 102.081 136.51 107.429C136.55 112.778 136.431 121.749 136.317 126.894C136.117 135.893 134.723 141.394 134.735 146.374C134.737 147.345 135.258 147.72 135.644 148.062C138.426 150.524 144.195 153.021 146.505 154.118C147.309 154.499 147.589 153.914 147.353 153.534C147.117 153.153 146.414 152.839 145.835 152.76C145.256 152.68 144.822 152.845 144.397 153.176C143.972 153.508 143.568 154.001 143.195 154.577C141.181 157.689 140.269 161.497 139.397 162.425C138.928 162.924 137.986 162.979 137.33 162.795C136.674 162.611 136.226 162.057 135.845 161.421C135.074 160.132 134.633 158.491 134.24 156.608C133.798 154.485 133.935 149.952 134.153 143.868C134.325 139.045 135.304 133.594 136.218 127.892C137.316 121.037 136.02 116.035 136.41 114.054C136.608 113.044 137.278 112.147 137.952 111.34C138.626 110.534 139.404 109.876 140.276 109.343C143.651 107.278 146.915 106.457 148.879 104.727C149.31 104.347 149.477 103.845 149.78 104.19C150.85 105.409 151.126 107.305 151.804 108.187C152.469 109.053 153.481 109.618 154.7 110.265C156.332 111.132 157.922 111.554 158.724 111.846C159.379 112.085 161.151 108.623 164.682 102.807C166.263 100.202 163.218 108.887 163.192 109.985C163.187 110.236 163.9 109.602 164.424 108.771C166.874 104.887 167.923 99.9782 168.361 97.1204C169.135 92.0776 160.952 108.198 160.701 108.001C159.069 106.724 163.483 98.8481 165.757 92.1692C166.668 89.4932 162.329 99.221 161.32 100.527C160.9 101.071 160.28 101.011 159.988 100.623C159.696 100.235 159.651 99.4272 159.703 98.4131C159.816 96.1966 160.582 92.6527 161.39 88.8943C161.699 87.4586 161.704 86.9602 161.219 87.4312C155.778 92.7081 153.415 100.431 152.892 100.957C150.398 103.467 155.924 92.0532 156.478 87.4786C156.59 86.5522 156.12 85.8319 155.638 85.4099C155.155 84.9878 154.467 84.8831 153.738 85.0685C153.01 85.2538 152.262 85.7323 151.488 86.5619C146.798 91.5875 144.605 97.8816 144.369 97.7976C139.937 96.2187 147.091 88.943 147.77 86.3424C148.08 85.1558 148.18 84.2053 147.786 83.8097C147.391 83.4142 146.464 83.5936 144.909 84.942C140.865 88.4496 138.279 92.1085 137.221 92.7324C136.905 92.9188 136.881 91.7116 137.278 90.3817C138.208 87.2636 139.313 85.1274 139.172 84.7017C138.892 83.8574 136.639 88.2702 135.032 90.729C133.689 92.7846 137.016 85.2805 136.936 84.4778C136.842 83.5303 133.665 87.7554 131.381 90.9338C130.867 91.6496 131.341 90.2842 131.102 89.801C130.531 88.644 128.035 90.3907 127.022 90.3731C126.568 90.3652 126.817 89.0545 127.095 88.1873C127.374 87.32 127.822 86.6023 127.986 86.6437C128.15 86.6852 128.015 87.5076 127.877 88.3549" stroke="#FFF994" stroke-width="16" stroke-linecap="round" stroke-linejoin="round"/>
<path d="M131.865 91.9805L128.557 93.0679" stroke="#FFF994" stroke-width="16" stroke-linecap="round" stroke-linejoin="round"/>
<path d="M105.576 91.3454C105.606 91.3603 105.636 91.3753 105.629 91.069C105.622 90.7627 105.577 90.1347 105.285 89.6317C104.992 89.1287 104.454 88.7699 103.945 88.5252C102.063 87.6209 98.3186 87.9017 93.6256 88.2624C92.1551 88.3754 91.1072 88.8061 90.1049 89.2126C89.1055 89.6178 88.2359 90.3898 87.3692 91.2631C86.4478 92.1918 85.7719 93.3785 85.2362 94.5088C83.558 98.0492 83.6847 104.336 83.7585 110.654C83.7826 112.71 84.1357 113.92 84.4443 115.005C84.7438 116.058 85.3277 116.987 85.9603 117.906C86.6468 118.903 87.667 119.841 88.7895 120.798C89.9212 121.763 91.3366 122.456 92.8582 123.081C97.9644 125.181 104.754 124.574 105.998 124.484C106.62 124.439 107.196 124.155 107.796 123.808C109.048 123.083 110.777 121.293 112.754 119.129C115.051 116.615 117.131 109.945 118.598 104.868C119.017 103.417 118.796 101.955 118.692 100.562C118.58 99.0759 117.998 97.5906 117.411 96.1814C116.333 93.5952 112.85 90.9865 110.064 88.4081C109.5 87.8858 108.927 87.4278 108.327 87.0768C107.728 86.7259 107.115 86.5016 106.455 86.3636C101.729 85.3756 95.4141 86.27 94.201 86.4427C92.9401 86.6221 91.7577 87.3693 90.6495 88.1674C88.4836 89.7273 85.8957 95.92 84.0348 100.675C82.6717 104.159 83.502 108.088 83.7046 109.482C83.8066 110.184 84.1316 110.831 84.4722 111.454C84.8128 112.077 85.2167 112.645 85.7089 113.155C86.6951 114.176 88.133 114.949 89.7751 115.717C91.5105 116.53 93.4497 116.884 95.3858 117.163C97.4426 117.46 99.6725 117.325 101.873 117.054C104 116.793 105.81 115.788 107.438 114.847C109.084 113.895 110.495 112.498 111.889 111.044C113.331 109.54 114.515 107.577 115.601 105.461C116.144 104.403 116.447 103.269 116.662 102.206C116.877 101.143 116.937 100.156 116.84 99.2585C116.744 98.3614 116.49 97.5838 116.097 96.8767C115.317 95.472 113.923 94.2671 112.402 92.9637C110.813 91.6027 108.954 90.6249 107.146 89.8181C105.351 89.0171 102.363 88.8841 98.9303 88.8383C96.4683 88.8055 94.5711 89.3186 92.8373 89.9958C91.1464 90.6562 89.7647 92.1383 88.3702 93.787C86.8697 95.561 86.0897 98.0537 85.5083 100.652C84.9212 103.277 85.2389 105.998 85.6593 108.552C85.8715 109.841 86.4985 111.031 87.2244 112.201C87.9503 113.371 88.8627 114.462 89.9385 115.443C91.0143 116.424 92.2259 117.262 93.5381 117.917C94.8503 118.573 96.2264 119.022 97.6457 119.305C99.0651 119.588 100.486 119.693 101.816 119.463C103.147 119.233 104.343 118.665 105.416 117.804C109.917 114.191 111.146 109.603 111.954 107.334C112.334 106.268 112.388 105.29 112.367 104.326C112.347 103.362 112.182 102.42 111.821 101.457C111.459 100.493 110.906 99.5359 110.232 98.684C109.558 97.8322 108.78 97.1144 107.878 96.5204C106.976 95.9264 105.974 95.4778 104.837 95.1644C102.498 94.5199 99.6838 94.577 96.6622 94.9069C95.1217 95.075 93.6256 95.6554 92.2415 96.328C90.8575 97.0007 89.6459 97.853 88.6628 98.7855C87.6797 99.718 86.9617 100.705 86.4872 101.737C86.0126 102.768 85.8032 103.815 85.9122 104.885C86.0212 105.955 86.455 107.017 87.1945 108.035C88.7473 110.172 91.2559 111.728 93.8472 113.055C95.1618 113.729 96.6778 113.964 98.1733 114.081C99.6689 114.199 101.15 114.079 102.571 113.606C103.992 113.133 105.308 112.311 106.502 111.222C107.696 110.133 108.728 108.802 109.604 107.384C110.48 105.966 111.168 104.5 111.619 103.02C112.071 101.54 112.265 100.09 112.059 98.7069C111.853 97.3242 111.239 96.0532 110.325 94.9723C109.411 93.8914 108.214 93.0391 106.887 92.4356C105.56 91.832 104.139 91.503 102.63 91.4607C101.12 91.4183 99.5642 91.6725 98.0897 92.3193C96.6153 92.9662 95.2691 93.9979 94.1418 95.3144C93.0146 96.6309 92.147 98.201 91.5805 99.892C91.0139 101.583 90.7746 103.347 90.9355 104.997C91.0964 106.646 91.6648 108.126 92.496 109.375C93.3273 110.623 94.4043 111.595 95.6322 112.26C96.86 112.925 98.2062 113.254 99.5728 113.304C100.939 113.354 102.286 113.115 103.607 112.476C104.929 111.837 106.185 110.805 107.281 109.585C108.377 108.366 109.275 106.99 109.857 105.639C110.439 104.287 110.678 103.001 110.562 101.786C110.446 100.57 109.967 99.4634 109.123 98.4672C108.278 97.471 107.081 96.6187 105.747 96.06C104.412 95.5013 102.976 95.2621 101.451 95.3407C99.9263 95.4193 98.3558 95.823 96.9036 96.659C95.4513 97.495 94.165 98.7511 93.2929 100.131C92.4208 101.511 92.002 102.976 91.8909 104.471C91.7799 105.966 91.9893 107.446 92.6282 108.747C93.267 110.048 94.329 111.125 95.5642 111.874C96.7993 112.623 98.1754 113.011 99.6247 113.182C101.074 113.352 102.555 113.292 103.953 112.813C105.352 112.334 106.623 111.436 107.682 110.316C108.741 109.196 109.549 107.88 110.152 106.455C110.755 105.029 111.129 103.534 111.082 102.054C111.035 100.573 110.557 99.1525 109.727 97.9647C108.897 96.7769 107.73 95.8647 106.486 95.2752C105.242 94.6857 103.955 94.4465 102.612 94.6223C101.269 94.7981 99.9077 95.3962 98.6606 96.3548C97.4135 97.3133 96.3216 98.6142 95.4674 100.047C94.6132 101.48 94.0299 103.005 93.7518 104.486C93.4737 105.967 93.5186 107.358 93.9082 108.448C94.2977 109.538 95.0307 110.286 95.9018 110.798C96.773 111.31 97.7602 111.564 98.7923 111.561C99.8243 111.557 100.871 111.288 101.882 110.618C102.892 109.949 103.835 108.887 104.649 107.6C105.464 106.313 106.122 104.833 106.506 103.39C106.89 101.947 106.98 100.586 106.742 99.4964C106.504 98.4067 105.935 97.6292 105.179 97.1538C104.422 96.6785 103.495 96.529 102.553 96.8034C101.612 97.0777 100.685 97.7805 99.8928 98.7182C99.101 99.6559 98.4727 100.807 98.0444 101.991C97.6161 103.175 97.4067 104.356 97.411 105.376C97.4153 106.396 97.6396 107.218 98.0768 107.776C98.514 108.334 99.1571 108.604 99.825 108.742C100.493 108.881 101.166 108.881 101.827 108.567C102.488 108.253 103.116 107.625 103.649 106.8C104.182 105.976 104.601 104.974 104.861 104.017C105.122 103.06 105.212 102.178 105.049 101.499C104.885 100.82 104.467 100.371 103.907 100.163C103.347 99.9541 102.659 99.9989 101.961 100.314C101.262 100.628 100.574 101.211 99.9578 101.886C99.3416 102.56 98.8181 103.308 98.4662 104.007C98.1142 104.706 97.9497 105.334 98.0818 105.882C98.2139 106.43 98.6477 106.878 99.0946 107.34" stroke="#1E1E1E" stroke-width="8" stroke-linecap="round" stroke-linejoin="round"/>
<path d="M96.8737 94.6074L96.8284 93.7012" stroke="#FFC943" stroke-width="4" stroke-linecap="round" stroke-linejoin="round"/>
<path d="M92.5676 106.659L91.7971 106.523" stroke="#FFC943" stroke-width="4" stroke-linecap="round" stroke-linejoin="round"/>
<path d="M104.216 113.275L103.763 114.091" stroke="#FFC943" stroke-width="4" stroke-linecap="round" stroke-linejoin="round"/>
<path d="M105.848 96.9629L105.032 96.7363" stroke="#FFC943" stroke-width="4" stroke-linecap="round" stroke-linejoin="round"/>
<path d="M101.588 104.486L101.905 103.852" stroke="#FFC943" stroke-width="4" stroke-linecap="round" stroke-linejoin="round"/>
<path d="M111.922 103.76C111.787 103.76 111.653 103.76 111.359 103.894C111.065 104.029 110.616 104.298 110.154 104.711" stroke="#FFC943" stroke-width="4" stroke-linecap="round" stroke-linejoin="round"/>
<path d="M91.6612 117.035L90.5281 117.216" stroke="#FFC943" stroke-width="4" stroke-linecap="round" stroke-linejoin="round"/>
<path d="M111.333 113.637L110.199 113.909" stroke="#FFC943" stroke-width="4" stroke-linecap="round" stroke-linejoin="round"/>
<path d="M104.126 125.012L103.99 123.426" stroke="#FFC943" stroke-width="4" stroke-linecap="round" stroke-linejoin="round"/>
<path d="M88.3976 100.18L87.5818 100.135" stroke="#FFC943" stroke-width="4" stroke-linecap="round" stroke-linejoin="round"/>
<path d="M106.709 87.9461L106.211 87.6289" stroke="#FFC943" stroke-width="4" stroke-linecap="round" stroke-linejoin="round"/>
<path d="M116.137 97.5984L115.82 97.0547" stroke="#FFC943" stroke-width="4" stroke-linecap="round" stroke-linejoin="round"/>
<path d="M86.1768 73.583C86.117 73.583 85.4131 73.3886 84.1839 72.9371C83.1232 72.5475 82.1193 71.3845 80.7257 69.7223C79.926 68.7683 79.1976 67.3871 78.505 65.6997C77.8124 64.0123 77.244 62.0087 77.0036 59.8102C76.7631 57.6117 76.8678 55.279 77.161 53.5017C77.4543 51.7244 77.933 50.573 78.4261 49.3867" stroke="#FFC943" stroke-width="4" stroke-linecap="round" stroke-linejoin="round"/>
<path d="M98.4148 68.8704C98.34 68.99 98.2652 69.1096 98.0472 69.3955C97.8291 69.6815 97.4702 70.13 97.1132 69.9424C96.0141 69.3648 95.6839 65.6773 95.1023 60.9386C94.8648 56.3046 95.2678 51.2864 96.3288 46.2816C96.9562 43.9532 97.7639 42.0542 98.596 40.0977" stroke="#FFC943" stroke-width="4" stroke-linecap="round" stroke-linejoin="round"/>
<path d="M109.112 72.8576C108.902 72.8576 108.693 72.8576 108.563 72.4763C108.432 72.095 108.387 71.3324 109.127 69.5564C109.867 67.7804 111.393 65.0142 112.964 62.1641" stroke="#FFC943" stroke-width="4" stroke-linecap="round" stroke-linejoin="round"/>
<path d="M129.237 87.7201C129.552 87.2715 130.246 85.7776 131.305 84.3557C133.157 82.4404 136.452 80.0153 139.992 77.9095C141.393 77.1195 141.991 76.8952 142.608 76.6641" stroke="#FFC943" stroke-width="4" stroke-linecap="round" stroke-linejoin="round"/>
<path d="M138.302 101.177C138.302 101.147 138.302 101.117 138.369 100.877C138.436 100.638 138.571 100.189 139.014 99.8833C139.457 99.5775 140.205 99.4279 141.533 99.3434C144.745 99.244 149.873 99.9313 155.553 101.362C158.046 102.091 159.752 102.824 161.508 103.578" stroke="#FFC943" stroke-width="4" stroke-linecap="round" stroke-linejoin="round"/>
<path d="M133.876 113.635C133.75 113.585 133.345 113.37 133.076 113.097C133.146 113.012 133.637 113.037 135.368 113.736C137.099 114.435 140.055 115.807 143.102 117.22" stroke="#FFC943" stroke-width="4" stroke-linecap="round" stroke-linejoin="round"/>
<path d="M113.63 134.084C113.599 133.943 113.567 133.802 113.442 133.519C113.316 133.235 113.097 132.812 112.992 136.483C112.887 140.154 112.903 147.931 112.919 155.944" stroke="#FFC943" stroke-width="4" stroke-linecap="round" stroke-linejoin="round"/>
<path d="M120.693 135.6C120.63 135.444 120.568 135.287 120.903 135.77C121.239 136.253 121.974 137.379 123.017 138.742C124.061 140.105 125.391 141.67 126.76 143.282" stroke="#FFC943" stroke-width="4" stroke-linecap="round" stroke-linejoin="round"/>
<path d="M127.756 131.477C127.615 131.477 127.474 131.477 127.425 131.75C127.376 132.024 127.423 132.572 127.987 133.441C129.63 135.483 132.713 137.944 136.333 140.045C137.982 140.893 139.249 141.3 140.554 141.719" stroke="#FFC943" stroke-width="4" stroke-linecap="round" stroke-linejoin="round"/>
<path d="M72.2472 132.044C72.2628 131.997 72.2785 131.95 71.9737 131.769C71.6689 131.589 71.0431 131.276 69.9934 131.38C67.4889 132.017 63.7687 133.974 60.1529 136.319C58.7583 137.255 58.2577 137.678 57.7419 138.113" stroke="#FFC943" stroke-width="4" stroke-linecap="round" stroke-linejoin="round"/>
<path d="M85.3777 138.873C84.5642 138.983 83.7508 139.092 82.8312 139.422C81.9116 139.753 80.9104 140.3 79.7924 141.287C78.6745 142.273 77.47 143.681 76.5288 145.361C75.5876 147.041 74.9462 148.95 74.2854 150.917" stroke="#FFC943" stroke-width="4" stroke-linecap="round" stroke-linejoin="round"/>
<path d="M65.421 111.844C65.421 111.891 65.421 111.938 65.2568 112.173C65.0925 112.409 64.764 112.831 64.1568 113.189C62.6736 113.83 60.457 114.261 56.894 114.505C54.645 114.609 51.5007 114.672 48.2612 114.736" stroke="#FFC943" stroke-width="4" stroke-linecap="round" stroke-linejoin="round"/>
<path d="M62.1977 103.025C61.8536 103.182 60.8629 103.513 59.2237 103.908C58.3979 104.053 57.5845 104.084 56.3285 103.904C55.0726 103.725 53.3988 103.334 50.821 102.504" stroke="#FFC943" stroke-width="4" stroke-linecap="round" stroke-linejoin="round"/>
<path d="M62.9562 94.8223C62.7685 94.8223 61.5455 94.6815 59.0881 93.983C57.7571 93.4253 56.2553 92.4552 54.2068 90.907C52.1583 89.3588 49.6085 87.2619 46.9814 85.1016" stroke="#FFC943" stroke-width="4" stroke-linecap="round" stroke-linejoin="round"/>
</svg>
