<svg width="577" height="233" viewBox="0 0 577 233" fill="none" xmlns="http://www.w3.org/2000/svg">
<path d="M60.658 123.385C60.2497 123.499 59.8413 123.612 59.9486 123.285C60.0558 122.958 60.691 122.187 60.3036 121.313C59.9163 120.44 58.4871 119.487 56.9228 118.792C53.8119 117.411 49.8865 117.178 45.7144 117.29C43.6429 117.346 41.7011 117.992 39.8794 118.884C38.0577 119.776 36.4243 121.046 34.8569 122.607C31.6484 125.803 29.2076 129.848 27.2848 133.722C26.3791 135.547 26.088 137.301 26.1045 138.813C26.1209 140.324 26.5746 141.594 28.3056 143.473C32.6475 148.185 38.3622 151.639 44.7255 154.732C54.4368 159.452 63.5638 162.564 68.743 165.853C73.6462 168.968 77.323 173.211 80.4109 177.426C81.9309 179.501 82.9091 181.755 83.5721 183.976C84.2352 186.198 84.4393 188.397 84.3403 190.642C84.2414 192.886 83.833 195.109 83.0215 197.331C81.3689 201.856 78.2036 205.605 75.0152 208.681C72.0765 211.516 66.6277 213.513 60.0647 215.652C54.4212 217.492 48.4298 217.578 42.3033 217.83C36.3633 218.075 31.1888 217.242 26.9476 215.952C23.0013 214.367 19.5188 212.346 15.9338 209.55C13.8914 207.889 11.396 205.735 8 202.484" stroke="#EE719E" stroke-width="16" stroke-linecap="round" stroke-linejoin="round"/>
<path d="M111.666 107.373C111.576 106.964 112.255 108.296 113.445 111.937C114.113 113.98 114.092 116.643 113.663 131.22C113.235 145.796 112.191 172.261 111.972 187.482C111.752 202.704 112.387 205.879 113.213 208.966C114.832 215.014 117.019 220.01 118.78 223.341C119.482 224.67 120.224 225.016 120.834 224.909C121.445 224.802 122.012 224.167 122.724 222.797C124.471 219.434 126.252 215.059 128.787 210.819C131.443 206.378 136.477 202.414 142.77 198.016C149.897 193.033 159.076 190.105 168.061 187.884C176.366 185.831 183.907 186.767 189.627 187.417C192.21 187.71 194.075 188.452 195.272 189.176C196.469 189.899 196.923 190.716 196.964 191.76C197.005 192.804 196.619 194.052 196.159 195.17C195.7 196.289 195.178 197.242 194.64 198.223" stroke="#EE719E" stroke-width="16" stroke-linecap="round" stroke-linejoin="round"/>
<path d="M229.287 86.7559C229.287 87.0734 228.947 88.1668 227.91 94.4514C227.03 99.7792 226.169 109.558 223.646 125.83C221.124 142.102 217.154 164.599 215.075 177.016C212.996 189.433 212.928 191.088 212.857 190.732" stroke="#EE719E" stroke-width="16" stroke-linecap="round" stroke-linejoin="round"/>
<path d="M232.862 79.8154C232.567 78.999 232.272 78.1826 232.154 78.9753C232.036 79.768 232.104 82.1945 232.899 85.2588C233.694 88.3231 235.214 91.9517 239.071 99.2297C242.928 106.508 249.076 117.325 255.975 131.55C262.873 145.774 270.337 163.077 274.341 172.57C278.344 182.062 278.662 183.218 278.451 183.622C278.241 184.025 277.492 183.639 276.721 183.242" stroke="#EE719E" stroke-width="16" stroke-linecap="round" stroke-linejoin="round"/>
<path d="M204.058 169.36C203.763 169.133 203.469 168.906 203.555 167.996C203.641 167.085 204.117 165.498 205.225 164.045C207.606 160.921 212.578 158.472 230.439 150.239C245.452 143.319 272.959 131.755 288.699 124.75C304.438 117.746 307.682 115.886 310.124 114.384C312.567 112.881 314.109 111.793 315.63 110.603" stroke="#EE719E" stroke-width="16" stroke-linecap="round" stroke-linejoin="round"/>
<path d="M317.143 67.1699C318.14 69.1835 323.572 79.0107 332.287 90.6714C337.55 97.7126 345.267 106.46 350.02 112.933C354.774 119.406 356.521 123.193 357.829 126.823C359.137 130.452 359.954 133.808 360.795 137.266" stroke="#EE719E" stroke-width="16" stroke-linecap="round" stroke-linejoin="round"/>
<path d="M377.087 75.1426C376.429 76.9073 373.71 84.5252 370.184 92.1254C368.123 96.5669 365.183 102.039 357.246 115.151C349.308 128.263 336.377 148.81 329.398 160.256C322.419 171.702 321.784 173.426 321.129 175.202" stroke="#EE719E" stroke-width="16" stroke-linecap="round" stroke-linejoin="round"/>
<path d="M417.478 51.2358C417.262 50.5887 417.046 49.9415 416.845 48.907C416.644 47.8725 416.464 46.4702 416.371 48.1928C416.016 54.7964 415.056 69.8748 412.753 86.7099C411.82 93.5352 410.775 96.7855 409.97 98.9744C409.165 101.163 408.481 102.17 407.896 101.179C405.786 97.6076 406.361 90.3518 406.882 80.0125C407.697 63.865 410.241 50.7978 412.284 46.7376C412.953 45.4081 415.514 48.1786 417.215 50.9972C420.839 57.001 423.923 64.2396 428.702 70.9071C431.162 74.3388 434.633 77.1431 438.063 79.4894C445.017 83.4538 452.245 86.0916 457.767 88.3355C459.692 89.6087 459.835 91.1548 459.984 92.7477" stroke="#EE719E" stroke-width="16" stroke-linecap="round" stroke-linejoin="round"/>
<path d="M493.335 130.774L492.79 129.902" stroke="#EE719E" stroke-width="16" stroke-linecap="round" stroke-linejoin="round"/>
<path d="M533.007 9.83319C531.488 13.6205 529.814 25.8518 527.461 42.3655C526.863 46.5613 525.509 50.2881 524.305 53.4195C523.102 56.5508 521.807 58.9239 520.475 59.4273C519.142 59.9306 517.812 58.4924 517.18 55.9538C512.874 38.6482 523.654 16.571 526.484 9.04547C527.319 6.82499 528.307 8.49524 529.145 10.7653C531.071 15.99 533.753 22.9056 537.645 30.6577C541.773 38.8786 548.017 45.6489 554.016 51.1778C556.993 53.6865 559.834 55.5921 562.323 57.0412C564.811 58.4903 566.862 59.4251 568.974 60.3883" stroke="#EE719E" stroke-width="16" stroke-linecap="round" stroke-linejoin="round"/>
</svg>
