<svg width="377" height="307" viewBox="0 0 377 307" fill="none" xmlns="http://www.w3.org/2000/svg" xmlns:xlink="http://www.w3.org/1999/xlink">
<use xlink:href="#stroke0_340_4374" transform="translate(92.4389 285.317) scale(0.0826001) rotate(-66.5407)"/>
<use xlink:href="#stroke0_340_4374" transform="translate(94.5569 287.156) scale(0.108233) rotate(-80.0011)"/>
<use xlink:href="#stroke0_340_4374" transform="translate(129.203 266.365) scale(0.0757198) rotate(109.22)"/>
<use xlink:href="#stroke0_340_4374" transform="translate(131.073 279.183) scale(0.0813721) rotate(175.849)"/>
<use xlink:href="#stroke0_340_4374" transform="translate(138.75 268.695) scale(0.0817719) rotate(146.004)"/>
<use xlink:href="#stroke0_340_4374" transform="translate(135.1 278.386) scale(0.0979608) rotate(-159.755)"/>
<use xlink:href="#stroke0_340_4374" transform="translate(133.902 270.7) scale(0.0695584) rotate(-145.536)"/>
<use xlink:href="#stroke0_340_4374" transform="translate(156.7 249.211) scale(0.110736) rotate(120.041)"/>
<use xlink:href="#stroke0_340_4374" transform="translate(160.333 247.595) scale(0.100521) rotate(127.361)"/>
<use xlink:href="#stroke0_340_4374" transform="translate(168.256 247.332) scale(0.113343) rotate(138.234)"/>
<use xlink:href="#stroke0_340_4374" transform="translate(141.504 258.659) scale(0.108892) rotate(-102.99)"/>
<use xlink:href="#stroke0_340_4374" transform="translate(169.039 249.08) scale(0.07921) rotate(176.996)"/>
<use xlink:href="#stroke0_340_4374" transform="translate(150.697 226.878) scale(0.0808035) rotate(-9.62985)"/>
<use xlink:href="#stroke0_340_4374" transform="translate(170.482 212.92) scale(0.108502) rotate(49.3937)"/>
<use xlink:href="#stroke0_340_4374" transform="translate(192.677 220.351) scale(0.109703) rotate(105.128)"/>
<use xlink:href="#stroke0_340_4374" transform="translate(188.297 215.4) scale(0.0774549) rotate(79.0687)"/>
<use xlink:href="#stroke0_340_4374" transform="translate(196.596 234.326) scale(0.0826016) rotate(170.32)"/>
<use xlink:href="#stroke0_340_4374" transform="translate(188.387 208.616) scale(0.0737229) rotate(41.6425)"/>
<use xlink:href="#stroke0_340_4374" transform="translate(202.893 234.536) scale(0.0913768) rotate(-170.529)"/>
<use xlink:href="#stroke0_340_4374" transform="translate(215.798 220.131) scale(0.0919053) rotate(141.714)"/>
<use xlink:href="#stroke0_340_4374" transform="translate(197.508 202.863) scale(0.0716707) rotate(17.3586)"/>
<use xlink:href="#stroke0_340_4374" transform="translate(195.42 229.957) scale(0.116875) rotate(-100.047)"/>
<use xlink:href="#stroke0_340_4374" transform="translate(219.971 196.119) scale(0.0771821) rotate(65.7261)"/>
<use xlink:href="#stroke0_340_4374" transform="translate(198.696 204.517) scale(0.112044) rotate(-40.9105)"/>
<use xlink:href="#stroke0_340_4374" transform="translate(214.131 186.266) scale(0.11166) rotate(8.09704)"/>
<use xlink:href="#stroke0_340_4374" transform="translate(220.687 209.859) scale(0.0742507) rotate(-86.7883)"/>
<use xlink:href="#stroke0_340_4374" transform="translate(240.574 214.076) scale(0.0852857) rotate(-153.414)"/>
<use xlink:href="#stroke0_340_4374" transform="translate(227.424 193.116) scale(0.0716469) rotate(-33.3324)"/>
<use xlink:href="#stroke0_340_4374" transform="translate(241.776 208.412) scale(0.0769791) rotate(-125.027)"/>
<use xlink:href="#stroke0_340_4374" transform="translate(230.295 200.284) scale(0.116164) rotate(-71.0436)"/>
<use xlink:href="#stroke0_340_4374" transform="translate(272.157 196.591) scale(0.0943148) rotate(160.511)"/>
<use xlink:href="#stroke0_340_4374" transform="translate(258.263 199.019) scale(0.0711569) rotate(-124.965)"/>
<use xlink:href="#stroke0_340_4374" transform="translate(247.246 193.201) scale(0.114484) rotate(-74.8575)"/>
<use xlink:href="#stroke0_340_4374" transform="translate(285.556 187.909) scale(0.0805213) rotate(148.945)"/>
<use xlink:href="#stroke0_340_4374" transform="translate(279.032 163.28) scale(0.109086) rotate(51.9136)"/>
<use xlink:href="#stroke0_340_4374" transform="translate(273.344 195.94) scale(0.0903413) rotate(-108.07)"/>
<use xlink:href="#stroke0_340_4374" transform="translate(299.184 175.792) scale(0.0700845) rotate(119.524)"/>
<use xlink:href="#stroke0_340_4374" transform="translate(296.674 192.834) scale(0.0911068) rotate(-156.517)"/>
<use xlink:href="#stroke0_340_4374" transform="translate(303.28 194.21) scale(0.113801) rotate(-154.497)"/>
<use xlink:href="#stroke0_340_4374" transform="translate(294.345 152.021) scale(0.1079) rotate(17.1634)"/>
<use xlink:href="#stroke0_340_4374" transform="translate(292.588 155.585) scale(0.104489) rotate(-12.911)"/>
<use xlink:href="#stroke0_340_4374" transform="translate(309.256 146.197) scale(0.0907684) rotate(27.5993)"/>
<use xlink:href="#stroke0_340_4374" transform="translate(299.852 156.848) scale(0.100539) rotate(-40.2691)"/>
<use xlink:href="#stroke0_340_4374" transform="translate(314.488 144.809) scale(0.078699) rotate(4.15628)"/>
<use xlink:href="#stroke0_340_4374" transform="translate(336.907 136.25) scale(0.101025) rotate(68.1223)"/>
<use xlink:href="#stroke0_340_4374" transform="translate(350.072 135.4) scale(0.111884) rotate(92.2438)"/>
<use xlink:href="#stroke0_340_4374" transform="translate(339.856 156.23) scale(0.073316) rotate(168.561)"/>
<use xlink:href="#stroke0_340_4374" transform="translate(329.193 134.564) scale(0.0764725) rotate(64.8106)"/>
<use xlink:href="#stroke0_340_4374" transform="translate(303.306 133.815) scale(0.107087) rotate(-3.35075)"/>
<use xlink:href="#stroke0_340_4374" transform="translate(300.081 163.462) scale(0.10212) rotate(-101.939)"/>
<use xlink:href="#stroke0_340_4374" transform="translate(312.601 164.142) scale(0.0966669) rotate(-162.397)"/>
<use xlink:href="#stroke0_340_4374" transform="translate(301.862 134.043) scale(0.0728584) rotate(53.2105)"/>
<use xlink:href="#stroke0_340_4374" transform="translate(300.679 129.168) scale(0.104072) rotate(63.6766)"/>
<use xlink:href="#stroke0_340_4374" transform="translate(293.907 131.197) scale(0.0930066) rotate(64.6638)"/>
<use xlink:href="#stroke0_340_4374" transform="translate(270.712 165.322) scale(0.108771) rotate(-107.454)"/>
<use xlink:href="#stroke0_340_4374" transform="translate(262.02 145.897) scale(0.0699423) rotate(-40.3654)"/>
<use xlink:href="#stroke0_340_4374" transform="translate(255.473 131.135) scale(0.113069) rotate(2.63213)"/>
<use xlink:href="#stroke0_340_4374" transform="translate(260.245 160.166) scale(0.0694686) rotate(-123.219)"/>
<use xlink:href="#stroke0_340_4374" transform="translate(278.276 145.516) scale(0.109656) rotate(127.564)"/>
<use xlink:href="#stroke0_340_4374" transform="translate(250.038 163.398) scale(0.0849295) rotate(-132.256)"/>
<use xlink:href="#stroke0_340_4374" transform="translate(228.427 140.897) scale(0.0970611) rotate(-26.3391)"/>
<use xlink:href="#stroke0_340_4374" transform="translate(235.664 167.022) scale(0.10539) rotate(-127.325)"/>
<use xlink:href="#stroke0_340_4374" transform="translate(247.017 155.666) scale(0.0866121) rotate(163.162)"/>
<use xlink:href="#stroke0_340_4374" transform="translate(230.607 160.448) scale(0.0705694) rotate(-149.128)"/>
<use xlink:href="#stroke0_340_4374" transform="translate(207.127 149.224) scale(0.0839619) rotate(-53.7198)"/>
<use xlink:href="#stroke0_340_4374" transform="translate(221.17 161.074) scale(0.0744978) rotate(-151.032)"/>
<use xlink:href="#stroke0_340_4374" transform="translate(222.961 133.743) scale(0.0912478) rotate(80.332)"/>
<use xlink:href="#stroke0_340_4374" transform="translate(199.623 134.021) scale(0.0808591) rotate(14.201)"/>
<use xlink:href="#stroke0_340_4374" transform="translate(197.011 160.357) scale(0.0733518) rotate(-116.093)"/>
<use xlink:href="#stroke0_340_4374" transform="translate(198.694 162.073) scale(0.0779456) rotate(-143.245)"/>
<use xlink:href="#stroke0_340_4374" transform="translate(187.544 132.232) scale(0.0838269) rotate(26.7381)"/>
<use xlink:href="#stroke0_340_4374" transform="translate(190.562 164.4) scale(0.0925726) rotate(-151.364)"/>
<use xlink:href="#stroke0_340_4374" transform="translate(194.454 147.586) scale(0.0711774) rotate(133.383)"/>
<use xlink:href="#stroke0_340_4374" transform="translate(175.897 131.894) scale(0.082468) rotate(42.1685)"/>
<use xlink:href="#stroke0_340_4374" transform="translate(162.865 127.367) scale(0.112676) rotate(23.7805)"/>
<use xlink:href="#stroke0_340_4374" transform="translate(179.585 147.601) scale(0.0853997) rotate(133.223)"/>
<use xlink:href="#stroke0_340_4374" transform="translate(167.302 135.265) scale(0.0810666) rotate(79.7606)"/>
<use xlink:href="#stroke0_340_4374" transform="translate(139.199 157.021) scale(0.087379) rotate(-82.3055)"/>
<use xlink:href="#stroke0_340_4374" transform="translate(134.935 142.578) scale(0.0718782) rotate(-25.7516)"/>
<use xlink:href="#stroke0_340_4374" transform="translate(135.318 159.906) scale(0.0765278) rotate(-105.94)"/>
<use xlink:href="#stroke0_340_4374" transform="translate(123.686 138.199) scale(0.0884079) rotate(-13.0625)"/>
<use xlink:href="#stroke0_340_4374" transform="translate(142.271 130.123) scale(0.10957) rotate(75.3445)"/>
<use xlink:href="#stroke0_340_4374" transform="translate(131.282 159.579) scale(0.0707861) rotate(-163.455)"/>
<use xlink:href="#stroke0_340_4374" transform="translate(118.705 128.533) scale(0.101189) rotate(39.46)"/>
<use xlink:href="#stroke0_340_4374" transform="translate(124.305 163.427) scale(0.101879) rotate(-171.989)"/>
<use xlink:href="#stroke0_340_4374" transform="translate(121.243 157.84) scale(0.0922826) rotate(168.606)"/>
<use xlink:href="#stroke0_340_4374" transform="translate(120.954 149.644) scale(0.10807) rotate(138.371)"/>
<use xlink:href="#stroke0_340_4374" transform="translate(84.759 129.857) scale(0.105919) rotate(16.0015)"/>
<use xlink:href="#stroke0_340_4374" transform="translate(108.543 148.346) scale(0.115829) rotate(134.433)"/>
<use xlink:href="#stroke0_340_4374" transform="translate(68.3653 159.763) scale(0.0887823) rotate(-92.7769)"/>
<use xlink:href="#stroke0_340_4374" transform="translate(78.8863 132.005) scale(0.0869967) rotate(58.5415)"/>
<use xlink:href="#stroke0_340_4374" transform="translate(72.8737 160.795) scale(0.0708167) rotate(-152.253)"/>
<use xlink:href="#stroke0_340_4374" transform="translate(78.9169 153.386) scale(0.0815349) rotate(153.397)"/>
<use xlink:href="#stroke0_340_4374" transform="translate(46.6393 155.319) scale(0.0791357) rotate(-73.9854)"/>
<use xlink:href="#stroke0_340_4374" transform="translate(57.3369 133.181) scale(0.0980932) rotate(16.5699)"/>
<use xlink:href="#stroke0_340_4374" transform="translate(83.8191 141.731) scale(0.0829442) rotate(96.3964)"/>
<use xlink:href="#stroke0_340_4374" transform="translate(96.6767 142.807) scale(0.114185) rotate(106.278)"/>
<use xlink:href="#stroke0_340_4374" transform="translate(86.7956 173.909) scale(0.105746) rotate(-144.46)"/>
<use xlink:href="#stroke0_340_4374" transform="translate(102.849 151.692) scale(0.0720063) rotate(116.617)"/>
<use xlink:href="#stroke0_340_4374" transform="translate(108.656 139.234) scale(0.116828) rotate(78.9673)"/>
<use xlink:href="#stroke0_340_4374" transform="translate(111.906 168.382) scale(0.0748016) rotate(175.77)"/>
<use xlink:href="#stroke0_340_4374" transform="translate(112.87 180.203) scale(0.108408) rotate(-153.322)"/>
<use xlink:href="#stroke0_340_4374" transform="translate(130.764 162.686) scale(0.0927776) rotate(132.669)"/>
<use xlink:href="#stroke0_340_4374" transform="translate(121.902 150.471) scale(0.078663) rotate(56.8418)"/>
<use xlink:href="#stroke0_340_4374" transform="translate(104.073 161.938) scale(0.108141) rotate(-31.6264)"/>
<use xlink:href="#stroke0_340_4374" transform="translate(144.779 179.034) scale(0.0932098) rotate(163.804)"/>
<use xlink:href="#stroke0_340_4374" transform="translate(129.55 159.317) scale(0.072732) rotate(21.4259)"/>
<use xlink:href="#stroke0_340_4374" transform="translate(144.486 156.253) scale(0.100207) rotate(57.9163)"/>
<use xlink:href="#stroke0_340_4374" transform="translate(143.626 158.057) scale(0.104154) rotate(37.8681)"/>
<use xlink:href="#stroke0_340_4374" transform="translate(135.298 188.113) scale(0.089566) rotate(-72.2578)"/>
<use xlink:href="#stroke0_340_4374" transform="translate(140.075 199.754) scale(0.114416) rotate(-90.464)"/>
<use xlink:href="#stroke0_340_4374" transform="translate(168.069 207.159) scale(0.101919) rotate(-157.632)"/>
<use xlink:href="#stroke0_340_4374" transform="translate(146.888 194.41) scale(0.10646) rotate(-51.7682)"/>
<use xlink:href="#stroke0_340_4374" transform="translate(166.421 208.255) scale(0.0732699) rotate(-113.469)"/>
<use xlink:href="#stroke0_340_4374" transform="translate(163.61 184.671) scale(0.100314) rotate(-1.83039)"/>
<use xlink:href="#stroke0_340_4374" transform="translate(197.227 204.076) scale(0.0817124) rotate(145.215)"/>
<use xlink:href="#stroke0_340_4374" transform="translate(172.286 195.65) scale(0.0876463) rotate(-20.1106)"/>
<use xlink:href="#stroke0_340_4374" transform="translate(190.408 192.321) scale(0.0695903) rotate(37.8436)"/>
<use xlink:href="#stroke0_340_4374" transform="translate(184.081 222.093) scale(0.0982984) rotate(-96.223)"/>
<use xlink:href="#stroke0_340_4374" transform="translate(210.225 201.641) scale(0.0704229) rotate(88.0324)"/>
<use xlink:href="#stroke0_340_4374" transform="translate(213.72 224.507) scale(0.0748501) rotate(-177.326)"/>
<use xlink:href="#stroke0_340_4374" transform="translate(211.569 231.355) scale(0.0792088) rotate(-148.866)"/>
<use xlink:href="#stroke0_340_4374" transform="translate(200.274 211.384) scale(0.0787008) rotate(-11.7616)"/>
<use xlink:href="#stroke0_340_4374" transform="translate(201.093 227.847) scale(0.0824573) rotate(-62.9131)"/>
<use xlink:href="#stroke0_340_4374" transform="translate(235.035 220.029) scale(0.0901304) rotate(106.085)"/>
<use xlink:href="#stroke0_340_4374" transform="translate(236.991 239.019) scale(0.0811168) rotate(160.894)"/>
<use xlink:href="#stroke0_340_4374" transform="translate(236.459 226.746) scale(0.0695224) rotate(91.2155)"/>
<use xlink:href="#stroke0_340_4374" transform="translate(210.019 244.092) scale(0.110334) rotate(-58.9291)"/>
<use xlink:href="#stroke0_340_4374" transform="translate(239.993 261.477) scale(0.0927704) rotate(-154.827)"/>
<use xlink:href="#stroke0_340_4374" transform="translate(245.96 236.642) scale(0.0767785) rotate(75.0736)"/>
<use xlink:href="#stroke0_340_4374" transform="translate(258.798 261.085) scale(0.0987451) rotate(157.939)"/>
<use xlink:href="#stroke0_340_4374" transform="translate(227.061 263.097) scale(0.104703) rotate(-61.766)"/>
<use xlink:href="#stroke0_340_4374" transform="translate(266.449 252.059) scale(0.101667) rotate(98.1202)"/>
<use xlink:href="#stroke0_340_4374" transform="translate(270.596 273.577) scale(0.0886199) rotate(155.437)"/>
<use xlink:href="#stroke0_340_4374" transform="translate(279.077 261.471) scale(0.110333) rotate(106.436)"/>
<use xlink:href="#stroke0_340_4374" transform="translate(265.093 288.155) scale(0.109224) rotate(-143.305)"/>
<use xlink:href="#stroke0_340_4374" transform="translate(280.002 265.357) scale(0.0986879) rotate(146.198)"/>
<use xlink:href="#stroke0_340_4374" transform="translate(246.334 263.526) scale(0.0889063) rotate(-77.2145)"/>
<use xlink:href="#stroke0_340_4374" transform="translate(269.452 231.058) scale(0.107383) rotate(71.2612)"/>
<use xlink:href="#stroke0_340_4374" transform="translate(245.749 249.299) scale(0.0765607) rotate(-72.6563)"/>
<use xlink:href="#stroke0_340_4374" transform="translate(245.762 230.834) scale(0.0756592) rotate(-15.866)"/>
<use xlink:href="#stroke0_340_4374" transform="translate(271.657 238.01) scale(0.0808763) rotate(150.795)"/>
<use xlink:href="#stroke0_340_4374" transform="translate(259.397 206.09) scale(0.112975) rotate(51.7888)"/>
<use xlink:href="#stroke0_340_4374" transform="translate(275.305 216.97) scale(0.10939) rotate(124.059)"/>
<use xlink:href="#stroke0_340_4374" transform="translate(257.816 231.351) scale(0.0963122) rotate(-149.934)"/>
<use xlink:href="#stroke0_340_4374" transform="translate(238.179 219.428) scale(0.100097) rotate(-86.7074)"/>
<use xlink:href="#stroke0_340_4374" transform="translate(267.103 205.101) scale(0.0831412) rotate(145.788)"/>
<use xlink:href="#stroke0_340_4374" transform="translate(261.612 182.053) scale(0.0931327) rotate(80.4079)"/>
<use xlink:href="#stroke0_340_4374" transform="translate(247.346 169.313) scale(0.108284) rotate(35.771)"/>
<use xlink:href="#stroke0_340_4374" transform="translate(247.544 202.107) scale(0.101669) rotate(-133.346)"/>
<use xlink:href="#stroke0_340_4374" transform="translate(263.787 186.184) scale(0.0984619) rotate(163.875)"/>
<use xlink:href="#stroke0_340_4374" transform="translate(227.507 171.944) scale(0.103181) rotate(-52.3215)"/>
<use xlink:href="#stroke0_340_4374" transform="translate(265.163 163.738) scale(0.101368) rotate(133.009)"/>
<use xlink:href="#stroke0_340_4374" transform="translate(265.449 164.817) scale(0.115733) rotate(154.442)"/>
<use xlink:href="#stroke0_340_4374" transform="translate(224.896 145.237) scale(0.105349) rotate(-34.1264)"/>
<use xlink:href="#stroke0_340_4374" transform="translate(233.626 162.423) scale(0.117043) rotate(-110.708)"/>
<use xlink:href="#stroke0_340_4374" transform="translate(227.587 139.49) scale(0.0819532) rotate(-59.1056)"/>
<use xlink:href="#stroke0_340_4374" transform="translate(231.141 118.378) scale(0.0877805) rotate(1.79776)"/>
<use xlink:href="#stroke0_340_4374" transform="translate(254.792 140.294) scale(0.110404) rotate(-178.298)"/>
<use xlink:href="#stroke0_340_4374" transform="translate(225.836 124.159) scale(0.0807919) rotate(-68.7558)"/>
<use xlink:href="#stroke0_340_4374" transform="translate(249.625 94.4687) scale(0.111016) rotate(73.6067)"/>
<use xlink:href="#stroke0_340_4374" transform="translate(223.84 109.46) scale(0.0753625) rotate(-58.7178)"/>
<use xlink:href="#stroke0_340_4374" transform="translate(243.051 121.132) scale(0.113637) rotate(-154.475)"/>
<use xlink:href="#stroke0_340_4374" transform="translate(249.368 91.8299) scale(0.0745323) rotate(121.093)"/>
<use xlink:href="#stroke0_340_4374" transform="translate(215.094 78.6811) scale(0.115911) rotate(-20.0195)"/>
<use xlink:href="#stroke0_340_4374" transform="translate(236.768 100.382) scale(0.0997576) rotate(-146.91)"/>
<use xlink:href="#stroke0_340_4374" transform="translate(237.631 94.2249) scale(0.103197) rotate(-151.533)"/>
<use xlink:href="#stroke0_340_4374" transform="translate(219.199 72.3222) scale(0.0702613) rotate(-58.101)"/>
<use xlink:href="#stroke0_340_4374" transform="translate(247.089 59.8216) scale(0.0852155) rotate(114.712)"/>
<use xlink:href="#stroke0_340_4374" transform="translate(214.731 69.6634) scale(0.10527) rotate(-80.511)"/>
<use xlink:href="#stroke0_340_4374" transform="translate(214.818 42.3688) scale(0.0996891) rotate(-15.8095)"/>
<use xlink:href="#stroke0_340_4374" transform="translate(219.638 37.719) scale(0.0740337) rotate(-7.70109)"/>
<use xlink:href="#stroke0_340_4374" transform="translate(223.495 28.6418) scale(0.0812923) rotate(25.4398)"/>
<use xlink:href="#stroke0_340_4374" transform="translate(226.806 30.9076) scale(0.0842222) rotate(53.3272)"/>
<use xlink:href="#stroke0_340_4374" transform="translate(239.546 55.4261) scale(0.107674) rotate(145.316)"/>
<use xlink:href="#stroke0_340_4374" transform="translate(197.087 64.9111) scale(0.107578) rotate(-71.2398)"/>
<use xlink:href="#stroke0_340_4374" transform="translate(225.581 67.3937) scale(0.0735716) rotate(156.855)"/>
<use xlink:href="#stroke0_340_4374" transform="translate(228.949 65.1377) scale(0.0976774) rotate(127.9)"/>
<use xlink:href="#stroke0_340_4374" transform="translate(201.172 92.1438) scale(0.108495) rotate(-117.792)"/>
<use xlink:href="#stroke0_340_4374" transform="translate(200.564 98.2073) scale(0.104172) rotate(-122.94)"/>
<use xlink:href="#stroke0_340_4374" transform="translate(188.392 74.1785) scale(0.0967283) rotate(-10.3045)"/>
<use xlink:href="#stroke0_340_4374" transform="translate(181.624 85.9596) scale(0.104354) rotate(-31.9257)"/>
<use xlink:href="#stroke0_340_4374" transform="translate(211.773 102.186) scale(0.0763389) rotate(155.915)"/>
<use xlink:href="#stroke0_340_4374" transform="translate(213.367 95.7377) scale(0.0946862) rotate(113.584)"/>
<use xlink:href="#stroke0_340_4374" transform="translate(188.149 125.179) scale(0.0992719) rotate(-118.42)"/>
<use xlink:href="#stroke0_340_4374" transform="translate(177.704 113.975) scale(0.0763411) rotate(-52.4276)"/>
<use xlink:href="#stroke0_340_4374" transform="translate(208.985 111.755) scale(0.106776) rotate(114.529)"/>
<use xlink:href="#stroke0_340_4374" transform="translate(178.216 114.05) scale(0.0701961) rotate(-2.64632)"/>
<use xlink:href="#stroke0_340_4374" transform="translate(184.76 113.096) scale(0.0776701) rotate(38.6282)"/>
<use xlink:href="#stroke0_340_4374" transform="translate(200.279 139.461) scale(0.0946443) rotate(154.648)"/>
<use xlink:href="#stroke0_340_4374" transform="translate(163.147 135.774) scale(0.0969359) rotate(-38.6766)"/>
<use xlink:href="#stroke0_340_4374" transform="translate(171.024 165.423) scale(0.116412) rotate(-117.241)"/>
<use xlink:href="#stroke0_340_4374" transform="translate(185.332 140.842) scale(0.0696963) rotate(87.4507)"/>
<use xlink:href="#stroke0_340_4374" transform="translate(166.686 136.981) scale(0.104077) rotate(21.6257)"/>
<use xlink:href="#stroke0_340_4374" transform="translate(179.55 171.694) scale(0.0732177) rotate(-173.027)"/>
<use xlink:href="#stroke0_340_4374" transform="translate(180.76 149.046) scale(0.108265) rotate(77.8976)"/>
<use xlink:href="#stroke0_340_4374" transform="translate(178.014 190.343) scale(0.114826) rotate(-170.782)"/>
<use xlink:href="#stroke0_340_4374" transform="translate(169.612 189.713) scale(0.0714241) rotate(-164.247)"/>
<use xlink:href="#stroke0_340_4374" transform="translate(177.912 181.178) scale(0.0882637) rotate(128.846)"/>
<use xlink:href="#stroke0_340_4374" transform="translate(145.747 175.914) scale(0.0926835) rotate(-5.3218)"/>
<use xlink:href="#stroke0_340_4374" transform="translate(173.013 197.667) scale(0.0923235) rotate(148.542)"/>
<use xlink:href="#stroke0_340_4374" transform="translate(141.576 192.539) scale(0.0709391) rotate(-24.6274)"/>
<use xlink:href="#stroke0_340_4374" transform="translate(162.011 221.008) scale(0.110972) rotate(-167.559)"/>
<use xlink:href="#stroke0_340_4374" transform="translate(161.616 214.953) scale(0.0765282) rotate(160.075)"/>
<use xlink:href="#stroke0_340_4374" transform="translate(162.341 224.464) scale(0.103172) rotate(167.009)"/>
<use xlink:href="#stroke0_340_4374" transform="translate(155.892 210.509) scale(0.0781488) rotate(98.9828)"/>
<use xlink:href="#stroke0_340_4374" transform="translate(127.442 215.559) scale(0.0843227) rotate(-17.6576)"/>
<use xlink:href="#stroke0_340_4374" transform="translate(121.787 215.383) scale(0.114126) rotate(-7.68255)"/>
<use xlink:href="#stroke0_340_4374" transform="translate(142.246 221.776) scale(0.0760131) rotate(70.3851)"/>
<use xlink:href="#stroke0_340_4374" transform="translate(146.195 226.833) scale(0.0965753) rotate(89.5021)"/>
<use xlink:href="#stroke0_340_4374" transform="translate(149.775 232.379) scale(0.110797) rotate(104.451)"/>
<use xlink:href="#stroke0_340_4374" transform="translate(147.233 231.792) scale(0.0707882) rotate(103.88)"/>
<use xlink:href="#stroke0_340_4374" transform="translate(151.286 221.901) scale(0.092522) rotate(86.269)"/>
<use xlink:href="#stroke0_340_4374" transform="translate(155.071 236.54) scale(0.0704522) rotate(157.852)"/>
<use xlink:href="#stroke0_340_4374" transform="translate(157.287 238.226) scale(0.0806213) rotate(177.538)"/>
<use xlink:href="#stroke0_340_4374" transform="translate(150.951 240.727) scale(0.0904159) rotate(-139.088)"/>
<use xlink:href="#stroke0_340_4374" transform="translate(140.753 205.649) scale(0.103688) rotate(-3.04112)"/>
<use xlink:href="#stroke0_340_4374" transform="translate(170.735 208.982) scale(0.0714976) rotate(104.818)"/>
<use xlink:href="#stroke0_340_4374" transform="translate(143.317 208.821) scale(0.104167) rotate(-39.7455)"/>
<use xlink:href="#stroke0_340_4374" transform="translate(181.653 192.378) scale(0.105846) rotate(87.4435)"/>
<use xlink:href="#stroke0_340_4374" transform="translate(188.561 209.593) scale(0.0953547) rotate(157.573)"/>
<use xlink:href="#stroke0_340_4374" transform="translate(167.342 208.707) scale(0.0718131) rotate(-97.4394)"/>
<use xlink:href="#stroke0_340_4374" transform="translate(186.299 180.268) scale(0.0844748) rotate(67.8187)"/>
<use xlink:href="#stroke0_340_4374" transform="translate(202.132 193.478) scale(0.0986711) rotate(141.816)"/>
<use xlink:href="#stroke0_340_4374" transform="translate(194.715 171.598) scale(0.0861142) rotate(67.5716)"/>
<use xlink:href="#stroke0_340_4374" transform="translate(187.789 198.387) scale(0.0872086) rotate(-122.954)"/>
<use xlink:href="#stroke0_340_4374" transform="translate(187.687 164.616) scale(0.0848298) rotate(12.8027)"/>
<use xlink:href="#stroke0_340_4374" transform="translate(201.391 158.193) scale(0.0870873) rotate(49.1963)"/>
<use xlink:href="#stroke0_340_4374" transform="translate(211.01 159.466) scale(0.0732184) rotate(77.4325)"/>
<use xlink:href="#stroke0_340_4374" transform="translate(215.073 181.736) scale(0.0890566) rotate(-166.701)"/>
<use xlink:href="#stroke0_340_4374" transform="translate(207.542 177.841) scale(0.0790533) rotate(-125.663)"/>
<use xlink:href="#stroke0_340_4374" transform="translate(233.469 166.598) scale(0.10761) rotate(155.147)"/>
<use xlink:href="#stroke0_340_4374" transform="translate(235.082 141.327) scale(0.106378) rotate(93.8444)"/>
<use xlink:href="#stroke0_340_4374" transform="translate(209.221 148.198) scale(0.0763743) rotate(-40.9016)"/>
<use xlink:href="#stroke0_340_4374" transform="translate(213.935 134.38) scale(0.0894648) rotate(-5.9985)"/>
<use xlink:href="#stroke0_340_4374" transform="translate(236.466 151.706) scale(0.0825485) rotate(-178.54)"/>
<use xlink:href="#stroke0_340_4374" transform="translate(239.22 129.037) scale(0.0770102) rotate(109.103)"/>
<use xlink:href="#stroke0_340_4374" transform="translate(213.288 142.152) scale(0.0943983) rotate(-92.8624)"/>
<use xlink:href="#stroke0_340_4374" transform="translate(239.127 138.466) scale(0.109621) rotate(-178.16)"/>
<use xlink:href="#stroke0_340_4374" transform="translate(210.661 119.562) scale(0.078857) rotate(-57.8664)"/>
<use xlink:href="#stroke0_340_4374" transform="translate(210.837 112.678) scale(0.0749109) rotate(-50.4332)"/>
<use xlink:href="#stroke0_340_4374" transform="translate(221.782 120.837) scale(0.0738411) rotate(-126.473)"/>
<use xlink:href="#stroke0_340_4374" transform="translate(225.306 117.902) scale(0.0838391) rotate(-144.766)"/>
<use xlink:href="#stroke0_340_4374" transform="translate(200.521 102.069) scale(0.111695) rotate(-62.6994)"/>
<use xlink:href="#stroke0_340_4374" transform="translate(204.379 93.2475) scale(0.0725053) rotate(-23.4275)"/>
<use xlink:href="#stroke0_340_4374" transform="translate(215.637 88.2001) scale(0.080483) rotate(44.1165)"/>
<use xlink:href="#stroke0_340_4374" transform="translate(203.894 117.012) scale(0.0714154) rotate(-88.4954)"/>
<use xlink:href="#stroke0_340_4374" transform="translate(197.129 115.968) scale(0.08476) rotate(-57.901)"/>
<use xlink:href="#stroke0_340_4374" transform="translate(217.561 134.305) scale(0.0895274) rotate(-157.53)"/>
<use xlink:href="#stroke0_340_4374" transform="translate(209.825 110.065) scale(0.0713861) rotate(39.285)"/>
<use xlink:href="#stroke0_340_4374" transform="translate(198.355 117.061) scale(0.0853326) rotate(-2.09557)"/>
<use xlink:href="#stroke0_340_4374" transform="translate(196.312 137.612) scale(0.0702099) rotate(-65.719)"/>
<use xlink:href="#stroke0_340_4374" transform="translate(220.12 123.913) scale(0.101792) rotate(81.8988)"/>
<use xlink:href="#stroke0_340_4374" transform="translate(219.098 159.785) scale(0.0997784) rotate(-176.696)"/>
<use xlink:href="#stroke0_340_4374" transform="translate(202.171 164.515) scale(0.0758057) rotate(-119.723)"/>
<use xlink:href="#stroke0_340_4374" transform="translate(195.578 144.062) scale(0.0839258) rotate(1.52051)"/>
<use xlink:href="#stroke0_340_4374" transform="translate(219.034 150.331) scale(0.0918525) rotate(92.3122)"/>
<use xlink:href="#stroke0_340_4374" transform="translate(217.936 159.759) scale(0.073761) rotate(101.919)"/>
<use xlink:href="#stroke0_340_4374" transform="translate(216.595 154.274) scale(0.112332) rotate(71.5754)"/>
<use xlink:href="#stroke0_340_4374" transform="translate(200.883 163.093) scale(0.0918867) rotate(23.0691)"/>
<use xlink:href="#stroke0_340_4374" transform="translate(205.103 199.543) scale(0.078209) rotate(-130.088)"/>
<use xlink:href="#stroke0_340_4374" transform="translate(216.952 201.844) scale(0.0815974) rotate(-177.012)"/>
<use xlink:href="#stroke0_340_4374" transform="translate(189.846 183.275) scale(0.116081) rotate(-13.7368)"/>
<use xlink:href="#stroke0_340_4374" transform="translate(231.051 183.248) scale(0.105487) rotate(114.71)"/>
<use xlink:href="#stroke0_340_4374" transform="translate(209.238 169.121) scale(0.0892146) rotate(19.1646)"/>
<use xlink:href="#stroke0_340_4374" transform="translate(232.225 177.906) scale(0.0696721) rotate(120.549)"/>
<use xlink:href="#stroke0_340_4374" transform="translate(224.698 198.025) scale(0.114016) rotate(-140.301)"/>
<use xlink:href="#stroke0_340_4374" transform="translate(241.231 187.485) scale(0.101441) rotate(-176.149)"/>
<use xlink:href="#stroke0_340_4374" transform="translate(219.735 177.722) scale(0.0891591) rotate(-73.6338)"/>
<use xlink:href="#stroke0_340_4374" transform="translate(237.369 154.834) scale(0.0746315) rotate(32.7307)"/>
<use xlink:href="#stroke0_340_4374" transform="translate(248.874 148.328) scale(0.102466) rotate(53.2831)"/>
<use xlink:href="#stroke0_340_4374" transform="translate(261.036 175.108) scale(0.071771) rotate(174.041)"/>
<use xlink:href="#stroke0_340_4374" transform="translate(240.458 179.599) scale(0.115774) rotate(-89.009)"/>
<use xlink:href="#stroke0_340_4374" transform="translate(285.212 164.014) scale(0.112583) rotate(133.812)"/>
<use xlink:href="#stroke0_340_4374" transform="translate(266.784 145.097) scale(0.0939967) rotate(30.8368)"/>
<use xlink:href="#stroke0_340_4374" transform="translate(269.558 173.688) scale(0.0723158) rotate(-110.287)"/>
<use xlink:href="#stroke0_340_4374" transform="translate(289.935 147.512) scale(0.0847626) rotate(78.1233)"/>
<use xlink:href="#stroke0_340_4374" transform="translate(287.495 173.269) scale(0.0730928) rotate(-144.785)"/>
<use xlink:href="#stroke0_340_4374" transform="translate(286.571 140.544) scale(0.0987058) rotate(35.6746)"/>
<use xlink:href="#stroke0_340_4374" transform="translate(284.484 141.663) scale(0.102549) rotate(48.0428)"/>
<use xlink:href="#stroke0_340_4374" transform="translate(288.398 170.99) scale(0.0745228) rotate(170.384)"/>
<use xlink:href="#stroke0_340_4374" transform="translate(275.818 142.629) scale(0.114995) rotate(54.7745)"/>
<use xlink:href="#stroke0_340_4374" transform="translate(284.337 158.986) scale(0.111969) rotate(114.777)"/>
<use xlink:href="#stroke0_340_4374" transform="translate(265.401 148.541) scale(0.107035) rotate(66.2496)"/>
<use xlink:href="#stroke0_340_4374" transform="translate(268.382 179.433) scale(0.110553) rotate(164.157)"/>
<use xlink:href="#stroke0_340_4374" transform="translate(222.707 162.515) scale(0.116674) rotate(-27.0679)"/>
<use xlink:href="#stroke0_340_4374" transform="translate(254.554 182.622) scale(0.113758) rotate(163.891)"/>
<use xlink:href="#stroke0_340_4374" transform="translate(250.266 171.646) scale(0.112804) rotate(129.49)"/>
<use xlink:href="#stroke0_340_4374" transform="translate(207.936 165.211) scale(0.090356) rotate(-16.2017)"/>
<use xlink:href="#stroke0_340_4374" transform="translate(232.927 182.636) scale(0.0955456) rotate(158.5)"/>
<use xlink:href="#stroke0_340_4374" transform="translate(217.793 191.249) scale(0.091882) rotate(-161.374)"/>
<use xlink:href="#stroke0_340_4374" transform="translate(198.842 164.226) scale(0.0700202) rotate(12.7087)"/>
<use xlink:href="#stroke0_340_4374" transform="translate(183.242 172.196) scale(0.091987) rotate(-35.8873)"/>
<use xlink:href="#stroke0_340_4374" transform="translate(187.421 164.416) scale(0.0701778) rotate(7.50664)"/>
<use xlink:href="#stroke0_340_4374" transform="translate(192.553 193.154) scale(0.0992055) rotate(-145.972)"/>
<use xlink:href="#stroke0_340_4374" transform="translate(199.298 188) scale(0.115399) rotate(173.869)"/>
<use xlink:href="#stroke0_340_4374" transform="translate(156.961 177.939) scale(0.104069) rotate(-62.8078)"/>
<use xlink:href="#stroke0_340_4374" transform="translate(153.177 183.605) scale(0.105503) rotate(-83.5578)"/>
<use xlink:href="#stroke0_340_4374" transform="translate(154.314 185.538) scale(0.0878096) rotate(-105.487)"/>
<path d="M31.4511 154.339C27.318 153.318 23.2597 152.365 19.2758 151.435C13.7583 150.069 8.5334 149.178 2.76243 146.938C2.69663 146.911 2.60893 146.878 2.42345 146.792C2.33549 146.751 2.21845 146.697 2.02051 146.582C1.91747 146.521 1.82989 146.47 1.65316 146.342C1.45505 146.194 1.19715 145.997 0.869601 145.593C0.685751 145.415 -0.277909 143.976 0.0780127 142.377C0.26096 141.533 0.515752 141.172 0.751059 140.824C0.994214 140.488 1.23973 140.253 1.45447 140.076C1.67035 139.899 1.85903 139.778 2.02306 139.684C2.12168 139.628 2.19802 139.588 2.27617 139.55C2.42958 139.475 2.56002 139.422 2.6763 139.379C2.78979 139.337 2.90348 139.3 2.98004 139.277C3.03932 139.259 3.09516 139.243 3.14857 139.229C3.25535 139.2 3.35265 139.177 3.44579 139.157C4.0437 139.031 4.37581 138.998 4.72718 138.952C5.44147 138.867 5.99886 138.814 6.65164 138.757C7.88163 138.65 9.03141 138.563 10.255 138.475C12.6185 138.303 14.9861 138.144 17.38 137.985C22.0866 137.67 26.9344 137.356 31.7858 137.054C41.5842 136.448 51.6369 135.883 62.8233 135.505C69.5149 135.277 76.559 135.121 84.0796 135.072C128.666 134.791 135.327 136.555 186.346 135.273C237.34 133.995 288.431 134.41 311.087 133.237C311.362 133.223 311.632 133.209 311.899 133.196C333.979 132.29 336.39 133.747 368.72 133.964C370.074 134.055 371.475 134.14 373.099 134.518C373.469 134.609 374.015 134.764 374.536 135.012C374.837 135.155 375.25 135.387 375.629 135.727C376.071 136.11 376.681 136.889 376.818 137.909C376.89 138.41 376.843 138.904 376.734 139.315C376.642 139.665 376.523 139.935 376.392 140.181C376.102 140.7 375.898 140.92 375.681 141.165C375.193 141.678 374.94 141.865 374.55 142.165C371.996 143.958 369.928 144.857 367.751 145.966C346.025 156.371 330.037 163.204 308.715 173.221C299.858 177.369 284.791 184.812 267.974 193.921C236.375 210.985 198.743 233.938 181.562 245.253C164.897 256.217 146.28 267.404 130.173 276.955C120.78 282.52 112.295 287.479 105.475 291.537C101.946 293.613 98.9434 295.452 96.1083 296.834C94.9521 297.363 93.8774 297.878 92.8628 298.347C92.298 298.61 91.7359 298.854 91.1924 299.055C89.5515 299.651 88.7448 299.731 88.6957 299.6C88.6956 299.6 88.6956 299.6 88.6956 299.599C88.6274 299.41 89.7732 298.906 91.7267 297.983C91.9755 297.861 92.2258 297.732 92.4819 297.598C93.4878 297.072 94.5432 296.503 95.6601 295.931C104.261 290.856 115.565 283.228 128.599 274.451C129.111 274.104 129.632 273.75 130.164 273.389C159.489 253.532 163.349 252.529 203.801 227.12C227.075 212.62 245.022 201.389 265.616 189.656C280.931 180.973 297.69 172.065 319.399 161.876C338.387 152.964 352.033 146.626 364.914 140.086C367.032 138.984 369.415 137.763 370.689 136.749C370.812 136.649 370.887 136.545 370.764 136.67C370.722 136.719 370.551 136.902 370.382 137.324C370.204 137.67 370.055 138.815 370.405 139.578C370.717 140.357 371.198 140.729 371.346 140.846C371.548 140.997 371.639 141.033 371.651 141.045C371.693 141.07 371.542 141.023 371.373 140.992C370.626 140.842 369.36 140.737 368.236 140.685C363.457 140.484 358.108 140.627 352.565 140.736C341.311 140.987 328.328 141.321 312.045 141.41C304.125 141.455 295.404 141.447 285.678 141.373C206.387 140.763 198.115 144.511 119.154 146.341C101.212 146.759 82.1724 147.069 63.0399 147.327C52.9796 147.464 43.0092 147.583 33.0345 147.713C28.0425 147.779 23.1384 147.844 18.1753 147.931C15.7137 147.974 13.2621 148.022 10.853 148.087C9.63408 148.121 8.46975 148.156 7.30111 148.209C6.69794 148.237 6.15846 148.266 5.67369 148.305C5.47607 148.319 5.18407 148.359 5.31541 148.334C5.34205 148.329 5.38433 148.32 5.44882 148.303C5.52983 148.281 5.54426 148.283 5.78226 148.205C5.8876 148.169 6.0163 148.122 6.17995 148.05C6.26181 148.014 6.35251 147.971 6.4539 147.919C6.5046 147.893 6.55797 147.865 6.61425 147.833C6.66664 147.804 6.8112 147.72 6.92531 147.645C7.39413 147.325 8.14423 146.789 8.77944 145.563C9.11405 144.973 9.46987 143.602 9.32781 142.584C9.2247 141.529 8.80492 140.68 8.49951 140.211C7.50479 138.803 6.99516 138.722 6.82854 138.57C6.60492 138.436 6.50649 138.393 6.45627 138.368C6.35122 138.319 6.38682 138.338 6.46586 138.373C10.5571 140.188 16.2161 141.464 21.325 142.779C37.5854 146.759 53.308 150.241 67.5891 153.68C87.4221 157.95 99.1371 170.171 109.691 176.526C111.598 177.834 113.546 179.175 115.576 180.575C149.923 204.3 193.52 234.657 239.465 267.62C245.041 271.627 250.557 275.609 256.148 279.681C263.116 284.851 270.104 289.537 277.616 295.876C278.294 296.488 278.953 297.118 279.539 297.667C279.822 297.934 280.117 298.199 280.227 298.286C280.25 298.305 280.257 298.308 280.214 298.279C280.167 298.249 280.087 298.183 279.778 298.041C279.465 297.954 278.862 297.474 277.089 297.838C276.223 298.042 275.362 298.646 274.939 299.151C274.494 299.664 274.327 300.044 274.209 300.322C274.03 300.778 274.012 300.987 273.991 301.108C273.975 301.222 273.975 301.254 273.975 301.256C273.975 301.253 273.977 301.144 273.974 301.016C273.968 300.755 273.948 300.406 273.925 300.056C273.878 299.355 273.816 298.582 273.754 297.829C273.627 296.302 273.496 294.763 273.367 293.213C273.108 290.1 272.861 286.993 272.621 283.835C270.915 258.277 267.477 231.887 262.173 205.508C255.862 174.154 247.907 142.695 241.343 112.422C239.318 103.093 237.224 93.247 235.283 83.0282C231.236 61.6446 227.902 38.5538 227.149 15.586C227.073 13.6273 227.004 11.7064 226.941 9.76421C226.909 8.78683 226.88 7.82695 226.852 6.85422C226.838 6.37295 226.825 5.88781 226.81 5.41939C226.803 5.18177 226.795 4.95212 226.786 4.74291C226.782 4.64004 226.776 4.54015 226.774 4.50214C226.777 4.49878 226.763 4.45388 226.805 4.67861C226.827 4.76865 226.817 4.77954 226.917 5.08098C226.941 5.1501 226.972 5.23025 227.015 5.32607C227.066 5.43251 227.08 5.48967 227.259 5.77543C227.423 6.02205 227.671 6.35799 228.155 6.69733C228.279 6.78196 228.403 6.85833 228.567 6.94029C228.776 7.0441 229.012 7.13336 229.264 7.19422C229.767 7.31973 230.319 7.312 230.765 7.21096C231.743 6.95296 231.927 6.69777 232.184 6.51552C232.412 6.32332 232.544 6.16827 232.644 6.04567C232.79 5.85953 232.844 5.76627 232.896 5.67981C232.988 5.52224 232.999 5.48871 233.021 5.44571C230.635 10.9288 227.75 16.375 225.05 21.6697C209.109 52.1135 195.063 80.7679 185.098 101.958C183.306 105.752 181.622 109.343 180.091 112.615C159.547 156.712 154.876 167.627 136.128 210.561C133.073 217.521 129.621 225.211 125.879 233.225C116.393 253.528 104.876 276.198 92.9049 295.145C92.8336 295.259 92.7633 295.372 92.6938 295.483C84.9061 307.856 85.4244 305.833 91.7167 294.451C92.2079 293.558 92.7363 292.603 93.3012 291.582C104.492 271.296 112.96 254.259 117.408 243.161C119.117 238.854 120.61 235.022 122.022 231.429C127.839 216.54 132.227 206.152 142.789 184.234C155.855 157.048 159.582 143.144 166.958 127.172C171.005 118.431 173.129 114.689 180.164 99.7104C186.05 87.3279 195.142 67.1378 212.941 30.7041C214.963 26.5678 216.963 22.5109 218.884 18.578C221.598 12.9595 224.203 7.77203 226.434 2.33055C226.477 2.24204 226.5 2.18306 226.638 1.94745C226.721 1.81477 226.766 1.72178 227.014 1.41889C227.157 1.25124 227.347 1.04023 227.68 0.789323C227.763 0.726954 227.856 0.662591 227.96 0.597672C228.074 0.528587 228.144 0.483284 228.373 0.373797C228.771 0.186418 229.313 0.0191536 229.936 0.00193167C230.556 -0.0206335 231.224 0.130123 231.741 0.379879C232.171 0.587137 232.428 0.782045 232.669 0.991246C233.133 1.40633 233.355 1.76429 233.509 2.03294C233.709 2.40101 233.761 2.57061 233.823 2.74925C233.882 2.93347 233.896 3.00025 233.916 3.07739C233.934 3.15173 233.947 3.21539 233.958 3.27241C234.025 3.6397 234.025 3.72656 234.039 3.85171C234.06 4.07681 234.068 4.20362 234.078 4.35791C234.096 4.64286 234.109 4.88733 234.122 5.14163C234.148 5.64233 234.172 6.13253 234.197 6.61779C234.246 7.58991 234.296 8.56153 234.347 9.51706C234.45 11.4381 234.558 13.3198 234.67 15.2129C236.157 41.3624 240.214 62.9562 243.977 81.2807C249.335 106.419 254.198 125.49 257.976 141.226C261.558 156.123 266.817 178.395 271.65 203.648C276.497 228.835 279.978 257.144 281.699 283.158C282.118 288.73 282.616 294.009 283.078 299.501C283.107 299.899 283.135 300.306 283.15 300.808C283.157 301.062 283.162 301.335 283.146 301.71C283.103 302.109 283.178 302.532 282.722 303.777C282.566 304.151 282.352 304.612 281.868 305.185C281.393 305.76 280.508 306.422 279.545 306.692C277.547 307.193 276.643 306.643 276.115 306.47C275.094 306.002 274.865 305.745 274.536 305.509C273.965 305.056 273.638 304.744 273.289 304.426C272.621 303.808 272.038 303.26 271.432 302.72C261.697 294.847 247.887 285.46 233.901 275.439C191.051 245.073 138.954 208.304 109.981 188.624C107.932 187.232 106.036 185.953 104.294 184.786C83.6635 171.004 75.7986 165.341 65.3826 163.179C56.5024 160.745 47.7052 158.34 31.4511 154.339Z" fill="#080810"/>
<defs>
<g id="stroke0_340_4374" data-figma-scatter-ref="stroke0_340_4374_ref" data-figma-scatter="f0.25_w0_aj180_sj0.3_r0_s1501975904620845502_sw25">
<path d="M161.622 271.62C162.801 270.44 165.001 270.908 165.598 272.466C166.28 274.243 164.308 276.953 162.333 276.953C160.932 276.952 160.386 272.855 161.622 271.62ZM125.347 271.526C126.214 268.071 129.955 267.913 129.955 271.331C129.955 274.319 127.339 276.737 125.786 275.184C125.188 274.586 124.991 272.944 125.347 271.526ZM90.9548 269.953C92.4998 269.953 93.222 272.086 92.068 273.24C90.688 274.62 88.3711 272.708 89.4011 271.04C89.771 270.442 90.4698 269.953 90.9548 269.953ZM141.512 256.176C145.165 250.962 153.033 256.131 149.547 261.453C147.571 264.469 144.663 264.661 141.955 261.953C139.547 259.545 139.508 259.036 141.512 256.176ZM73.2048 251.23C75.5376 250.164 78.9543 251.195 78.9548 252.965C78.9548 254.503 74.0936 257.221 72.4626 256.595C70.1919 255.723 70.6521 252.397 73.2048 251.23ZM179.586 250.7C181.676 246.659 184.455 247.382 184.455 251.967C184.455 254.88 184.063 255.508 182.068 255.79C178.812 256.251 177.794 254.165 179.586 250.7ZM110.955 251.953C112.5 251.953 113.222 254.086 112.068 255.24C110.688 256.62 108.371 254.708 109.401 253.04C109.771 252.442 110.47 251.953 110.955 251.953ZM125.484 235.308C127.968 233.492 129.882 233.6 130.649 235.599C131.313 237.329 128.652 239.953 126.232 239.953C123.969 239.953 123.459 236.79 125.484 235.308ZM56.4548 232.953C58.3068 232.953 60.1711 235.593 59.7741 237.655C59.5331 238.905 58.5208 239.453 56.4548 239.453C53.15 239.453 51.913 236.914 53.9948 234.405C54.6577 233.606 55.7648 232.953 56.4548 232.953ZM160.318 235.45C161.227 233.081 165.455 233.896 165.455 236.439C165.455 238.645 162.346 239.744 160.716 238.114C160.151 237.549 159.972 236.351 160.318 235.45ZM196.198 234.11C197.852 232.456 202.454 233.054 202.455 234.923C202.455 236.69 198.218 238.991 196.312 238.261C194.617 237.61 194.566 235.742 196.198 234.11ZM90.9548 234.953C91.5047 234.953 91.9547 235.403 91.9548 235.953C91.9548 236.503 91.5048 236.953 90.9548 236.953C90.4049 236.953 89.9548 236.503 89.9548 235.953C89.9548 235.403 90.4049 234.953 90.9548 234.953ZM71.5514 214.259C74.027 212.449 74.6796 212.586 77.6345 215.541C81.1173 219.024 78.0602 223.076 73.2272 221.384C69.8362 220.196 68.8974 216.2 71.5514 214.259ZM34.9665 215.44C37.4415 212.458 42.9548 214.246 42.9548 218.031C42.9548 220.921 40.2601 222.413 37.3972 221.109C34.3162 219.705 33.3325 217.409 34.9665 215.44ZM179.159 214.523C181.95 212.567 185.454 214.484 185.455 217.966C185.455 221.094 183.104 222.358 179.705 221.057C176.335 219.766 176.077 216.681 179.159 214.523ZM214.155 215.153C216.556 212.752 221.955 214.69 221.955 217.953C221.955 220.669 218.715 222.192 215.52 220.978C212.789 219.94 212.14 217.168 214.155 215.153ZM107.319 217.446C108.12 215.36 111.324 215.917 111.767 218.219C112.165 220.284 109.278 221.677 107.755 220.153C107.169 219.567 106.973 218.349 107.319 217.446ZM143.431 216.992C144.483 215.289 148.382 216.176 148.769 218.206C148.952 219.17 148.36 220.245 147.451 220.594C145.466 221.355 142.421 218.627 143.431 216.992ZM123.155 197.153C125.911 194.397 132.955 197.004 132.955 200.779C132.955 203.022 129.938 205.953 127.629 205.953C123.218 205.953 120.231 200.077 123.155 197.153ZM231.155 197.153C233.347 194.961 237.885 195.705 239.141 198.463C240.423 201.275 237.199 205.953 233.981 205.953C230.36 205.953 228.414 199.894 231.155 197.153ZM53.0827 197.007C60.5555 193.946 64.7518 201.175 57.5075 204.629C53.4156 206.581 52.3072 205.961 51.3513 201.185C50.8033 198.446 51.0548 197.838 53.0827 197.007ZM196.205 196.962C197.443 196.453 199.58 196.13 200.955 196.244C205.799 196.649 204.127 203.891 198.873 205.265C194.383 206.438 191.907 198.732 196.205 196.962ZM160.564 197.487C163.37 194.681 166.955 196.37 166.955 200.498C166.955 203.092 163.864 206.133 162.245 205.132C159.905 203.686 158.907 199.144 160.564 197.487ZM88.5593 199.108C90.4402 196.423 92.1249 196.379 94.4548 198.953C96.2018 200.883 96.2018 201.023 94.4548 202.953C90.7188 207.081 85.4033 203.614 88.5593 199.108ZM18.2048 196.615C21.6617 195.22 24.3307 197.341 23.7819 201.046C23.2719 204.483 20.1722 205.903 18.3962 203.513C16.6233 201.125 16.517 197.296 18.2048 196.615ZM177.574 178.242C182.074 174.952 188.12 178.726 186.369 183.733C185.322 186.727 180.908 187.989 178.493 185.984C176.118 184.014 175.604 179.682 177.574 178.242ZM213.622 178.62C214.727 177.515 219.471 177.87 220.755 179.153C222.641 181.039 222.168 184.768 219.888 185.989C215.974 188.084 210.544 181.697 213.622 178.62ZM72.0075 181.391C73.1314 180.037 73.4588 180.028 74.7555 181.325C76.4955 183.065 75.6838 185.953 73.4548 185.953C71.31 185.953 70.4556 183.26 72.0075 181.391ZM106.155 179.153C107.61 177.698 109.02 177.648 112.39 178.929C116.93 180.655 115.094 185.953 109.955 185.953C105.588 185.953 103.354 181.954 106.155 179.153ZM143.339 180.395C144.582 177.156 149.462 180.083 148.774 183.655C148.301 186.112 143.609 186.104 143.134 183.645C142.943 182.651 143.035 181.188 143.339 180.395ZM35.3386 180.395C36.0985 178.414 40.8669 178.56 41.6462 180.589C42.5552 182.958 40.613 185.453 37.86 185.453C35.4112 185.453 34.2738 183.17 35.3386 180.395ZM249.136 180.234C249.767 179.474 251.447 178.987 252.869 179.152C256.507 179.575 256.625 184.287 253.011 184.798C249.914 185.235 247.422 182.3 249.136 180.234ZM1.62176 179.62C2.75172 178.489 3.84231 178.873 4.85028 180.757C6.07525 183.045 4.65825 185.437 2.55633 184.63C0.953362 184.015 0.367857 180.874 1.62176 179.62ZM195.155 161.153C199.2 157.108 205.563 162.129 203.137 167.453C200.971 172.208 193.955 170.297 193.955 164.953C193.955 163.523 194.495 161.813 195.155 161.153ZM122.99 161.888C125.209 157.743 133.337 161.845 132.76 166.819C132.498 169.085 131.921 169.497 128.635 169.768C122.714 170.255 120.308 166.899 122.99 161.888ZM159.2 162.108C160.917 160.391 166.018 161.077 167.349 163.203C168.87 165.631 167.004 168.364 163.544 168.775C158.898 169.328 156.169 165.139 159.2 162.108ZM17.8679 163.847C20.8558 161.398 23.3531 161.759 23.7731 164.704C24.2421 167.99 19.5737 170.013 17.1677 167.566C15.5488 165.919 15.5872 165.716 17.8679 163.847ZM53.3181 164.45C54.2271 162.081 58.4548 162.896 58.4548 165.439C58.4546 167.645 55.3465 168.744 53.7165 167.114C53.1515 166.549 52.972 165.351 53.3181 164.45ZM90.4011 165.04C91.191 163.762 92.6307 163.62 93.3298 164.751C94.2917 166.307 92.1385 168.536 90.8845 167.282C90.2495 166.647 90.0321 165.638 90.4011 165.04ZM233.455 164.953C233.939 164.17 234.514 164.112 235.181 164.779C235.731 165.329 235.854 166.307 235.455 166.953C234.971 167.736 234.396 167.794 233.729 167.127C233.179 166.577 233.056 165.599 233.455 164.953ZM72.155 143.153C74.201 141.107 75.9215 141.814 77.6335 145.405C79.4463 149.206 78.3548 151.953 75.0329 151.953C71.365 151.953 69.3911 145.917 72.155 143.153ZM140.99 143.888C143.209 139.743 151.337 143.845 150.76 148.819C150.498 151.085 149.921 151.497 146.635 151.768C140.714 152.255 138.308 148.899 140.99 143.888ZM214.371 144.31C215.315 141.85 219.296 143.115 220.383 146.22C221.148 148.402 220.991 149.346 219.635 150.702C216.554 153.783 212.585 148.965 214.371 144.31ZM104.622 142.62C105.751 141.49 112.484 141.883 113.755 143.153C116.971 146.369 114.013 150.953 108.721 150.953C104.846 150.953 102.025 145.217 104.622 142.62ZM248.622 142.62C251.659 139.582 258.199 144.269 256.629 148.359C255.819 150.469 251.281 151.469 249.442 149.942C247.938 148.694 247.395 143.847 248.622 142.62ZM35.155 143.153C36.8479 141.46 39.9777 141.664 42.1257 143.608C44.6817 145.921 44.4038 148.791 41.4958 150.116C36.8629 152.227 31.7242 146.584 35.155 143.153ZM178.001 143.398C180.63 140.23 185.955 142.327 185.955 146.531C185.955 149.786 183.572 151.325 180.239 150.22C177.156 149.198 176.032 145.771 178.001 143.398ZM1.18426 144.124C2.95012 142.358 5.40436 143.125 5.75262 145.551C6.10859 148.031 3.58934 150.41 1.46844 149.597C-0.35556 148.897 -0.51474 145.823 1.18426 144.124ZM125.522 126.879C128.986 123.051 132.286 125.737 130.077 130.585C129.266 132.364 128.29 132.997 126.706 132.771C123.867 132.366 123.266 129.372 125.522 126.879ZM90.9548 125.953C92.4118 125.953 94.1733 128.943 93.5983 130.44C93.2793 131.272 92.0897 131.953 90.9548 131.953C88.4109 131.953 87.3045 129.442 88.9665 127.44C89.6443 126.623 90.5397 125.953 90.9548 125.953ZM231.291 128.52C232.202 126.145 235.955 126.518 235.955 128.984C235.955 131.343 233.31 132.708 231.755 131.153C231.169 130.567 230.96 129.382 231.291 128.52ZM53.3386 125.395C54.5816 122.156 59.4621 125.083 58.7741 128.655C58.3011 131.112 53.6088 131.104 53.1345 128.645C52.9435 127.651 53.0347 126.187 53.3386 125.395ZM196.339 125.395C197.582 122.156 202.462 125.083 201.774 128.655C201.301 131.112 196.609 131.104 196.134 128.645C195.943 127.651 196.035 126.187 196.339 125.395ZM18.7048 123.033C21.1938 121.583 21.6583 121.691 23.3513 124.108C26.093 128.023 21.5169 132.115 18.155 128.753C16.4142 127.012 16.684 124.21 18.7048 123.033ZM161.551 123.259C163.914 121.531 164.32 121.594 166.508 124.013C168.958 126.719 167.37 129.453 163.346 129.453C159.801 129.453 158.626 125.398 161.551 123.259ZM176.792 108.412C178.282 105.142 183.179 105.008 185.398 108.176C187.404 111.039 187.359 112.233 185.143 114.97C181.634 119.302 174.413 113.633 176.792 108.412ZM35.1979 107.11C38.6209 103.687 45.9262 109.585 43.3542 113.694C42.0142 115.835 37.3673 116.54 35.3952 114.903C33.6272 113.436 33.51 108.798 35.1979 107.11ZM106.155 108.153C109.274 105.034 116.569 109.157 114.312 112.763C113.008 114.846 108.341 115.518 106.395 113.903C104.642 112.449 104.531 109.777 106.155 108.153ZM248.885 109.537C251.5 106.388 256.541 108.671 255.774 112.655C255.536 113.889 254.525 114.453 252.55 114.453C248.965 114.453 246.996 111.813 248.885 109.537ZM72.7048 108.014C75.4777 106.366 78.4171 107.183 78.7741 109.701C79.1151 112.099 74.9529 114.55 72.2829 113.525C70.3741 112.793 70.6471 109.236 72.7048 108.014ZM215.577 108.24C217.848 106.579 219.901 106.913 221.325 109.175C222.736 111.415 221.245 112.962 217.404 113.243C213.892 113.5 212.731 110.321 215.577 108.24ZM1.36395 110.329C1.86393 109.025 2.29819 108.896 3.18817 109.786C4.07716 110.675 4.07356 111.235 3.17156 112.137C1.6438 113.664 0.517033 112.537 1.36395 110.329ZM142.401 110.04C143.42 108.392 146.955 108.737 146.955 110.484C146.955 111.327 146.25 112.286 145.388 112.617C143.507 113.339 141.456 111.569 142.401 110.04ZM198.332 89.7538C199.769 88.8208 202.955 91.7971 202.955 94.0731C202.955 95.0681 202.085 96.3478 201.021 96.9179C195.912 99.6518 193.399 92.9558 198.332 89.7538ZM53.9899 90.8876C55.8619 87.3906 59.9547 89.2641 59.9548 93.6181C59.9548 96.521 56.4363 98.597 54.3913 96.9003C52.6944 95.4924 52.5651 93.5514 53.9899 90.8876ZM124.949 91.4599C126.748 89.2921 129.384 89.9791 129.775 92.7177C130.185 95.5927 127.358 96.7845 125.213 94.6405C123.886 93.3125 123.842 92.7938 124.949 91.4599ZM89.9548 92.453C89.9548 91.5361 90.439 90.9484 91.03 91.1454C91.6209 91.3424 92.1051 91.9311 92.1052 92.453C92.1052 92.975 91.621 93.5646 91.03 93.7616C90.439 93.9584 89.9548 93.3699 89.9548 92.453ZM106.012 73.8466C107.322 71.3997 110.172 71.4303 112.421 73.9159C114.452 76.1589 113.962 78.3446 111.082 79.8856C108.331 81.3569 104.461 76.7474 106.012 73.8466ZM71.7048 71.0331C74.3617 69.4851 75.3919 69.7252 77.9968 72.4979C80.7467 75.4249 79.87 78.213 76.0202 78.7831C71.4303 79.4631 67.953 73.2192 71.7048 71.0331ZM178.705 71.0331C181.256 69.5472 182.435 69.7213 184.38 71.871C188.234 76.1299 184.175 80.7468 179.008 77.9813C176.476 76.6264 176.293 72.4382 178.705 71.0331ZM214.155 72.1532C216.97 69.3383 222.522 71.8079 221.788 75.5477C221.237 78.3477 218.469 79.5078 215.533 78.1698C212.799 76.9248 212.163 74.1451 214.155 72.1532ZM34.9665 72.4403C36.6944 70.3586 40.3146 70.5883 42.4206 72.9159C45.6806 76.5179 42.054 80.2297 37.363 78.0927C34.3142 76.7037 33.3375 74.4023 34.9665 72.4403ZM143.955 74.452C145.696 72.3551 148.455 72.9691 148.455 75.453C148.455 77.662 145.336 78.7338 143.691 77.0888C142.956 76.3538 143.035 75.5609 143.955 74.452ZM91.4548 52.953C93.1596 52.953 95.0944 53.4933 95.7546 54.1532C98.5466 56.9452 95.7296 62.953 91.6286 62.953C87.2179 62.9526 84.2312 57.0771 87.155 54.1532C87.8149 53.4932 89.7498 52.9531 91.4548 52.953ZM123.2 54.1083C125.267 52.0413 129.919 53.1572 131.727 56.1522C134.87 61.3581 127.017 65.7348 123.512 60.7304C121.632 58.0474 121.526 55.7823 123.2 54.1083ZM234.455 52.953C238.789 52.953 240.43 57.6659 237.3 61.1239C235.255 63.3829 234.127 63.4187 231.784 61.2977C229.695 59.4067 229.388 55.9202 231.155 54.1532C231.815 53.4933 233.3 52.9531 234.455 52.953ZM53.2048 53.9618C59.9138 51.1998 63.8957 56.4948 58.3747 60.8368C54.8289 63.6256 53.1163 63.5071 51.9304 60.3886C50.4444 56.4786 50.7419 54.9758 53.2048 53.9618ZM160.564 54.4872C163.37 51.6813 166.955 53.3701 166.955 57.4979C166.955 60.0919 163.864 63.1327 162.245 62.1317C159.905 60.6855 158.907 56.1441 160.564 54.4872ZM195.587 54.2323C198.69 51.9604 203.399 52.9831 203.752 56.0048C204.176 59.6408 200.641 62.5122 196.284 62.0712C194.057 61.8459 193.515 55.7487 195.587 54.2323ZM17.3473 55.3749C18.0766 53.4732 21.3902 53.5672 23.0251 55.537C24.5491 57.374 23.2487 60.2546 20.6647 60.7636C18.8228 61.126 16.5544 57.4408 17.3473 55.3749ZM106.155 36.1532C107.628 34.6802 109.479 34.6282 112.021 35.9882C115.627 37.9182 113.772 42.953 109.455 42.953C105.545 42.9528 103.522 38.7862 106.155 36.1532ZM177.155 35.1532C178.855 33.4532 183.471 33.6656 185.005 35.5136C188.37 39.5695 181.517 45.325 177.395 41.9032C175.645 40.4512 175.515 36.7932 177.155 35.1532ZM35.9948 36.4052C37.4888 34.6052 39.0418 34.5655 41.3727 36.2694C43.4967 37.8224 43.1708 40.7877 40.7048 42.3407C37.2398 44.5227 33.338 39.6062 35.9948 36.4052ZM71.155 36.1532C73.9848 33.3233 79.3609 36.035 78.8005 40.0087C78.5425 41.8396 77.7501 42.5343 75.6452 42.7753C70.9402 43.3153 68.1341 39.1742 71.155 36.1532ZM144.168 37.1415C145.639 35.6695 146.962 36.0172 148.367 38.244C149.929 40.72 146.723 43.835 144.505 41.995C142.643 40.4492 142.527 38.7813 144.168 37.1415ZM214.033 37.3593C215.127 36.0413 215.465 36.0355 216.737 37.3075C218.339 38.9095 217.62 40.953 215.455 40.953C213.373 40.9529 212.623 39.0582 214.033 37.3593ZM195.979 22.9296C199.6 19.3086 204.362 21.486 203.791 26.5018C203.483 29.2058 203.13 29.453 199.57 29.453C194.623 29.453 192.788 26.1205 195.979 22.9296ZM122.99 18.8876C125.233 14.6976 132.366 18.4534 131.789 23.5214C131.523 25.8602 130.909 26.5165 128.754 26.7655C123.152 27.4112 120.424 23.6833 122.99 18.8876ZM54.11 19.5575C58.552 16.4465 62.0997 21.7018 58.0378 25.3778C56.5088 26.7618 55.6998 26.8869 54.0378 25.9979C51.3411 24.5539 51.3753 21.4734 54.11 19.5575ZM163.455 17.953C166.798 17.953 168.127 23.2547 165.179 24.8329C161.481 26.8119 158.169 22.1392 161.155 19.1532C161.815 18.4933 162.85 17.9532 163.455 17.953ZM91.9548 21.953C92.5047 21.953 92.9547 22.4031 92.9548 22.953C92.9548 23.503 92.5048 23.953 91.9548 23.953C91.4049 23.9529 90.9548 23.5029 90.9548 22.953C90.9548 22.4032 91.4049 21.9532 91.9548 21.953ZM107.061 1.75477C108.525 -0.979662 111.39 -0.0898075 111.772 3.21669C112.171 6.67755 109.3 8.145 107.349 5.47743C106.397 4.17543 106.317 3.14477 107.061 1.75477ZM142.264 1.58876C143.043 -0.437771 147.288 -0.554549 148.915 1.40517C150.968 3.87805 149.761 6.45278 146.55 6.45302C143.362 6.45302 141.297 4.10976 142.264 1.58876Z" fill="#39FF14"/>
</g>
<path id="stroke0_340_4374_ref" d="M107.155 280.139C107.368 279.99 107.58 279.841 113.261 274.679C118.942 269.517 130.085 259.346 136.799 253.41C143.513 247.473 145.461 246.079 151.568 242.507C157.674 238.934 167.88 233.227 187.207 223.292C206.534 213.358 234.673 199.37 250.362 191.396C266.052 183.422 268.44 181.884 269.684 181.764C270.928 181.644 270.956 182.987 270.944 184.012C270.931 185.037 270.878 185.703 276.373 183.379C281.869 181.054 292.915 175.718 299.426 172.409C307.694 168.206 311.548 164.735 315.217 161.437C316.966 159.865 320.512 158.168 325.748 155.364C329.461 153.376 331.836 151.044 333.916 149.253C334.832 148.465 335.317 147.75 289.005 147.512C242.694 147.275 149.534 147.494 102.344 147.672C55.1547 147.85 56.7587 147.98 62.752 149.21C68.7454 150.439 79.0795 152.764 88.2314 155.093C97.3833 157.422 105.04 159.685 110.953 161.866C116.866 164.047 120.803 166.078 124.541 167.766C128.278 169.453 131.697 170.736 135.823 172.689C144.814 176.946 150.885 180.942 153.102 182.751C156.864 185.82 162.146 190.09 167.994 193.411C172.328 195.873 179.642 199.532 184.596 201.983C189.551 204.435 191.976 205.471 195.923 207.87C199.87 210.269 205.266 213.999 209.605 217.577C213.945 221.154 217.065 224.467 223.862 232.264C230.658 240.061 241.037 252.242 247.093 259.13C254.381 267.419 258.588 269.953 262.43 271.752C263.639 272.318 263.649 271.315 260.468 252.78C257.288 234.245 250.995 197.986 247.494 174.186C243.993 150.386 243.475 140.143 241.515 127.372C239.555 114.601 236.169 99.612 234.092 85.5039C232.015 71.3959 231.35 58.6225 230.838 51.2835C230.326 43.9446 229.987 42.427 228.105 43.2844C226.223 44.1417 222.808 47.4199 219.72 50.9998C216.632 54.5797 213.974 58.362 208.073 72.5555C202.172 86.749 193.109 111.239 180.463 140.298C167.817 169.357 151.863 202.242 142.839 220.334C133.814 238.426 132.203 240.727 130.89 242.409C129.577 244.09 128.611 245.082 139.636 234.237C150.662 223.392 173.707 200.68 189.178 185.096C204.648 169.512 211.845 161.745 216.805 156.68C224.062 149.269 226.848 146.74 226.682 145.03C226.57 143.871 226.2 142.145 225.966 136.466C225.731 130.787 225.591 121.213 225.171 114.623C224.751 108.034 224.054 104.718 222.732 100.69C221.41 96.6622 219.483 92.0215 216.519 99.7324C213.555 107.443 209.612 127.646 207.63 141.378C205.648 155.11 205.746 161.758 205.953 166.239C206.159 170.72 206.47 172.832 206.684 177.639C206.897 182.445 207.003 189.881 207.228 193.316C207.452 196.751 207.792 195.958 209.005 194.018C210.218 192.078 212.293 189.013 215.069 185.671C224.581 174.218 227.41 173.412 231.374 171.574C234.054 170.33 238.274 168.89 247.727 166.835C257.18 164.781 271.784 162.265 279.964 160.719C288.145 159.173 289.459 158.672 289.902 158.576C290.121 158.528 288.717 159.49 276.646 162.566C265.294 165.458 243.17 170.364 227.937 173.084C212.703 175.804 204.989 176.012 196.821 175.376C188.652 174.74 180.263 173.253 174.369 172.415C168.475 171.576 165.33 171.431 162.127 171.414"/>
</defs>
</svg>
