<svg width="627" height="227" viewBox="0 0 627 227" fill="none" xmlns="http://www.w3.org/2000/svg">
<path d="M17.899 124.383C17.3745 121.575 16.8451 118.576 17.0263 118.094C17.2445 117.515 17.6611 120.947 18.5297 138.841C19.3983 156.734 20.6914 190.184 21.1874 206.01C21.6834 221.836 21.3431 219.024 21.1337 216.17C20.9244 213.315 20.8564 210.503 20.7862 207.605" stroke="#76BB40" stroke-width="16" stroke-linecap="round" stroke-linejoin="round"/>
<path d="M8 133.523C8 133.024 8.09074 131.746 8.62522 129.542C9.28242 126.832 12.3597 123.829 16.117 119.968C20.3599 115.608 26.5265 111.735 33.6447 107.849C41.0627 103.8 49.8425 100.986 58.849 98.3332C67.5329 95.7752 75.8587 95.3146 82.5393 95.4486C85.5111 95.5082 87.5865 96.399 89.1607 97.5546C90.735 98.7101 91.7331 100.32 92.1339 102.352C92.5347 104.383 92.3078 106.787 91.3175 109.375C90.3273 111.962 88.5805 114.661 86.2855 117.537C83.9905 120.413 81.2001 123.383 71.4371 131.309C61.6741 139.235 45.0228 152.025 34.8683 159.612C24.7138 167.199 21.5605 169.195 19.04 170.676C16.5195 172.158 14.7273 173.065 21.2449 173.351C27.7626 173.637 42.6443 173.274 53.203 173.269C63.7618 173.263 69.5466 173.626 74.557 174.176C83.6628 175.175 92.8481 177.673 100.887 180.235C103.93 181.205 104.706 181.981 105.207 182.671C105.707 183.362 105.866 184.065 106.015 185.039C106.165 186.014 106.301 187.238 106.648 188.981" stroke="#76BB40" stroke-width="16" stroke-linecap="round" stroke-linejoin="round"/>
<path d="M129.746 94.1457C129.723 94.0777 129.7 94.0097 129.439 93.6685C129.178 93.3273 128.679 92.715 128.444 93.7716C128.21 94.8282 128.255 97.5722 129.345 108.023C130.435 118.474 132.567 136.549 133.87 151.348C135.172 166.147 135.581 177.123 136.143 183.243C136.705 189.362 137.408 190.292 138.417 190.635C139.426 190.978 140.719 190.705 143.288 189.119" stroke="#76BB40" stroke-width="16" stroke-linecap="round" stroke-linejoin="round"/>
<path d="M162.246 87.0385C162.269 87.0158 162.292 86.9931 162.474 86.6526C162.655 86.3121 162.996 85.6544 163.942 85.1682C164.889 84.682 166.431 84.3872 176.777 83.2488C187.122 82.1105 206.223 80.1374 220.578 78.0665C234.932 75.9956 243.961 73.8865 250.37 72.5505C260.252 70.4909 269.363 69.9295 278.509 69.6192C282.208 69.4937 284.002 69.7852 285.515 70.2078C287.028 70.6305 288.208 71.2655 288.951 72.0008C289.695 72.7361 289.967 73.5525 289.801 74.6194C289.635 75.6863 289.023 76.979 273.78 92.4651C258.538 107.951 228.683 137.592 212.215 154.108C195.747 170.625 193.569 173.12 192.005 175.142C190.44 177.164 189.556 178.638 189.066 179.76C188.576 180.882 188.508 181.608 188.904 182.163C189.3 182.719 190.162 183.081 191.593 183.314C194.968 183.862 200.23 183.413 207.367 182.353C211.332 181.765 215.889 180.455 224.34 178.056C232.792 175.657 244.974 172.052 253.655 169.729C267.059 166.143 275.071 165.383 280.425 165.347C282.808 165.331 284.508 165.787 285.861 166.586C287.214 167.385 288.166 168.632 288.771 170.012C289.375 171.391 289.602 172.865 289.835 174.384" stroke="#76BB40" stroke-width="16" stroke-linecap="round" stroke-linejoin="round"/>
<path d="M309.978 98.4453C309.479 98.4453 308.36 98.3773 306.724 98.4216C305.944 98.4428 305.294 98.8288 305.499 99.1621C305.705 99.4954 306.794 99.8582 314.829 100.022C322.865 100.187 337.815 100.141 347.626 99.8572C357.437 99.5731 361.657 99.0515 368.663 97.887C375.668 96.7225 385.332 94.9309 391.093 93.9966C396.855 93.0624 398.42 93.0397 399.737 93.096C401.053 93.1524 402.074 93.2884 402.714 93.8235C403.353 94.3585 403.58 95.2883 403.118 96.1868C402.657 97.0854 401.5 97.9244 386.079 106.339C370.658 114.754 341.008 130.72 325.041 139.455C309.075 148.19 307.691 149.21 307.16 150.201C306.629 151.191 306.992 152.121 308.279 152.646C311.559 153.982 318.457 152.424 332.034 149.292C341.207 147.176 354.934 143.642 368.152 141.254C381.371 138.866 393.644 137.642 401.951 136.977C410.258 136.312 414.228 136.244 417.669 136.798C421.109 137.353 423.899 138.532 426.774 139.747" stroke="#76BB40" stroke-width="16" stroke-linecap="round" stroke-linejoin="round"/>
<path d="M466.616 41.0138C466.292 40.8699 465.968 40.7261 465.694 41.2273C464.866 42.7383 471.886 56.0735 481.378 71.9319C485.385 78.6257 479.005 58.2493 479.238 54.2632C479.459 50.476 482.294 46.5563 483.901 43.8264C484.825 42.2565 473.84 59.8292 463.471 81.6703C459.793 89.4163 459.037 90.2439 458.936 89.466C462.052 78.4027 470.751 59.3291 477.133 44.6207C478.235 41.723 478.847 39.8174 479.586 36.9824" stroke="#76BB40" stroke-width="16" stroke-linecap="round" stroke-linejoin="round"/>
<path d="M450.703 59.9717C450.487 59.9717 453.577 60.3672 465.117 61.1642C473.456 61.5657 486.836 61.9612 494.466 62.4526C502.095 62.944 503.57 63.5193 505.089 64.112" stroke="#76BB40" stroke-width="16" stroke-linecap="round" stroke-linejoin="round"/>
<path d="M526.56 123.384C526.165 123.312 525.769 123.24 524.684 122.915C523.599 122.59 521.837 122.015 522.368 121.09C524.381 117.578 540.465 115.847 560.802 113.07C574.486 111.201 582.698 111.76 587.543 112.176C589.546 112.448 590.625 112.843 590.641 113.299C590.658 113.754 589.579 114.258 588.467 114.776" stroke="#76BB40" stroke-width="16" stroke-linecap="round" stroke-linejoin="round"/>
<path d="M618.984 15.7363C617.141 17.6844 613.443 24.9147 604.794 40.9632C600.63 47.9532 594.156 58.488 590.551 64.5084C586.946 70.5287 586.407 71.7152 585.851 73.0466" stroke="#76BB40" stroke-width="16" stroke-linecap="round" stroke-linejoin="round"/>
<path d="M603.399 8C602.967 8.43146 602.535 8.86292 602.223 10.3256C602.301 21.4276 604.266 45.0098 602.699 59.0514C602.061 60.8682 601.378 61.9828 599.911 63.3491" stroke="#76BB40" stroke-width="16" stroke-linecap="round" stroke-linejoin="round"/>
</svg>
