<svg width="1122" height="546" viewBox="0 0 1122 546" fill="none" xmlns="http://www.w3.org/2000/svg">
<path d="M150.361 162.341C147.309 159.44 138.701 149.82 133.057 146.029C129.986 143.967 125.853 142.665 121.002 141.612C116.152 140.56 110.545 140.063 104.321 140.552C98.0972 141.042 91.426 142.531 84.7602 145.321C71.1107 151.033 59.3046 161.926 48.4666 174.001C37.3155 186.425 32.0285 201.192 28.5886 212.353C27.0745 217.265 27.1358 220.96 28.9778 223.675C33.0466 229.673 56.1325 232.898 87.0905 239.33C110.439 244.18 128.051 255.803 148.621 271.109C176.837 292.102 194.838 313.845 201.322 327.492C204.61 334.412 204.47 342.701 203.523 351.299C201.555 369.159 192.631 387.131 183.122 404.648C173.924 421.593 161.751 435.461 147.746 447.118C132.54 459.775 111.111 466.512 90.5486 473.526C46.9172 480.31 10.4343 480.033 2.01789 478.271C1.80822 478.577 3.58248 480.067 5.41051 481.602" stroke="#864FFE" stroke-width="4" stroke-linecap="round" stroke-linejoin="round"/>
<path d="M151.007 172.017C151.359 166.27 152.37 152.332 151.445 147.793C150.966 145.441 149.243 143.325 147.341 141.163C145.439 139.001 143.097 136.944 140.293 135.139C134.54 131.435 127.245 129.6 119.558 128.312C111.705 126.996 100.538 126.798 88.1896 127.4C64.0234 128.579 44.0032 153.573 39.3171 159.111C29.7318 170.439 27.5726 182.305 25.8532 188.312C25.0579 191.091 24.9855 193.469 25.4081 196.697C25.8307 199.925 26.8952 203.969 28.2598 206.833C29.6243 209.697 31.2566 211.257 33.233 212.771C41.9 219.408 54.096 223.52 83.9335 233.822C104.343 240.868 128.159 254.66 143.256 262.787C159.349 271.451 179.072 292.399 191.439 303.947C202.87 314.622 208.892 331.962 214.219 349.141C219 364.556 213.258 387.43 209.194 405.304C207.698 411.887 204.501 417.653 201.071 422.979C197.556 428.436 191.898 433.489 185.643 439.137C179.177 444.975 171.547 449.265 163.577 452.77C155.085 456.503 144.965 458.516 122.886 461.372C77.7539 467.211 43.8076 465.923 35.9342 462.995C32.3297 461.654 30.048 459.357 28.0597 457.447C24.4061 453.936 21.9101 449.31 20.1896 446.787C19.855 446.297 19.6046 449.798 20.2433 452.503C21.4992 457.821 25.8177 463.298 28.0888 468.029C28.7552 469.417 25.4629 469.354 22.6918 468.251C16.6836 465.86 11.3871 460.845 6.69883 456.589C4.57909 454.665 3.21699 452.971 3.86971 452.521C6.69813 450.569 17.6648 459.047 28.5662 466.259C31.7668 468.376 30.9512 466.163 29.4103 463.864C26.0147 458.797 21.7746 454.391 19.7229 452.766C19.5201 452.606 21.2907 455.328 24.4747 458.095C41.1478 472.584 67.7954 480.056 88.8186 486.065C97.5271 488.554 105.734 488.985 113.421 488.347C117.395 488.018 121.32 486.149 125.496 483.856C134.249 479.051 144.989 469.481 156.339 459.14C170.031 446.665 183.021 415.391 190.529 394.805C197.65 375.284 193.95 364.537 192.917 358.318C191.87 352.019 187.943 346.545 184.013 341.113C175.081 328.768 162.955 321.324 132.632 301.694C104.673 283.595 88.5251 266.561 82.7324 262.842C72.2999 256.144 57.6145 254.088 45.7055 250.258C30.6799 245.425 26.4328 237.893 23.0703 234.214C21.3224 232.302 20.1337 229.755 19.1196 226.597C16.9241 219.759 16.8798 210.978 17.7326 201.826C18.5564 192.984 23.5274 184.958 28.064 176.702C38.264 158.14 59.0683 141.94 80.7829 126.524C89.3984 120.408 98.278 118.493 106.143 117.203C114.196 115.882 122.649 117.687 130.66 119.9C134.615 120.993 138.103 122.823 141.031 124.976C143.959 127.129 146.159 129.754 147.789 132.561C149.419 135.368 150.413 138.277 151.102 141.123C151.792 143.969 152.146 146.665 151.761 149.651C151.376 152.636 150.241 155.828 148.272 157.615C146.303 159.402 143.535 159.685 139.874 158.448C131.286 155.546 118.689 147.762 104.438 141.567C95.9414 137.873 86.6218 137.477 75.7774 137.333C67.8422 137.227 61.7135 138.47 56.0284 140.505C53.1261 141.544 50.4142 143.178 47.8174 145.116C45.2205 147.055 42.8785 149.396 40.8204 152.234C38.7622 155.072 37.059 158.335 35.7202 161.826C27.1777 184.098 32.2889 215.759 33.6083 224.269C34.2528 228.425 35.8503 232.068 37.645 235.317C39.4397 238.565 41.6397 241.261 44.3699 243.537C56.043 253.267 84.368 258.538 125.632 271.548C138.204 275.512 147.022 277.707 155.069 281.027C159.047 282.669 162.336 285.27 165.439 288.037C177.892 299.14 187.283 323.93 197.849 344.479C203.894 356.236 211.133 365.189 214.355 372.121C221.001 386.423 218.035 400.153 217.324 408.197C216.64 415.936 212.105 423.019 207.354 430.203C191.786 453.739 160.108 475.249 144.51 482.87C127.999 490.937 109.083 488.686 92.7133 492.126C85.0356 493.739 77.7764 494.145 71.1256 493.862C64.5248 493.581 58.4876 490.788 52.9444 488.288C47.5147 485.839 43.4936 482.051 40.0967 478.301C38.3128 476.331 36.7708 473.912 38.1654 472.954C43.0156 469.623 55.167 475.417 69.4783 479.37C89.7055 484.959 137.522 475.563 164.247 468.299C182.012 463.471 194.479 447.958 202.057 438.503C211.053 427.278 214.424 411.018 217.916 396.309C221.58 380.879 219.398 369.482 218.401 363.511C217.914 360.595 216.269 358.178 214.545 355.905C207.479 346.589 191.752 333.931 177.471 323.005C162.127 311.267 136.382 310.213 116.528 298.157C102.716 289.769 87.9939 284.066 70.8364 271.164C53.3668 258.026 42.4979 243.36 37.9536 235.89C33.6058 228.743 31.5878 220.857 29.5834 213.494C27.5763 206.122 27.5618 197.93 28.1296 189.14C28.7517 179.509 33.061 169.844 37.2439 160.726C41.0942 152.333 46.0334 145.32 51.1433 138.814C56.4996 131.995 64.3673 126.396 73.1945 120.961C82.5822 115.181 93.8177 112.69 104.58 111.078C125.627 107.925 141.568 113.101 150.085 114.959C153.89 115.788 156.473 117.1 158.288 119.139C160.102 121.178 161.024 124.087 160.435 126.011C159.846 127.935 157.717 128.787 152.858 128.764C140.441 128.707 125.913 126.727 113.923 126.654C105.402 126.602 96.1532 129.357 85.9164 133.112C78.5538 135.814 73.1805 139.035 68.2094 142.608C63.174 146.226 59.5522 151.78 56.1542 157.604C52.619 163.664 50.6551 170.977 48.8303 178.482C46.9905 186.049 46.5603 196.958 46.8065 208.84C46.9104 213.853 48.1174 216.748 49.4088 219.524C54.6263 230.737 65.7179 239.761 77.6236 248.81C93.3303 260.748 121.315 262.214 141.346 271.972C158.162 280.163 170.108 291.378 177.405 297.88C184.627 304.315 190.612 318.402 197.339 334.97C209.67 365.337 232.14 391.42 234.967 397.959C237.891 404.722 238.461 412.553 238.999 420.415C239.554 428.544 238.188 436.916 235.973 444.96C233.85 452.669 230.095 459.782 226.236 466.824C213.475 490.11 183.554 515.938 167.521 527.785C159.517 533.7 150.475 536.986 141.683 539.49C110.679 548.322 67.8384 540.877 56.4638 538.809C45.9986 536.906 31.463 527.173 15.3421 516.65C9.14092 512.602 7.59562 510.241 8.35048 509.038C9.10535 507.835 12.37 507.622 16.4648 508.861C33.9989 514.164 43.7086 521.214 65.6997 526.659C83.1141 530.97 96.5663 531.05 102.821 531.23C106.094 531.325 109.573 530.914 113.529 529.704C132.897 523.778 153.906 506.264 175.292 487.069C191.75 472.298 200.662 456.42 204.636 447.915C208.561 439.517 208.069 428.843 207.857 418.012C207.651 407.497 205 398.087 202.177 390.68C200.905 387.342 198.858 385.331 196.205 383.596C193.552 381.861 190.074 380.584 189.312 380.99C186.8 382.329 195.354 389.62 199.83 397.129C203.603 403.459 204.264 410.977 205.231 418.59C206.202 426.237 205.565 433.414 203.996 439.493C202.494 445.314 197.694 449.691 193.868 453.982C191.958 456.003 190.113 457.706 187.743 459.079C185.373 460.453 182.534 461.446 174.663 460.535" stroke="#864FFE" stroke-width="4" stroke-linecap="round" stroke-linejoin="round"/>
<path d="M333.377 82.1498C333.093 81.4404 331.315 76.5343 329.055 71.3574C327.944 68.813 329.078 95.3008 326.236 142.713C324.45 172.521 318.568 213.75 315.76 267.586C312.951 321.422 312.525 386.551 311.809 424.182C310.937 469.995 308.366 481.925 306.9 484.107C306.03 485.403 305.364 476.357 306.736 421.276C308.108 366.196 311.656 262.613 314.158 205.776C316.969 141.932 322.734 126.096 326.688 115.393C327.406 113.45 325.106 118.453 321.524 140.452C317.942 162.451 313.046 201.259 310.629 239.484C308.213 277.71 308.426 314.177 309.245 340.306C310.527 381.162 314.65 405.687 318.224 423.78C319.941 432.469 322.082 440.028 323.816 445.109C325.549 450.191 326.969 452.532 327.984 450.652C328.999 448.772 329.567 442.599 329.682 425.159C329.797 407.719 329.442 379.198 324.717 338.823C319.992 298.448 310.908 247.082 305.731 213.704C300.555 180.325 299.561 166.491 299.014 146.451C298.467 126.412 298.396 100.587 298.536 89.1639C298.677 77.7403 299.032 81.5005 299.073 140.763C299.114 200.025 298.83 314.675 299.323 379.52C299.815 444.364 301.093 455.929 303.099 410.166C305.106 364.403 307.802 260.962 308.979 203.027C310.344 135.808 308.581 120.547 307.151 110.706C306.543 106.523 305.721 104.057 304.752 106.396C303.783 108.735 302.576 115.972 300.465 174.79C298.353 233.609 295.372 343.789 293.978 403.671C292.585 463.552 292.869 469.795 293.441 475.069C294.013 480.343 294.864 484.458 295.622 483.172C296.38 481.887 297.019 475.076 296.603 443.259C296.187 411.443 294.697 354.827 294.497 317.644C294.297 280.462 295.432 264.428 298.359 246.413C301.286 228.397 305.97 208.887 308.915 195.431C311.861 181.974 312.925 175.163 311.735 220.892C310.544 266.62 307.067 365.095 305.417 419.513C303.545 481.297 304.77 492.815 307.083 499.259C308.153 502.239 312.306 502.865 317.182 501.888C328.846 499.551 344.89 490.957 382.194 478.662C409.357 469.709 453.777 456.93 482.091 449.387C521.07 439.003 542.816 438.678 562.982 438.995C573.08 439.154 582.865 440.518 586.739 440.605C590.613 440.692 588.271 439.77 584.12 438.905C574.158 436.828 559.918 436.455 543.153 437.271C525.318 438.139 495.03 448.14 457.166 459.7C429.112 468.265 407.24 470.277 387.755 470.14C367.856 469.999 354.202 466.846 350.707 465.099C336.004 457.75 391.194 449.954 435.993 441.897C470.168 435.751 528.059 428.307 556.116 423.82C584.172 419.333 580.766 418.765 570.778 418.402C544.339 417.44 516.007 419.595 477.511 428.669C450.173 435.113 407.788 448.456 384.823 455.315C361.858 462.174 359.8 462.954 360.123 463.498C361.76 466.249 401.41 460.22 456.095 452.846C475.49 450.23 477.709 448.451 475.366 447.436C473.023 446.422 465.997 445.854 446.764 449.712C427.531 453.57 396.304 461.871 375.143 467.956C343.641 477.015 329.9 483.02 325.873 485.315C325.125 485.741 327.807 485.623 350.484 479.445C373.162 473.268 415.956 461.278 442.012 453.505C468.068 445.732 476.087 442.539 481.744 439.866C487.401 437.192 490.453 435.135 489.435 434.323C483.236 434.008 447.523 447.787 402.884 467.605C388.62 474.156 391.388 473.588 394.24 473.003" stroke="#864FFE" stroke-width="4" stroke-linecap="round" stroke-linejoin="round"/>
<path d="M691.883 84.301C691.812 84.4429 691.741 84.5848 690.782 86.1123C689.823 87.6398 687.978 90.5486 681.137 119.22C674.296 147.891 662.515 202.236 649.1 250.736C635.686 299.236 620.995 340.243 612.824 365.093C604.653 389.943 603.446 397.392 602.789 403.181C602.132 408.969 602.061 412.872 603.444 412.86C604.827 412.848 607.666 408.804 620.59 355.887C633.514 302.97 656.437 201.303 669.133 146.446C681.829 91.5892 683.603 86.6229 684.517 88.2149C685.431 89.8069 685.431 98.1077 682.415 116.112C679.399 134.116 673.367 161.573 660.678 203.138C647.989 244.704 628.827 299.546 616.685 337.162C604.543 374.779 600.001 393.509 598.158 402.059C596.315 410.608 597.308 408.408 609.459 358.57C621.61 308.732 644.888 211.322 658.974 154.685C676.329 84.9005 682.128 68.7099 681.285 66.7115C680.584 65.0499 676.468 73.2977 661.867 112.579C647.267 151.86 621.576 224.793 605.36 273.965C589.145 323.137 583.183 346.336 579.722 360.948C576.26 375.56 575.48 380.881 575.716 379.401C575.953 377.921 577.23 369.478 582.714 347.569C588.198 325.661 597.85 290.542 611.197 250.882C624.544 211.223 641.293 168.087 652.085 136.891C662.878 105.695 667.207 87.7452 668.515 81.6911C669.822 75.6369 667.977 82.0222 654.997 136.358C642.017 190.694 617.958 292.786 605.032 349.175C592.106 405.564 591.041 413.155 591.025 413.802C591.009 414.45 592.074 407.922 604.758 353.336C617.442 298.75 641.714 196.303 656.489 137.141C674.535 64.8806 680.982 48.7888 681.202 46.5045C681.821 40.0929 679.758 66.375 682.825 85.0502C684.573 95.696 688.021 108.479 701.73 146.559C715.439 184.64 739.64 247.57 754.555 288.147C769.471 328.724 774.368 345.042 778.948 364.941C783.529 384.841 787.645 407.828 783.379 398.953C779.112 390.078 766.337 348.645 748.366 296.9C730.394 245.155 707.613 184.354 695.096 148.81C682.58 113.267 681.018 104.824 680.179 97.4241C679.339 90.024 679.268 83.9226 680.083 82.1629C680.898 80.4032 682.601 83.1701 698.276 113.648C713.951 144.126 743.545 202.232 761.381 240.324C779.217 278.416 784.398 294.734 789.48 315.166C800.48 359.391 805.779 389.607 807.504 395.787C807.786 396.795 806.958 393.453 787.535 342.676C768.112 291.898 730.143 193.779 710.654 142.026C691.165 90.2735 691.307 87.8613 692.622 88.4277C693.937 88.9942 696.421 92.6125 705.011 124.168C713.6 155.723 728.22 215.106 742.706 265.704C757.193 316.302 771.103 356.316 776.636 374.056C782.17 391.796 778.905 386.049 763.739 341.443C748.573 296.837 721.605 213.545 705.476 165.068C689.348 116.591 684.877 105.452 681.367 95.7762C677.857 86.1005 675.444 78.2254 693.718 125.321C711.991 172.417 751.025 274.723 772.056 329.235C793.087 383.747 794.932 387.365 793.611 385.895C792.291 384.424 787.749 377.755 783.244 371.907C778.74 366.06 774.411 361.235 765.434 352.18" stroke="#864FFE" stroke-width="4" stroke-linecap="round" stroke-linejoin="round"/>
<path d="M565.213 352.609C565 351.757 564.787 350.906 566.736 347.7C568.684 344.495 572.801 338.961 579.854 332.882C586.906 326.803 596.771 320.347 616.686 309.146C636.6 297.945 666.266 282.195 700.852 265.851C735.438 249.508 774.046 233.048 797.235 222.369C820.423 211.691 827.024 207.292 831.275 203.926C835.527 200.561 837.231 198.361 836.831 197.193C836.431 196.024 833.876 195.953 828.621 197.087C823.366 198.221 815.488 200.563 793.368 209.999C771.248 219.435 735.124 235.894 701.221 252.958C667.318 270.022 636.73 287.191 616.572 299.051C587.234 316.312 574.644 326.347 570.646 331.007C569.688 332.123 574.384 332.12 596.975 321.614C619.566 311.109 660.799 290.463 696.164 271.527C731.528 252.591 759.774 235.989 775.425 226.94C791.076 217.891 793.276 216.898 763.36 235.826C733.444 254.753 671.346 293.632 637.794 314.299C604.242 334.966 601.12 336.243 602.03 334.596C602.941 332.948 607.98 328.336 636.374 310.671C664.767 293.007 716.362 262.429 751.138 242.526C785.915 222.623 802.309 214.322 774.063 231.685C745.817 249.048 672.434 292.325 637.434 312.562C602.434 332.799 608.04 328.684 619.232 322.095C630.424 315.506 647.031 306.566 661.477 299.301C675.922 292.035 687.703 286.714 709.173 278.439C730.642 270.164 761.443 259.096 775.855 253.537C790.268 247.977 787.358 248.261 757.897 263.341C728.436 278.422 672.511 308.291 614.892 339.064" stroke="#864FFE" stroke-width="4" stroke-linecap="round" stroke-linejoin="round"/>
<path d="M860.061 83.8705C860.203 83.9414 860.345 84.0124 861.553 83.6587C862.762 83.3051 865.033 82.5247 866.203 79.9588C867.373 77.3929 867.373 73.0651 866.486 67.5011C862.368 41.6743 850.054 26.1521 844.829 19.0293C842.617 16.014 840.882 14.5318 840.715 16.4237C840.548 18.3157 841.897 23.7076 844.507 30.6002C847.118 37.4927 850.951 45.7225 871.732 79.1568C892.513 112.591 930.128 170.981 952.308 204.465C979.338 245.273 988.142 255.326 988.283 257.827C988.416 260.197 979.553 251.035 964.726 234.701C949.9 218.367 927.048 191.62 910.698 171.527C894.348 151.434 885.193 138.805 877.531 126.34C862.923 102.573 850.174 69.3846 838.844 40.1307C835.356 31.1256 836.03 34.1476 856.552 74.9163C877.074 115.685 917.314 194.152 939.108 236.313C960.903 278.474 963.032 281.95 963.987 282.641C964.942 283.333 964.658 281.133 956.953 264.463C949.249 247.792 934.132 216.718 915.309 182.228C896.486 147.738 874.414 110.774 861.589 89.8526C848.764 68.9308 845.854 65.1706 843.397 62.3467C840.94 59.5228 839.023 57.7492 840.378 61.1633C841.733 64.5773 846.417 73.2329 865.011 101.956C883.605 130.678 915.968 179.206 934.804 208.391C958.732 245.466 964.559 261.242 967.962 272.73C969.378 277.51 969.591 280.316 963.99 268.368C958.389 256.42 946.82 229.673 929.79 196.739C912.759 163.804 890.617 125.493 876.868 102.245C863.119 78.9967 858.435 71.973 854.283 66.1198C850.131 60.2667 846.654 55.797 858.702 77.51C870.749 99.223 898.427 147.254 917.938 179.908C937.448 212.562 947.952 228.383 953.93 238.094C959.909 247.805 961.045 250.927 957.268 250.489" stroke="#864FFE" stroke-width="4" stroke-linecap="round" stroke-linejoin="round"/>
<path d="M1073.62 18.5131C1073.47 18.4422 1073.33 18.3712 1071.98 19.2215C1070.63 20.0717 1068.08 21.8455 1065.59 26.3775C1063.1 30.9095 1060.76 38.1461 1055.65 57.0567C1050.54 75.9673 1042.73 106.333 1025.23 158.407C1007.72 210.481 980.753 283.343 965.653 325.029C950.554 366.715 948.141 375.015 948.033 374.68C947.926 374.345 950.197 365.121 965.064 329.473C979.931 293.824 1007.33 232.029 1024.99 193.42C1042.65 154.811 1049.74 141.26 1056.98 125.73C1082.82 70.3148 1085.72 47.9842 1086.24 39.1974C1086.27 38.6147 1084.39 41.8956 1077.74 59.068C1071.08 76.2404 1059.09 107.954 1034.99 157.778C1010.89 207.602 975.054 274.576 953.397 316.846C931.74 359.117 925.353 374.654 927.35 369.178C929.347 363.702 939.921 336.743 967.157 282.876C994.392 229.009 1037.97 149.051 1061.94 103.995C1089.8 51.6389 1094.03 36.4971 1097.07 23.66C1098.5 17.6266 1098.49 12.3127 1098.24 8.08278C1098 3.85284 1097.22 0.802115 1096.53 2.45862C1087.1 25.2348 1084.41 58.6627 1074.84 85.5978C1069.64 100.236 1062.43 116.364 1048.77 144.599C1035.11 172.834 1014.88 212.564 998.644 247.362C982.404 282.161 970.765 310.823 958.843 344.532C946.921 378.24 935.07 416.126 929.283 433.231C923.497 450.335 924.136 445.511 928.013 431.745C931.891 417.979 938.988 395.418 945.767 376.027C952.545 356.636 958.791 341.098 971.305 315.357C983.82 289.617 1002.41 254.143 1022.74 210.541C1043.08 166.939 1064.58 116.282 1077.43 84.5111C1090.28 52.7397 1093.83 41.3882 1094.84 36.7111C1095.86 32.0339 1094.22 34.3751 1076.56 77.8302C1058.9 121.285 1025.26 205.783 1002.47 258.855C979.673 311.926 968.744 331.011 961.481 342.9C954.218 354.789 950.954 358.904 948.172 361.343C945.39 363.782 943.19 364.421 941.312 363.047C939.433 361.673 937.943 358.267 937.21 354.81C936.478 351.353 936.549 347.948 936.941 344.881C937.332 341.814 938.042 339.189 937.946 341.278C937.533 350.297 932.145 371.67 926.161 390.653C924.62 395.541 923.654 389.841 925.352 383.373C927.05 376.905 930.811 369.598 949.995 338.66C969.178 307.723 1003.67 253.378 1025.94 217.045C1048.22 180.713 1057.23 164.041 1064.61 148.499C1078.38 119.476 1085.7 93.8696 1090.11 72.8112C1094.12 53.6226 1093.76 33.6657 1092.77 20.0665C1092.51 16.5083 1089.22 20.4438 1074.17 57.1094C1059.13 93.7749 1031.52 163.232 1005.48 223.312C979.443 283.393 955.81 331.991 943.103 358.269C930.396 384.546 929.332 387.029 930.735 385.754C932.138 384.479 936.042 379.371 949.266 358.861C962.49 338.351 984.916 302.593 1000.37 276.262C1015.83 249.931 1023.64 234.11 1035.18 206.45C1046.72 178.789 1061.77 139.768 1075.94 107.18C1090.12 74.5914 1102.96 49.6181 1110.36 35.5115C1117.76 21.4049 1119.32 18.9217 1119.2 18.2455C1119.08 17.5694 1117.24 18.7755 1114.87 21.2414C1101.75 34.8925 1090.81 57.0352 1075.99 90.6673C1069.15 106.189 1060.47 131.663 1051.17 153.683C1041.88 175.704 1032.93 193.795 1011.93 229.507C990.934 265.22 958.145 318.004 924.364 372.388" stroke="#864FFE" stroke-width="4" stroke-linecap="round" stroke-linejoin="round"/>
</svg>
