<svg width="462" height="183" viewBox="0 0 462 183" fill="none" xmlns="http://www.w3.org/2000/svg">
<path d="M54.8957 36.6628C54.7369 36.0276 54.3771 34.7675 53.5389 32.8876C53.0909 31.8826 52.1449 31.0076 51.0402 30.398C49.9355 29.7884 48.5853 29.5304 46.8573 29.4372C43.0698 29.2328 38.5939 30.1998 33.8526 31.9372C28.8246 33.7797 24.5519 37.805 20.6289 42.1035C18.6598 44.2611 17.1825 46.7593 16.1359 48.9394C15.0893 51.1194 14.6326 53.0051 14.7548 54.6612C14.8769 56.3174 15.5917 57.687 16.9726 59.117C18.3534 60.5471 20.3786 61.9961 24.6782 64.5289C28.9778 67.0617 35.4904 70.6345 40.8706 73.8645C46.2508 77.0945 50.3013 79.8733 54.304 82.8431C62.2518 88.7401 68.7674 94.858 73.5931 100.637C75.9468 103.455 77.2673 106.693 77.9755 109.807C78.6836 112.92 78.5248 115.977 77.5296 119.11C76.5345 122.242 74.7078 125.359 72.3272 128.105C69.9467 130.852 67.0677 133.135 63.728 134.886C56.974 138.428 47.8266 139.293 37.7533 139.565C27.7723 139.836 19.41 137.682 13.6317 135.454C11.0446 134.456 9.58094 132.769 8.74311 131.457C7.90528 130.145 7.84571 129.013 8.2717 128.331C8.69769 127.649 9.61103 127.451 10.552 127.246" stroke="#2C0977" stroke-width="16" stroke-linecap="round" stroke-linejoin="round"/>
<path d="M103.511 22.1671C103.214 21.9686 102.916 21.7701 102.554 22.1045C102.192 22.439 101.775 23.3123 101.63 35.0761C101.484 46.8399 101.623 69.4677 101.943 83.0994C102.263 96.7311 102.759 100.681 103.511 104.274C104.263 107.867 105.256 110.983 106.611 113.69C107.967 116.397 109.654 118.6 111.745 120.242C113.836 121.883 116.278 122.895 118.975 123.317C121.673 123.74 124.552 123.541 127.435 122.645C130.318 121.749 133.117 120.161 135.642 117.923C140.813 113.341 144.288 106.351 147.56 99.0119C149.218 95.2943 150.416 91.3954 151.359 86.9206C152.302 82.4459 152.838 77.4638 153.035 71.9993C153.232 66.5349 153.073 60.739 152.415 53.9124C151.013 39.3594 149.28 29.5449 149.04 28.1954C148.375 24.4594 149.076 40.5195 150.589 55.1383C151.563 64.5502 154.087 77.8752 156.295 88.0716C158.503 98.2679 160.608 104.897 163.033 110.317C165.457 115.737 168.138 119.747 170.839 122.983C173.54 126.22 176.181 128.562 178.494 130.255C180.808 131.948 182.714 132.921 185.52 133.923" stroke="#2C0977" stroke-width="16" stroke-linecap="round" stroke-linejoin="round"/>
<path d="M243.281 16.3925C243.102 16.3528 242.924 16.3131 243.09 16.0942C243.256 15.8753 243.772 15.4783 244.693 15.2738C245.614 15.0693 246.925 15.0693 247.669 14.6524C248.414 14.2356 248.553 13.4019 248.069 12.6251C247.584 11.8483 246.472 11.1536 244.996 10.627C243.52 10.1004 241.713 9.76297 239.502 9.75786C234.717 9.7468 229.072 11.6883 223.258 14.4663C220.384 15.8398 217.98 17.7603 216.037 19.5933C214.093 21.4263 212.763 23.2723 211.909 25.2554C211.055 27.2385 210.717 29.3028 210.831 31.3586C210.945 33.4145 211.521 35.3994 212.542 37.196C213.564 38.9926 215.013 40.5408 216.872 42.0927C218.73 43.6445 220.954 45.153 225.455 47.7066C229.956 50.2602 236.667 53.8132 241.743 57.0032C250.377 62.4301 255.772 68.4731 259.978 73.8047C261.93 76.2802 262.992 78.6797 263.804 81.0865C264.617 83.4934 265.014 85.9348 265.02 88.4033C265.026 90.8718 264.629 93.2934 263.679 95.5134C262.73 97.7335 261.241 99.6787 259.173 101.574C254.79 105.592 248.251 108.704 240.9 111.725C233.432 114.795 225.887 115.815 219.77 116.057C217.03 116.166 215.023 115.585 213.771 114.954C212.52 114.322 212.083 113.489 212.215 112.593C212.348 111.697 213.062 110.764 213.799 109.803" stroke="#2C0977" stroke-width="16" stroke-linecap="round" stroke-linejoin="round"/>
<path d="M312.357 77.5275C311.892 77.9921 311.427 78.4568 311.008 79.2664C310.589 80.0761 310.23 81.2166 310.045 82.6384C309.86 84.0603 309.86 85.7288 310.145 87.4438C310.43 89.1588 311.001 90.8696 311.855 92.3845C312.708 93.8995 313.828 95.1667 315.239 96.0941C316.651 97.0216 318.32 97.5707 320.331 97.917C322.343 98.2632 324.646 98.39 327.036 98.0117C329.427 97.6334 331.835 96.7464 333.9 95.4762C335.965 94.206 337.613 92.5797 338.937 90.6647C340.262 88.7498 341.212 86.5954 341.903 84.2289C343.304 79.4285 343.43 74.4572 343.028 70.3037C342.846 68.4137 341.74 67.1218 340.343 66.1512C338.946 65.1806 337.044 64.6103 334.85 64.2954C330.259 63.6367 325.018 64.2961 319.716 65.6645C317.033 66.3571 314.71 68.1523 312.92 70.3508C311.13 72.5493 310.031 75.3795 309.444 78.4744C308.857 81.5693 308.815 84.843 309.269 87.7334C309.722 90.6238 310.673 93.0316 311.653 95.5123" stroke="#2C0977" stroke-width="16" stroke-linecap="round" stroke-linejoin="round"/>
<path d="M367.738 91.2239C366.808 91.0338 365.878 90.8437 365.738 90.8409C365.597 90.838 366.273 91.028 366.969 91.2239" stroke="#2C0977" stroke-width="16" stroke-linecap="round" stroke-linejoin="round"/>
<path d="M391.619 33.493C391.238 33.7042 389.965 35.376 388.311 38.4833C387.537 39.9385 387.693 41.5062 387.829 43.3133C388.125 47.2266 390.279 54.7939 393.589 64.539C395.075 68.9121 396.794 71.8975 398.857 74.7632C400.919 77.629 403.434 80.2269 405.827 82.2199C408.221 84.213 410.419 85.5225 412.544 86.44C416.532 88.1619 420.792 88.4282 424.933 88.2922C426.994 88.2246 428.927 87.5437 430.953 86.2896C435.368 83.5563 439.295 78.0271 443.458 71.9618C447.489 66.0886 450.168 60.0614 452.023 54.3055C453.889 48.5114 453.977 42.3549 453.926 36.4919C453.9 33.5384 453.262 30.65 452.283 27.702C451.304 24.754 449.846 21.8393 447.869 19.2606C445.893 16.6819 443.442 14.5276 440.468 12.7842C437.494 11.0407 434.072 9.77344 428.759 8.96219C423.446 8.15094 416.347 7.83412 411.486 8.08277C406.624 8.33143 404.216 9.15515 402.003 11.153C399.791 13.1509 397.847 16.2979 396.296 20.3375C394.745 24.377 393.647 29.2138 393.123 33.6063C392.599 37.9988 392.684 41.8006 392.771 45.7176" stroke="#2C0977" stroke-width="16" stroke-linecap="round" stroke-linejoin="round"/>
<path d="M55.2368 174.492C60.0329 173.14 64.8289 171.788 97.6498 166.72C130.471 161.651 191.171 152.907 254.492 146.967C317.813 141.026 381.915 138.153 414.314 137.096C446.713 136.039 445.466 136.884 443.874 137.709C442.281 138.535 440.379 139.317 438.42 140.122" stroke="#2C0977" stroke-width="16" stroke-linecap="round" stroke-linejoin="round"/>
</svg>
