<svg width="244" height="210" viewBox="0 0 244 210" fill="none" xmlns="http://www.w3.org/2000/svg">
<path d="M45.5898 181.723C45.4983 181.723 45.4069 181.723 45.2111 182.134C45.0154 182.546 44.7181 183.369 47.7205 175.662C50.7229 167.955 57.0338 151.692 68.0594 129.018C79.0849 106.345 94.6337 77.7529 104.965 57.2941C115.295 36.8353 119.937 25.3758 122.466 18.8891C124.994 12.4025 125.268 11.2359 125.41 10.1432C125.551 9.05049 125.551 8.06693 125.414 8.01772C124.512 7.69407 124.72 11.8618 124.8 15.7011C124.837 17.506 125.04 19.0143 126.494 25.5675C127.949 32.1207 130.692 43.6717 133.261 52.5157C135.829 61.3597 138.138 67.1466 140.837 75.1942C143.536 83.2418 146.555 93.3747 150.362 105.377C154.169 117.378 158.673 130.942 162.549 144.254C166.424 157.566 169.534 170.215 171.696 178.367C176.144 195.134 178.925 199.182 178.655 199.536C173.94 205.73 167.119 189.244 158.451 183.438C151.495 178.78 139.172 170.908 130.24 165.481C121.308 160.055 116.094 157.378 110.71 154.238C105.327 151.099 99.9302 147.576 94.7722 144.458C84.9748 138.534 75.8192 133.323 68.3136 128.536C64.9835 126.412 62.4773 125.144 56.0831 122.482C49.689 119.82 39.4451 115.863 32.3729 113.378C21.8211 109.671 14.0791 107.253 8.55458 104.331C6.84857 103.429 7.83188 102.943 30.0364 99.8045C52.2409 96.6664 95.7548 90.6964 124.322 87.0949C152.889 83.4934 165.191 82.4413 181.338 80.2181C197.484 77.9948 217.103 74.6325 226.844 73.0033C236.585 71.374 235.854 71.5799 235.054 72.0291C234.254 72.4782 233.408 73.1644 221.619 80.6887C209.83 88.213 187.124 102.555 172.603 111.498C158.082 120.441 152.435 123.552 133.748 136.328C115.061 149.105 83.5056 171.452 66.7012 183.479C48.7993 196.535 47.0511 198.076 45.6812 198.941C44.9287 199.325 44.0598 199.6 42.6103 201.13" stroke="#FEFB41" stroke-width="16" stroke-linecap="round" stroke-linejoin="round"/>
<path d="M54.5977 183.455C54.8721 183.455 55.1465 183.455 55.2649 182.643C55.3834 181.831 55.3377 180.207 55.4856 178.89C56.3875 170.861 63.5278 161.266 68.1135 154.188C72.5382 147.358 74.7529 139.988 76.4398 135.81C79.1114 129.192 80.7771 123.554 82.4615 118.788C82.753 117.964 81.9093 117.319 81.3064 116.83C80.7036 116.34 80.0634 115.974 79.2877 115.637C75.0887 113.812 66.4699 113.318 61.0923 111.803C56.2366 110.435 50.8504 107.914 46.2031 106.05C42.5533 104.586 39.7535 103.008 39.0911 102.386C38.8193 102.131 39.9607 101.536 40.8535 101.255C42.6307 100.694 49.915 100.811 61.3171 100.467C78.1245 99.9608 86.2795 96.2824 87.6279 95.7784C91.3306 94.3947 95.2796 86.896 100.654 80.0142C105.803 73.4209 109.804 66.1319 113.638 60.6173C122.356 48.0793 125.635 41.4502 126.997 38.381C127.559 37.1152 127.673 36.364 127.435 36.3186C127.198 36.2732 126.557 36.9365 126.01 39.1195C123.076 50.8298 125.497 62.8027 126.941 70.275C128.895 80.3874 130.815 83.8282 131.276 87.3749C131.386 88.2197 132.236 88.9421 132.932 89.4685C133.628 89.9949 134.36 90.2466 135.079 90.1589C142.165 89.296 156.618 90.2646 162.097 91.1282C164.328 91.4798 172.415 90.3984 184.638 88.7737C193.64 87.5771 198.342 86.2091 200.336 86.1509C201.255 86.124 201.987 86.2528 202.113 86.7459C202.238 87.2391 201.735 88.1311 201.018 88.8537C200.302 89.5763 199.387 90.1024 198.425 90.5106C193.656 92.5326 187.788 92.5353 184.577 93.8155C177.417 96.6693 164.703 105.174 159.407 108.399C157.772 109.394 155.35 111.309 154.558 111.646C153.766 111.982 154.749 110.792 155.987 109.573C158.577 107.024 161.431 105.001 162.936 103.627C163.345 103.254 162.475 103.099 161.709 103.109C160.944 103.12 160.166 103.189 159.983 102.892C159.8 102.596 160.234 101.933 161.212 100.996C163.576 98.7338 165.987 96.9817 167.335 95.6793C167.974 95.0622 168.432 94.4456 168.314 94.2421C168.196 94.0387 167.464 94.2446 166.435 94.7509C158.181 98.814 149.881 106.419 148.222 107.182C147.433 107.545 146.563 107.35 145.91 106.812C142.773 104.223 140.95 99.6288 138.356 96.937C135.217 93.681 129.854 92.3814 128.701 91.4602C123.528 87.3257 119.725 71.3005 118.944 64.9092C118.834 64.0042 119.447 63.3711 119.875 63.3385C120.96 63.256 119.77 73.2967 117.117 87.8171C115.618 96.0167 114.308 99.8492 113.272 101.494C112.952 102.001 112.189 100.897 111.929 98.3794C110.543 84.9421 113.441 75.3692 114.428 71.471C114.753 70.1882 110.413 84.5996 104.745 100.989C102.736 106.796 102.392 107.474 102.57 106.695C104.983 96.1408 110.096 84.5414 110.581 81.0581C110.795 79.5272 110.655 78.4439 109.865 78.5077C107.233 78.7202 102.559 88.3529 96.7784 100.209C93.6544 106.616 91.1935 109.233 89.2229 111.01C88.3404 111.806 87.4581 112.101 86.874 111.043C86.2898 109.985 85.9697 107.492 85.5418 105.887C85.114 104.282 84.5881 103.642 83.7226 103.85C82.8572 104.057 81.6682 105.132 80.7812 106.109C79.2214 107.827 78.46 109.422 78.1922 109.98C77.782 110.836 79.6525 107.176 80.5522 104.882C80.9702 103.816 81.1318 102.885 80.872 102.094C80.6122 101.302 79.8805 100.662 78.9662 100.595C78.0519 100.528 76.9772 101.054 75.3603 102.171C73.7434 103.289 71.6168 104.981 71.0015 106.07C70.3862 107.16 71.3466 107.594 77.7865 106.023C84.2264 104.451 96.1166 100.86 103.82 98.3122C111.523 95.7646 114.678 94.3693 112.725 96.5554C110.772 98.7416 103.615 104.551 97.8246 109.546C92.034 114.54 87.8267 118.543 86.2195 120.422C85.1864 121.63 96.0335 114.65 111.824 102.937C118.409 98.0525 122.332 95.6391 123.9 94.6521C125.467 93.6651 124.621 94.2598 118.343 99.7927C112.065 105.326 100.381 115.779 93.5955 121.987C86.8102 128.196 85.2782 129.842 85.1178 130.416C84.9574 130.99 86.215 130.441 93.6769 124.257C101.139 118.073 114.767 106.27 121.044 100.728C127.322 95.1851 125.835 96.2602 118.427 103.276C111.019 110.291 97.7339 123.215 90.227 130.673C82.72 138.131 81.3938 139.732 82.0253 139.768C82.6569 139.803 85.2865 138.225 90.2768 134.301C95.2671 130.377 102.538 124.156 110.309 118.137C118.079 112.119 126.128 106.492 131.074 103.159C136.021 99.8256 137.622 98.9564 138.16 98.909C138.699 98.8615 138.128 99.6621 129.498 107.188C120.869 114.714 104.2 128.941 96.9506 135.504C89.701 142.067 92.3763 140.535 98.0647 136.234C103.753 131.934 112.374 124.911 119.696 119.247C127.017 113.582 132.78 109.488 137.84 106.166C146.941 100.194 153.5 97.0302 155.396 96.971C156.254 96.9441 152.604 100.388 143.338 107.759C134.073 115.129 118.204 127.206 109.103 134.239C100.002 141.273 98.1496 142.897 97.8014 143.356C97.2499 144.083 106.293 136.198 118.12 125.253C127.535 116.539 135.452 111.389 140.712 108.088C142.846 106.749 143.96 106.205 136.191 112.315C128.422 118.425 111.753 131.234 102.765 138.279C93.7781 145.323 92.9777 146.215 93.3086 146.355C95.0459 147.086 105.072 137.417 112.516 130.3C113.364 129.489 100.936 140.292 94.4762 146.106C82.8266 156.59 81.1637 159.673 78.5158 161.548C76.4817 162.988 72.4151 164.406 70.5609 164.854C68.7067 165.303 69.0268 164.479 71.9356 161.288C74.8444 158.096 80.3322 152.56 86.7721 146.655C93.212 140.75 100.438 134.643 99.5753 135.66C98.713 136.677 89.5438 145.002 80.6129 154.267C71.682 163.531 63.2674 173.48 59.4127 177.931C55.5581 182.382 56.5184 181.033 64.6389 172.355C72.7594 163.677 88.011 147.711 96.9311 138.514C107.854 127.252 112.295 123.792 116.283 120.955C118.114 119.652 119.677 118.804 119.654 119.179C119.497 121.799 109.293 128.365 96.0841 139.278C89.7184 144.537 84.8417 150.168 80.8318 154.71C76.822 159.252 74.0323 162.774 72.9725 164.395C71.9127 166.015 72.6673 165.626 73.9935 164.385C75.3198 163.144 77.1948 161.062 83.134 155.736C89.0732 150.409 99.0199 141.9 108.568 134.395C118.117 126.889 126.966 120.645 132.257 117.107C137.547 113.57 139.01 112.93 138.941 113.744C138.872 114.557 137.225 116.845 132.01 121.854C126.794 126.864 118.06 134.527 113.834 138.108C109.609 141.689 110.158 140.957 114.27 137.367C118.383 133.776 126.043 127.348 130.973 123.374C137.744 117.915 140.558 116.386 141.242 116.278C141.453 116.245 140.623 117.245 135.572 122.358C130.52 127.47 121.076 136.916 116.966 141.383C112.856 145.849 114.365 145.048 119.933 140.553C125.501 136.058 135.082 127.892 136.313 127.848C137.544 127.805 130.136 136.13 126.662 140.522C123.188 144.914 123.874 145.12 127.235 142.55C130.595 139.98 136.609 134.628 136.368 135.336C136.128 136.044 129.451 142.974 128.527 144.086C127.602 145.197 132.633 140.28 134.058 139.061C135.483 137.843 133.151 140.474 131.687 142.195C130.222 143.916 129.696 144.648 129.847 145.887" stroke="#FFF994" stroke-width="12" stroke-linecap="round" stroke-linejoin="round"/>
<path d="M148.486 121.905C148.212 121.585 147.938 121.264 147.522 120.733C147.106 120.202 146.557 119.471 146.263 117.675C145.513 113.094 145.717 109.298 145.371 108.439C145.317 108.305 145.162 109.182 145.195 110.326C145.228 111.47 145.366 112.957 146.888 118.926C148.411 124.896 151.315 135.303 153.325 142.06C155.336 148.816 156.365 151.607 158.427 156.35C163.394 167.773 167.236 175.932 168.124 178.481C168.515 179.602 168.669 180.412 168.295 180.253C166.594 179.528 163.022 172.533 156.528 162.035C149.818 151.187 143.582 144.634 140.815 141.337C136.347 136.011 133.581 130.798 130.462 127.888C129.47 126.962 127.709 126.198 126.896 126.435C126.082 126.673 126.128 128.114 126.186 129.211C126.281 131.019 126.863 133.257 128.276 137.042C130.289 142.433 134.259 148.993 138.695 155.658C145.348 165.654 149.473 168.2 150.02 168.655C150.994 169.464 143.659 162.11 136.01 153.984C129.161 146.708 124.919 144.121 123.493 143.064C120.734 141.019 131.377 151.67 138.332 158.328C142.861 162.664 145.682 164.733 146.405 165.213C148.144 166.365 140.272 159.071 133.434 150.598C125.032 140.187 119.834 132.867 119.463 132.234C120.167 132.63 122.683 134.482 124.436 135.643C126.189 136.803 127.103 137.215 128.046 137.639" stroke="#FFF994" stroke-width="12" stroke-linecap="round" stroke-linejoin="round"/>
<path d="M119.731 140.202C119.731 140.499 119.731 140.796 119.822 141.304C119.914 141.812 120.097 142.521 119.562 142.223C117.449 141.045 115.674 138.728 114.153 137.806C113.44 137.373 112.814 137.066 112.691 137.336C112.567 137.605 112.956 138.474 113.442 139.277C114.398 140.854 117.809 143.028 122.492 145.716C125.575 147.694 130.273 151.95 138.65 159.425C143.483 163.468 149.497 168.02 155.693 172.71" stroke="#FFF994" stroke-width="12" stroke-linecap="round" stroke-linejoin="round"/>
<path d="M115.227 72.6227C115.227 72.5312 115.227 71.226 115.261 69.6745C115.271 69.2465 114.954 72.4446 114.078 75.2826C112.982 78.8328 107.626 86.6738 103.893 92.7328C101.46 96.6835 99.8256 100.342 98.8815 101.472C98.4181 102.027 97.8002 102.373 96.3624 102.574C89.632 103.511 85.0244 103.143 80.5628 103.752C75.4956 104.445 72.4204 105.451 69.5636 106.202C68.8245 106.397 67.9872 106.355 68.0662 106.275C71.1696 103.144 79.9288 106.464 85.4592 106.989C87.4785 107.181 89.3024 107.441 91.0891 107.578C91.9208 107.642 92.5784 107.899 92.5542 108.199C92.5299 108.5 91.7982 108.889 91.2155 109.432C90.059 110.511 87.5334 116.744 83.8063 125.815C81.5572 131.288 80.0153 136.062 77.7233 142.2C75.0834 149.269 73.7487 153.966 72.8739 155.372C72.4051 156.125 71.8162 156.914 72.9051 155.726C80.7634 147.147 85.727 143.226 96.5686 136.164C102.997 131.977 106.401 127.681 109.846 125.534C112.869 123.651 116.665 129.861 121.305 133.223C124.029 135.197 131.472 140.096 140.996 146.065C146.584 149.568 151.015 154.766 154.173 158.7C154.661 159.308 154.969 159.99 155.158 159.874C155.346 159.758 155.346 158.866 154.98 157.949C153.119 153.284 148.429 149.761 145.898 145.686C142.12 139.603 139.527 124.652 137.611 115.531C137.417 114.604 136.877 114.083 137.111 113.686C138.91 110.625 150.901 108.492 164.397 102.562C173.252 98.6719 176.958 96.3534 178.226 95.7092C178.852 95.3911 179.265 94.7904 179.123 94.5766C178.625 93.8248 175.758 95.2125 172.519 96.2512C169.699 97.1559 160.094 97.1131 147.36 96.999C142.765 96.9579 141.966 96.5648 140.914 95.9999C136.389 93.5717 133.098 92.2438 128.065 90.8233C123.638 89.5736 121.308 87.9187 120.372 86.9223C118.576 85.0129 120.724 80.27 120.415 75.6839C119.882 67.7484 117.7 65.7919 117.629 64.8991C117.027 57.3337 125.155 85.0623 125.755 87.576C126.031 88.7309 126.08 89.6779 125.659 89.3718C123.779 88.0072 122.762 85.2668 121.599 84.5601C118.774 82.8443 113.704 88.9182 102.982 97.9303C100.327 100.162 98.8368 101.909 98.3098 102.551C98.1607 102.733 104.088 97.9663 111.495 92.0099C113.638 90.2864 112.979 91.8404 111.172 94.5606C102.77 107.212 99.249 110.578 98.921 110.677C96.8666 111.3 102.829 105.291 105.028 103.063C106.439 101.633 99.1694 112.835 93.4027 121.523C91.5657 124.291 92.5064 124.082 93.8905 122.831C95.2746 121.58 97.2182 119.384 98.0136 118.745C98.4154 118.422 96.853 122.412 97.1561 123.705C97.5555 125.409 102.581 118.274 107.238 113.575C116.893 103.833 124.057 97.0181 123.898 97.4794C120.064 108.648 110.616 115.217 109.517 116.467C105.826 120.666 120.67 105.345 122.259 104.352C123.001 103.889 123.804 103.862 124.078 104.329C124.848 105.64 120.893 111.896 116.731 119.051C115.484 121.196 116.32 120.51 117.692 119.012C124.907 111.135 129.882 106.825 131.294 106.31C136.232 104.51 125.717 116.26 125.448 117.071C124.495 119.945 130.902 112.53 132.08 112.143C133.481 111.683 128.913 122.771 126.394 129.911C126.231 130.374 127.405 129.953 128.012 129.169C128.619 128.385 128.985 127.241 129.208 126.172C131.425 115.529 129.982 98.5541 131.085 97.6038C132.387 96.4832 135.008 99.9196 137.942 101.844C138.758 102.379 139.941 102.491 140.278 102.221C140.615 101.95 140.158 101.127 139.465 100.566C138.772 100.004 137.857 99.7297 136.608 99.7712C135.36 99.8128 133.805 100.179 132.558 100.619C131.311 101.059 130.419 101.562 129.64 102.05C128.86 102.538 128.22 102.996 128.096 103.677C127.972 104.359 128.384 105.251 128.962 105.928C130.077 107.234 131.551 108.128 132.405 109.464C132.819 110.112 132.847 110.892 132.803 111.726C132.759 112.561 132.554 113.476 132.036 114.428C131.518 115.379 130.695 116.34 129.734 117.212C128.772 118.084 127.698 118.839 126.584 119.423C125.47 120.006 124.35 120.395 123.269 120.606C122.189 120.818 121.183 120.841 120.299 120.636C118.606 120.242 116.694 118.267 113.944 116.066C113.269 115.526 112.425 115.303 111.533 115.081C109.684 114.62 107.569 114.718 105.415 115.12C103.164 115.539 98.3129 118.922 92.046 122.905C88.8258 124.951 86.282 128.141 83.3042 132.123C82.1533 133.663 81.8356 134.299 81.6703 135.086C81.5051 135.873 81.5279 136.811 82.0199 137.454C82.5119 138.097 83.4723 138.417 84.5501 138.182C85.6279 137.947 86.7941 137.146 87.7607 136.185C89.6533 134.303 90.8303 131.713 91.9029 129.224C92.6325 126.917 92.9381 124.917 93.3157 123.645C93.6705 123.243 94.3565 123.335 95.0632 123.429" stroke="#FFFBB9" stroke-width="12" stroke-linecap="round" stroke-linejoin="round"/>
</svg>
