<svg preserveAspectRatio="none" width="100%" height="100%" overflow="visible" style="display: block;" viewBox="0 0 16 16" fill="none" xmlns="http://www.w3.org/2000/svg">
<g id="Social media share icons">
<rect width="16" height="16" rx="4" fill="#080810"/>
<path id="Vector" d="M8.328 0.5145C9.1465 0.502 9.959 0.5085 10.771 0.502C10.798 1.5175 11.21 2.4315 11.8655 3.1085L11.8645 3.1075C12.57 3.743 13.488 4.155 14.5 4.225L14.514 4.226V6.744C13.558 6.72 12.659 6.4995 11.8485 6.1205L11.8895 6.1375C11.4975 5.949 11.166 5.7555 10.851 5.5395L10.877 5.5565C10.871 7.381 10.883 9.2055 10.8645 11.0235C10.813 11.95 10.505 12.795 10.011 13.5005L10.021 13.485C9.195 14.668 7.857 15.4445 6.3355 15.4905H6.3285C6.267 15.4935 6.1945 15.495 6.1215 15.495C5.2565 15.495 4.448 15.254 3.759 14.8355L3.779 14.847C2.525 14.0925 1.66 12.8015 1.5 11.3L1.498 11.2795C1.4855 10.967 1.4795 10.6545 1.492 10.3485C1.737 7.959 3.739 6.1105 6.1725 6.1105C6.446 6.1105 6.714 6.134 6.9745 6.1785L6.9465 6.1745C6.959 7.099 6.9215 8.024 6.9215 8.9485C6.71 8.872 6.466 8.8275 6.2115 8.8275C5.2775 8.8275 4.483 9.4245 4.189 10.258L4.1845 10.273C4.118 10.4865 4.0795 10.732 4.0795 10.986C4.0795 11.089 4.086 11.191 4.098 11.291L4.097 11.279C4.263 12.302 5.14 13.074 6.1975 13.074C6.228 13.074 6.258 13.0735 6.288 13.072H6.2835C7.015 13.05 7.65 12.6565 8.009 12.075L8.014 12.066C8.1475 11.88 8.239 11.655 8.2695 11.4105L8.27 11.4035C8.3325 10.285 8.3075 9.173 8.3135 8.0545C8.3195 5.5365 8.3075 3.0245 8.326 0.513L8.328 0.5145Z" fill="#00F5FF"/>
</g>
</svg>
