<svg preserveAspectRatio="none" width="100%" height="100%" overflow="visible" style="display: block;" viewBox="0 0 34.6667 34.6667" fill="none" xmlns="http://www.w3.org/2000/svg">
<g id="Frame 122">
<path id="Vector" fill-rule="evenodd" clip-rule="evenodd" d="M22.6667 10C23.7713 10 24.6667 10.8954 24.6667 12V22.6667C24.6667 23.7713 23.7713 24.6667 22.6667 24.6667H12C10.8954 24.6667 10 23.7713 10 22.6667V12C10 10.8954 10.8954 10 12 10H22.6667ZM22.6667 11.3333C23.0349 11.3333 23.3333 11.6318 23.3333 12V22.6667C23.3333 23.0349 23.0349 23.3333 22.6667 23.3333H19.3333V18.6666H20.7175C21.0044 18.6666 21.2591 18.483 21.3499 18.2107L21.6453 17.3247C21.7532 17.0009 21.5122 16.6666 21.1709 16.6666H19.3333V15.3333C19.3333 14.9999 19.6667 14.6666 20 14.6666H21.3333C21.7015 14.6666 22 14.3681 22 13.9999V13.5426C22 13.3273 21.8625 13.1342 21.6542 13.0792C20.7803 12.8486 20 12.8486 20 12.8486C18.3333 12.8486 17.3333 13.9999 17.3333 14.9999V16.6666H16C15.6318 16.6666 15.3333 16.9651 15.3333 17.3333V17.9999C15.3333 18.3681 15.6318 18.6666 16 18.6666H17.3333V23.3333H12C11.6318 23.3333 11.3333 23.0349 11.3333 22.6667V12C11.3333 11.6318 11.6318 11.3333 12 11.3333H22.6667Z" fill="#3A6FA8"/>
</g>
</svg>
