<svg preserveAspectRatio="none" width="100%" height="100%" overflow="visible" style="display: block;" viewBox="0 0 16 16" fill="none" xmlns="http://www.w3.org/2000/svg">
<g id="Social media share icons">
<g clip-path="url(#clip0_0_6)">
<rect width="16" height="16" rx="4" fill="#FAF7F2"/>
<path id="Vector" d="M5.7 7.30483C5.86667 7.14139 5.95 6.94417 5.95 6.71317C5.95 6.48217 5.86828 6.28333 5.70483 6.11667C5.54139 5.95 5.34417 5.86667 5.11317 5.86667C4.88217 5.86667 4.68333 5.94839 4.51667 6.11183C4.35 6.27528 4.26667 6.4725 4.26667 6.7035C4.26667 6.9345 4.34839 7.13333 4.51183 7.3C4.67528 7.46667 4.8725 7.55 5.1035 7.55C5.3345 7.55 5.53333 7.46828 5.7 7.30483ZM8.59167 7.30483C8.75278 7.14139 8.83333 6.94417 8.83333 6.71317C8.83333 6.48217 8.75433 6.28333 8.59633 6.11667C8.43833 5.95 8.24111 5.86667 8.00467 5.86667C7.76822 5.86667 7.56944 5.94839 7.40833 6.11183C7.24722 6.27528 7.16667 6.4725 7.16667 6.7035C7.16667 6.9345 7.24567 7.13333 7.40367 7.3C7.56167 7.46667 7.75889 7.55 7.99533 7.55C8.23178 7.55 8.43056 7.46828 8.59167 7.30483ZM11.4833 7.30483C11.65 7.14139 11.7333 6.94417 11.7333 6.71317C11.7333 6.48217 11.6516 6.28333 11.4882 6.11667C11.3247 5.95 11.1275 5.86667 10.8965 5.86667C10.6655 5.86667 10.4667 5.94839 10.3 6.11183C10.1333 6.27528 10.05 6.4725 10.05 6.7035C10.05 6.9345 10.1317 7.13333 10.2952 7.3C10.4586 7.46667 10.6558 7.55 10.8868 7.55C11.1178 7.55 11.3167 7.46828 11.4833 7.30483ZM0.833333 15.2333V2.88333C0.833333 2.28522 1.03939 1.78017 1.4515 1.36817C1.86361 0.956056 2.36867 0.75 2.96667 0.75H13.0333C13.6314 0.75 14.1365 0.956056 14.5485 1.36817C14.9606 1.78017 15.1667 2.28522 15.1667 2.88333V10.5333C15.1667 11.1314 14.9606 11.6365 14.5485 12.0485C14.1365 12.4606 13.6314 12.6667 13.0333 12.6667H3.4L0.833333 15.2333ZM2.83333 10.5333H13.0333V2.88333H2.96667V10.4333L2.83333 10.5333Z" fill="#3A6FA8"/>
</g>
</g>
<defs>
<clipPath id="clip0_0_6">
<rect width="16" height="16" rx="4" fill="white"/>
</clipPath>
</defs>
</svg>
