<svg preserveAspectRatio="none" width="100%" height="100%" overflow="visible" style="display: block;" viewBox="0 0 14.6681 14.6667" fill="none" xmlns="http://www.w3.org/2000/svg">
<g id="Group">
<path id="Vector" d="M11.2304 2.70023C10.7395 2.70023 10.371 3.06867 10.371 3.5596L10.375 3.64945C10.4142 4.06499 10.7242 4.37463 11.1396 4.4141L11.2304 4.41898C11.6907 4.41887 12.0429 4.09457 12.0849 3.64945L12.0898 3.5596C12.0898 3.09918 11.7655 2.74617 11.3203 2.70413L11.2304 2.70023ZM11.2304 4.41898V2.70023M11.2304 4.41898V2.70023" fill="var(--fill-0, #00F5FF)" stroke="var(--stroke-0, #00F5FF)" stroke-width="25"/>
<path id="Vector_2" d="M7.36439 3.8047C5.33928 3.8047 3.74329 5.46206 3.74329 7.4258L3.74818 7.60841C3.84398 9.43025 5.35897 10.9452 7.18079 11.041L7.36439 11.0459C9.26659 11.0457 10.8806 9.49082 10.9796 7.60841L10.9845 7.4258C10.9845 5.52355 9.48739 3.90882 7.55286 3.80959L7.36439 3.8047ZM7.36439 11.0459V9.75685M7.36439 11.0459V9.75685M7.36439 9.75685C8.57228 9.75662 9.56432 8.84032 9.68372 7.66408L9.69544 7.4258C9.69544 6.2177 8.77906 5.2249 7.60267 5.10549L7.36439 5.09377M7.36439 9.75685L7.12513 9.74513C6.02727 9.63365 5.15552 8.76195 5.04408 7.66408L5.03236 7.4258C5.03236 6.13709 6.07569 5.09377 7.36439 5.09377M7.36439 5.09377V3.8047M7.36439 5.09377V3.8047" fill="var(--fill-0, #00F5FF)" stroke="var(--stroke-0, #00F5FF)" stroke-width="25"/>
<g id="Vector_3">
<mask id="path-3-inside-1_0_8" fill="white">
<path d="M10.3096 0H4.47978C1.96374 0 0 1.96374 0 4.41841V10.2483C0 12.7029 1.96374 14.6667 4.41841 14.6667H10.2483C12.7029 14.6667 14.6667 12.7029 14.6667 10.2483V4.41841C14.728 1.96374 12.7643 0 10.3096 0ZM13.3166 10.3096C13.3166 11.9665 11.9665 13.378 10.2483 13.378H4.41841C2.76151 13.378 1.35007 12.0279 1.35007 10.3096V4.47978C1.35007 2.82287 2.70014 1.41144 4.41841 1.41144H10.2483C11.9052 1.41144 13.3166 2.76151 13.3166 4.47978V10.3096Z"/>
</mask>
<path d="M10.3096 0H4.47978C1.96374 0 0 1.96374 0 4.41841V10.2483C0 12.7029 1.96374 14.6667 4.41841 14.6667H10.2483C12.7029 14.6667 14.6667 12.7029 14.6667 10.2483V4.41841C14.728 1.96374 12.7643 0 10.3096 0ZM13.3166 10.3096C13.3166 11.9665 11.9665 13.378 10.2483 13.378H4.41841C2.76151 13.378 1.35007 12.0279 1.35007 10.3096V4.47978C1.35007 2.82287 2.70014 1.41144 4.41841 1.41144H10.2483C11.9052 1.41144 13.3166 2.76151 13.3166 4.47978V10.3096Z" fill="var(--fill-0, #00F5FF)"/>
<path d="M14.6667 4.41841L-10.3255 3.79361L-10.3333 4.10596V4.41841H14.6667ZM10.3096 0V-25H4.47978V0V25H10.3096V0ZM4.47978 0V-25C-11.6173 -25 -25 -12.0684 -25 4.41841H0H25C25 15.9959 15.5448 25 4.47978 25V0ZM0 4.41841H-25V10.2483H0H25V4.41841H0ZM0 10.2483H-25C-25 26.5101 -11.8434 39.6667 4.41841 39.6667V14.6667V-10.3333C15.7709 -10.3333 25 -1.10419 25 10.2483H0ZM4.41841 14.6667V39.6667H10.2483V14.6667V-10.3333H4.41841V14.6667ZM10.2483 14.6667V39.6667C26.51 39.6667 39.6667 26.51 39.6667 10.2483H14.6667H-10.3333C-10.3333 -1.10419 -1.10419 -10.3333 10.2483 -10.3333V14.6667ZM14.6667 10.2483H39.6667V4.41841H14.6667H-10.3333V10.2483H14.6667ZM14.6667 4.41841L39.6589 5.04321C40.0805 -11.8234 26.4487 -25 10.3096 -25V0V25C-0.920113 25 -10.6245 15.7508 -10.3255 3.79361L14.6667 4.41841ZM13.3166 10.3096H-11.6834C-11.6834 -1.51437 -2.16457 -11.622 10.2483 -11.622V13.378V38.378C26.0976 38.378 38.3166 25.4474 38.3166 10.3096H13.3166ZM10.2483 13.378V-11.622H4.41841V13.378V38.378H10.2483V13.378ZM4.41841 13.378V-11.622C16.2424 -11.622 26.3501 -2.1032 26.3501 10.3096H1.35007H-23.6499C-23.6499 26.159 -10.7194 38.378 4.41841 38.378V13.378ZM1.35007 10.3096H26.3501V4.47978H1.35007H-23.6499V10.3096H1.35007ZM1.35007 4.47978H26.3501C26.3501 16.3038 16.8312 26.4114 4.41841 26.4114V1.41144V-23.5886C-11.431 -23.5886 -23.6499 -10.658 -23.6499 4.47978H1.35007ZM4.41841 1.41144V26.4114H10.2483V1.41144V-23.5886H4.41841V1.41144ZM10.2483 1.41144V26.4114C-1.57574 26.4114 -11.6834 16.8926 -11.6834 4.47978H13.3166H38.3166C38.3166 -11.3696 25.3861 -23.5886 10.2483 -23.5886V1.41144ZM13.3166 4.47978H-11.6834V10.3096H13.3166H38.3166V4.47978H13.3166Z" fill="var(--stroke-0, #00F5FF)" mask="url(#path-3-inside-1_0_8)"/>
</g>
</g>
</svg>
