<svg preserveAspectRatio="none" width="100%" height="100%" overflow="visible" style="display: block;" viewBox="0 0 14.3333 14.4833" fill="none" xmlns="http://www.w3.org/2000/svg">
<path id="Vector" d="M4.86667 6.55483C5.03333 6.39139 5.11667 6.19417 5.11667 5.96317C5.11667 5.73217 5.03494 5.53333 4.8715 5.36667C4.70806 5.2 4.51083 5.11667 4.27983 5.11667C4.04883 5.11667 3.85 5.19839 3.68333 5.36183C3.51667 5.52528 3.43333 5.7225 3.43333 5.9535C3.43333 6.1845 3.51506 6.38333 3.6785 6.55C3.84194 6.71667 4.03917 6.8 4.27017 6.8C4.50117 6.8 4.7 6.71828 4.86667 6.55483ZM7.75833 6.55483C7.91944 6.39139 8 6.19417 8 5.96317C8 5.73217 7.921 5.53333 7.763 5.36667C7.605 5.2 7.40778 5.11667 7.17133 5.11667C6.93489 5.11667 6.73611 5.19839 6.575 5.36183C6.41389 5.52528 6.33333 5.7225 6.33333 5.9535C6.33333 6.1845 6.41233 6.38333 6.57033 6.55C6.72833 6.71667 6.92556 6.8 7.162 6.8C7.39844 6.8 7.59722 6.71828 7.75833 6.55483ZM10.65 6.55483C10.8167 6.39139 10.9 6.19417 10.9 5.96317C10.9 5.73217 10.8183 5.53333 10.6548 5.36667C10.4914 5.2 10.2942 5.11667 10.0632 5.11667C9.83217 5.11667 9.63333 5.19839 9.46667 5.36183C9.3 5.52528 9.21667 5.7225 9.21667 5.9535C9.21667 6.1845 9.29839 6.38333 9.46183 6.55C9.62528 6.71667 9.8225 6.8 10.0535 6.8C10.2845 6.8 10.4833 6.71828 10.65 6.55483ZM0 14.4833V2.13333C0 1.53522 0.206055 1.03017 0.618167 0.618167C1.03028 0.206056 1.53533 0 2.13333 0H12.2C12.7981 0 13.3032 0.206056 13.7152 0.618167C14.1273 1.03017 14.3333 1.53522 14.3333 2.13333V9.78333C14.3333 10.3814 14.1273 10.8865 13.7152 11.2985C13.3032 11.7106 12.7981 11.9167 12.2 11.9167H2.56667L0 14.4833ZM2 9.78333H12.2V2.13333H2.13333V9.68333L2 9.78333Z" fill="var(--fill-0, #3A6FA8)"/>
</svg>
