<svg preserveAspectRatio="none" width="100%" height="100%" overflow="visible" style="display: block;" viewBox="0 0 13.0289 14.993" fill="none" xmlns="http://www.w3.org/2000/svg">
<path id="Vector" d="M6.8429 0.0125C7.6614 4.74975e-08 8.4739 0.0065 9.2859 0C9.3129 1.0155 9.7249 1.9295 10.3804 2.6065L10.3794 2.6055C11.0849 3.241 12.0029 3.653 13.0149 3.723L13.0289 3.724V6.242C12.0729 6.218 11.1739 5.9975 10.3634 5.6185L10.4044 5.6355C10.0124 5.447 9.6809 5.2535 9.3659 5.0375L9.3919 5.0545C9.3859 6.879 9.3979 8.7035 9.3794 10.5215C9.3279 11.448 9.0199 12.293 8.5259 12.9985L8.5359 12.983C7.7099 14.166 6.3719 14.9425 4.8504 14.9885H4.8434C4.7819 14.9915 4.7094 14.993 4.6364 14.993C3.7714 14.993 2.9629 14.752 2.2739 14.3335L2.2939 14.345C1.0399 13.5905 0.174896 12.2995 0.0148959 10.798L0.0128959 10.7775C0.000395901 10.465 -0.00560414 10.1525 0.00689586 9.8465C0.251896 7.457 2.2539 5.6085 4.6874 5.6085C4.9609 5.6085 5.2289 5.632 5.4894 5.6765L5.4614 5.6725C5.4739 6.597 5.4364 7.522 5.4364 8.4465C5.2249 8.37 4.9809 8.3255 4.7264 8.3255C3.7924 8.3255 2.9979 8.9225 2.7039 9.756L2.6994 9.771C2.6329 9.9845 2.5944 10.23 2.5944 10.484C2.5944 10.587 2.6009 10.689 2.6129 10.789L2.6119 10.777C2.7779 11.8 3.6549 12.572 4.7124 12.572C4.7429 12.572 4.7729 12.5715 4.8029 12.57H4.7984C5.5299 12.548 6.1649 12.1545 6.5239 11.573L6.5289 11.564C6.6624 11.378 6.7539 11.153 6.7844 10.9085L6.7849 10.9015C6.8474 9.783 6.8224 8.671 6.8284 7.5525C6.8344 5.0345 6.8224 2.5225 6.8409 0.011L6.8429 0.0125Z" fill="var(--fill-0, #3A6FA8)"/>
</svg>
