<svg width="137" height="441" viewBox="0 0 137 441" fill="none" xmlns="http://www.w3.org/2000/svg">
<path d="M82.5412 53.1477C82.5412 73.6848 83.2463 94.3101 82.453 114.759C78.4866 208.366 74.1677 301.973 69.5842 395.492C69.0554 405.981 67.1163 416.382 64.9127 426.695C63.3261 434.363 59.1834 440.797 49.9285 440.004C40.7617 439.211 37.3242 432.336 37.3242 424.491C37.5005 391.526 37.5005 358.561 38.9107 325.595C42.172 249.881 46.1384 174.167 48.1657 97.7476C46.7554 100.833 45.257 103.918 43.9349 107.091C36.2665 125.512 28.6863 144.022 20.9298 162.444C19.6076 165.617 17.7566 168.878 15.7294 171.523C11.763 176.811 8.41358 176.899 5.41674 176.282C0.745203 175.401 -0.224364 171.787 0.040063 166.587C0.216348 163.325 0.0400504 159.535 1.09776 156.274C15.9938 111.762 30.978 67.3386 46.3147 23.003C48.2538 17.4501 51.2507 11.9852 54.8645 7.40185C63.9432 -4.14478 79.7206 -1.76494 85.4499 11.6327C101.58 49.622 117.622 87.6113 133.664 125.601C134.721 128.157 135.338 129.303 136.043 133.533C136.66 137.235 133.311 141.731 130.402 143.317C128.111 144.551 122.381 143.141 120.53 140.937C117.093 136.795 114.889 131.33 112.95 126.129C104.665 104.182 96.6439 82.1465 88.5349 60.1109C87.6534 57.6429 86.4194 55.2631 85.4499 52.7951C83.8633 49.8864 83.07 48.0355 82.5412 53.1477Z" fill="black"/>
</svg>
