<svg width="155" height="472" viewBox="0 0 155 472" fill="none" xmlns="http://www.w3.org/2000/svg">
<path d="M100.471 53.1477C100.471 73.6849 101.176 94.3102 100.383 114.759C96.4163 208.366 77.3776 303.976 72.7942 397.495C72.2654 407.984 74.9978 431.69 72.7942 442.003C71.2077 449.671 53.6846 472.289 44.4297 471.495C35.2629 470.702 38.8594 434.539 38.8594 426.694C39.0357 393.729 43.0194 357.96 44.4297 324.995C47.691 249.281 64.0681 174.167 66.0954 97.7477C65.8413 105.503 65.5665 69.3298 64.2444 72.5029C38.8095 85.3717 28.6862 107.708 20.9297 126.13C19.6076 129.303 17.7566 132.564 15.7293 135.208C11.7629 140.497 8.41351 140.585 5.41667 139.968C0.745133 139.086 -0.224435 135.473 0.0399926 130.272C0.216277 127.011 0.03998 123.221 1.09769 119.96C15.9937 75.4477 48.9077 67.3386 64.2444 23.0031C66.1835 17.4501 69.1804 11.9853 72.7942 7.40188C81.8729 -4.14475 97.6503 -1.76491 103.38 11.6327C119.51 49.622 135.551 87.6113 151.593 125.601C152.651 128.157 153.268 129.303 153.973 133.533C154.59 137.235 151.241 141.731 148.332 143.317C146.04 144.551 140.311 143.141 138.46 140.937C135.023 136.795 132.819 131.33 130.88 126.13C122.595 104.182 114.574 82.1465 106.465 60.111C105.583 57.643 104.349 55.2631 103.38 52.7952C101.793 49.8865 101 48.0355 100.471 53.1477Z" fill="black"/>
</svg>
