<svg width="349" height="632" viewBox="0 0 349 632" fill="none" xmlns="http://www.w3.org/2000/svg">
<path d="M313.44 23.8561C288.877 32.3882 265.338 40.7056 241.788 48.8987C237.099 50.5605 233.788 51.7263 227.601 52.5179C223.014 53.1696 213.252 54.274 213.522 47.6169C214.184 42.1771 215.186 38.4599 223.088 34.5144C243.537 24.4649 265.108 18.5725 286.48 12.5725C305.355 7.29146 319.825 3.64755 336.783 0.286527C344.703 -1.2825 348.357 3.65442 348.264 13.425C348.178 22.1936 348.208 31.2025 346.867 39.7055C342.159 70.4059 336.854 100.783 331.759 131.392C331.144 135.201 330.841 138.231 329.611 142.594C328.081 147.859 327.195 151.817 323.019 150.68C319.043 149.651 318.579 142.183 318.911 138.399C321.159 106.662 326.63 41.3508 326.315 37.7488C314.905 49.2604 304.149 59.5884 293.845 70.7529C222.39 148.971 156.036 233.501 106.565 338.708C67.4025 421.985 41.8684 510.332 21.7644 605.584C20.5493 611.198 17.7647 616.084 14.0961 622.584C10.2646 629.084 7.22807 632.452 4.26465 631.084C-1.06888 627.546 0.072833 622.123 0.162853 617.735C0.248821 608.966 1.75678 600.198 3.19234 591.687C23.309 478.16 94.7332 316.645 144.21 222.327C194.985 125.517 225.084 108.517 296.264 39.0845C300.132 35.6171 312.131 26.2235 313.44 23.8561Z" fill="black"/>
</svg>
