<svg width="727" height="287" viewBox="0 0 727 287" fill="none" xmlns="http://www.w3.org/2000/svg">
<path d="M679.864 67.1314C619.502 78.0073 559.184 88.7643 498.887 100.202C494.704 100.968 490.077 106.284 488.12 110.552C442.072 212.656 362.309 270.181 252.373 285.225C234.097 287.727 214.818 284.479 195.335 275.503C169.607 263.716 160.504 236.576 172.886 211.064C183.7 188.75 202.184 174.209 222.419 161.517C267.321 133.572 317.115 116.965 367.34 102.13C399.17 92.7158 431.508 85.236 464.559 76.5351C462.694 61.3179 450.097 46.3678 435.876 42.5378C408.946 35.1593 394.302 36.56 371.715 37.2233C300.829 39.2882 233.322 58.3323 169.151 87.0715C121.387 108.456 75.2114 133.245 28.3551 156.575C24.2586 158.583 20.27 161.036 16.3032 162.688C10.1099 165.28 4.86838 165.257 1.55191 160.684C-2.42402 156.814 2.17115 149.737 4.94967 146.171C9.51206 140.293 15.4143 135.172 21.6837 131.262C119.994 68.6414 224.298 20.9906 341.69 8.39157C367.455 5.65413 393.954 6.81831 419.772 9.4845C456.84 13.4185 484.36 31.3774 492.67 71.4207C550.481 63.1161 607.448 54.9087 665.421 46.5285C647.59 40.0389 630.711 33.8954 613.713 27.7087C610.861 26.6703 607.878 25.9886 605.112 24.7125C597.602 21.306 586.817 19.1306 590.17 7.69751C593.437 -3.49783 603.822 0.147273 610.641 2.49445C645.296 14.1657 679.941 26.2368 713.99 39.5722C727.887 45.0339 731.288 56.7716 720.996 67.2948C691.505 98.0219 660.447 127.506 629.357 156.709C626.481 159.431 618.559 162.336 612.995 156.542C609.127 151.634 612.188 143.594 615.161 140.234C633.161 119.997 652.101 100.507 670.846 80.8107C674.144 77.2993 677.679 73.8744 681.095 70.4063C687.71 65.545 684.608 66.3006 679.864 67.1314ZM463.522 110.08C465.437 105.931 456.984 109.181 455.655 109.505C386.084 126.452 317.214 145.539 253.625 179.336C236.612 188.355 220.549 200.682 207.047 214.478C189.177 232.878 196.077 252.754 221.57 257.052C238.061 259.824 255.968 260.553 272.342 257.359C341.934 244.054 411.644 194.178 440.469 151.228C451.325 134.717 453.142 129.725 463.522 110.08Z" fill="black"/>
</svg>
