<svg width="546" height="229" viewBox="0 0 546 229" fill="none" xmlns="http://www.w3.org/2000/svg">
<path d="M24.724 35.7199C37.5391 57.2055 49.9214 77.7714 62.2173 98.3687C64.6875 102.465 66.4261 105.358 68.6765 111.003C70.3919 115.177 73.8385 124.109 68.9716 124.998C64.8751 125.314 61.9264 125.016 56.9393 118.311C44.149 100.929 34.0473 81.7861 23.9221 62.8473C14.9928 46.1176 8.43912 33.2243 1.413 17.9565C-1.86795 10.8258 0.694119 6.5633 7.75458 4.9729C14.0917 3.54784 20.5703 1.97333 27.0572 1.76698C50.4413 0.895158 73.7549 0.636652 97.1785 0.142243C100.088 0.0627557 102.352 -0.173793 105.828 0.226193C110.035 0.75177 113.125 0.900256 113.44 4.99676C113.78 8.88882 108.528 10.6045 105.713 10.9434C82.2509 14.2921 33.7383 20.3923 31.2303 21.3052C42.6184 29.9904 52.9764 38.267 63.8138 45.9774C139.542 99.313 225.674 138.269 314.864 166.432C385.464 188.726 450.24 210.805 524.286 213.236C528.658 213.408 533.069 213.957 537.307 214.569C543.063 215.314 545.926 216.721 545.746 219.724C544.647 225.315 540.613 225.804 537.429 226.473C531.092 227.898 524.369 227.995 517.851 228.115C430.643 228.809 277.364 187.932 200.864 151.932C124.364 115.932 109.128 100.784 39.8004 46.1967C36.2533 43.1784 26.7844 36.537 24.724 35.7199Z" fill="black"/>
</svg>
